# 3ds Max Wavefront OBJ Exporter v0.99 - (c)2007 guruware
# File Created: 01.08.2025 07:42:42

mtllib beach_ball.mtl

#
# object beach_ball
#

v  -0.0000 27.2190 -0.0000
v  -0.0000 26.9569 -2.6619
v  -0.5193 26.9569 -2.6108
v  -1.0187 26.9569 -2.4593
v  -1.4789 26.9569 -2.2133
v  -1.8823 26.9569 -1.8823
v  -2.2133 26.9569 -1.4789
v  -2.4593 26.9569 -1.0187
v  -2.6108 26.9569 -0.5193
v  -2.6619 26.9569 0.0000
v  -2.6108 26.9569 0.5193
v  -2.4593 26.9569 1.0187
v  -2.2133 26.9569 1.4789
v  -1.8823 26.9569 1.8823
v  -1.4789 26.9569 2.2133
v  -1.0187 26.9569 2.4593
v  -0.5193 26.9569 2.6108
v  0.0000 26.9569 2.6619
v  0.5193 26.9569 2.6108
v  1.0187 26.9569 2.4593
v  1.4789 26.9569 2.2133
v  1.8823 26.9569 1.8823
v  2.2133 26.9569 1.4789
v  2.4593 26.9569 1.0187
v  2.6108 26.9569 0.5193
v  2.6619 26.9569 -0.0000
v  2.6108 26.9569 -0.5193
v  2.4593 26.9569 -1.0187
v  2.2133 26.9569 -1.4789
v  1.8823 26.9569 -1.8823
v  1.4789 26.9569 -2.2133
v  1.0187 26.9569 -2.4593
v  0.5193 26.9569 -2.6108
v  -0.0000 26.1804 -5.2216
v  -1.0187 26.1804 -5.1212
v  -1.9982 26.1804 -4.8241
v  -2.9009 26.1804 -4.3416
v  -3.6922 26.1804 -3.6922
v  -4.3416 26.1804 -2.9009
v  -4.8241 26.1804 -1.9982
v  -5.1212 26.1804 -1.0187
v  -5.2216 26.1804 0.0000
v  -5.1212 26.1804 1.0187
v  -4.8241 26.1804 1.9982
v  -4.3416 26.1804 2.9009
v  -3.6922 26.1804 3.6922
v  -2.9009 26.1804 4.3416
v  -1.9982 26.1804 4.8241
v  -1.0187 26.1804 5.1212
v  0.0000 26.1804 5.2216
v  1.0187 26.1804 5.1212
v  1.9982 26.1804 4.8241
v  2.9009 26.1804 4.3416
v  3.6922 26.1804 3.6922
v  4.3416 26.1804 2.9009
v  4.8241 26.1804 1.9982
v  5.1212 26.1804 1.0187
v  5.2216 26.1804 -0.0000
v  5.1212 26.1804 -1.0187
v  4.8241 26.1804 -1.9982
v  4.3416 26.1804 -2.9010
v  3.6922 26.1804 -3.6922
v  2.9009 26.1804 -4.3416
v  1.9982 26.1804 -4.8241
v  1.0187 26.1804 -5.1212
v  -0.0000 24.9195 -7.5805
v  -1.4789 24.9195 -7.4349
v  -2.9009 24.9195 -7.0035
v  -4.2115 24.9195 -6.3030
v  -5.3602 24.9195 -5.3602
v  -6.3030 24.9195 -4.2115
v  -7.0035 24.9195 -2.9009
v  -7.4349 24.9195 -1.4789
v  -7.5805 24.9195 0.0000
v  -7.4349 24.9195 1.4789
v  -7.0035 24.9195 2.9009
v  -6.3030 24.9195 4.2115
v  -5.3602 24.9195 5.3602
v  -4.2115 24.9195 6.3030
v  -2.9009 24.9195 7.0035
v  -1.4789 24.9195 7.4349
v  0.0000 24.9195 7.5805
v  1.4789 24.9195 7.4349
v  2.9009 24.9195 7.0035
v  4.2115 24.9195 6.3030
v  5.3602 24.9195 5.3602
v  6.3030 24.9195 4.2115
v  7.0035 24.9195 2.9009
v  7.4349 24.9195 1.4789
v  7.5805 24.9195 -0.0000
v  7.4349 24.9195 -1.4789
v  7.0035 24.9195 -2.9010
v  6.3030 24.9195 -4.2115
v  5.3602 24.9195 -5.3603
v  4.2115 24.9195 -6.3030
v  2.9009 24.9195 -7.0035
v  1.4789 24.9195 -7.4349
v  -0.0000 23.2226 -9.6482
v  -1.8823 23.2226 -9.4628
v  -3.6922 23.2226 -8.9138
v  -5.3602 23.2226 -8.0222
v  -6.8223 23.2226 -6.8223
v  -8.0222 23.2226 -5.3602
v  -8.9138 23.2226 -3.6922
v  -9.4628 23.2226 -1.8823
v  -9.6482 23.2226 0.0000
v  -9.4628 23.2226 1.8823
v  -8.9138 23.2226 3.6922
v  -8.0222 23.2226 5.3602
v  -6.8223 23.2226 6.8223
v  -5.3602 23.2226 8.0222
v  -3.6922 23.2226 8.9138
v  -1.8823 23.2226 9.4628
v  0.0000 23.2226 9.6482
v  1.8823 23.2226 9.4628
v  3.6922 23.2226 8.9138
v  5.3603 23.2226 8.0222
v  6.8223 23.2226 6.8223
v  8.0222 23.2226 5.3602
v  8.9138 23.2226 3.6922
v  9.4628 23.2226 1.8823
v  9.6482 23.2226 -0.0000
v  9.4628 23.2226 -1.8823
v  8.9138 23.2226 -3.6922
v  8.0222 23.2226 -5.3603
v  6.8223 23.2226 -6.8223
v  5.3602 23.2226 -8.0222
v  3.6922 23.2226 -8.9138
v  1.8822 23.2226 -9.4628
v  -0.0000 21.1550 -11.3451
v  -2.2133 21.1550 -11.1271
v  -4.3416 21.1550 -10.4815
v  -6.3030 21.1550 -9.4331
v  -8.0222 21.1550 -8.0222
v  -9.4331 21.1550 -6.3030
v  -10.4815 21.1550 -4.3416
v  -11.1271 21.1550 -2.2133
v  -11.3451 21.1550 0.0000
v  -11.1271 21.1550 2.2133
v  -10.4815 21.1550 4.3416
v  -9.4331 21.1550 6.3030
v  -8.0222 21.1550 8.0222
v  -6.3030 21.1550 9.4331
v  -4.3416 21.1550 10.4815
v  -2.2133 21.1550 11.1271
v  0.0000 21.1550 11.3451
v  2.2133 21.1550 11.1271
v  4.3416 21.1550 10.4815
v  6.3030 21.1550 9.4331
v  8.0222 21.1550 8.0222
v  9.4331 21.1550 6.3030
v  10.4815 21.1550 4.3416
v  11.1271 21.1550 2.2133
v  11.3451 21.1550 -0.0000
v  11.1271 21.1550 -2.2133
v  10.4815 21.1550 -4.3416
v  9.4331 21.1550 -6.3030
v  8.0222 21.1550 -8.0222
v  6.3030 21.1550 -9.4331
v  4.3415 21.1550 -10.4815
v  2.2133 21.1550 -11.1271
v  -0.0000 18.7960 -12.6060
v  -2.4593 18.7960 -12.3637
v  -4.8241 18.7960 -11.6464
v  -7.0035 18.7960 -10.4815
v  -8.9138 18.7960 -8.9138
v  -10.4815 18.7960 -7.0035
v  -11.6464 18.7960 -4.8241
v  -12.3637 18.7960 -2.4593
v  -12.6060 18.7960 0.0000
v  -12.3637 18.7960 2.4593
v  -11.6464 18.7960 4.8241
v  -10.4815 18.7960 7.0035
v  -8.9138 18.7960 8.9138
v  -7.0035 18.7960 10.4815
v  -4.8241 18.7960 11.6464
v  -2.4593 18.7960 12.3637
v  0.0000 18.7960 12.6060
v  2.4593 18.7960 12.3637
v  4.8241 18.7960 11.6464
v  7.0035 18.7960 10.4815
v  8.9138 18.7960 8.9137
v  10.4815 18.7960 7.0035
v  11.6464 18.7960 4.8241
v  12.3637 18.7960 2.4593
v  12.6060 18.7960 -0.0000
v  12.3637 18.7960 -2.4593
v  11.6464 18.7960 -4.8241
v  10.4815 18.7960 -7.0035
v  8.9137 18.7960 -8.9138
v  7.0035 18.7960 -10.4815
v  4.8241 18.7960 -11.6464
v  2.4593 18.7960 -12.3637
v  -0.0000 16.2364 -13.3824
v  -2.6108 16.2364 -13.1253
v  -5.1212 16.2364 -12.3637
v  -7.4349 16.2364 -11.1271
v  -9.4628 16.2364 -9.4628
v  -11.1271 16.2364 -7.4349
v  -12.3637 16.2364 -5.1212
v  -13.1253 16.2364 -2.6108
v  -13.3824 16.2364 0.0000
v  -13.1253 16.2364 2.6108
v  -12.3637 16.2364 5.1212
v  -11.1271 16.2364 7.4349
v  -9.4628 16.2364 9.4628
v  -7.4349 16.2364 11.1271
v  -5.1212 16.2364 12.3637
v  -2.6108 16.2364 13.1253
v  0.0000 16.2364 13.3824
v  2.6108 16.2364 13.1253
v  5.1212 16.2364 12.3637
v  7.4349 16.2364 11.1271
v  9.4628 16.2364 9.4628
v  11.1271 16.2364 7.4349
v  12.3637 16.2364 5.1212
v  13.1253 16.2364 2.6108
v  13.3824 16.2364 -0.0000
v  13.1253 16.2364 -2.6108
v  12.3637 16.2364 -5.1212
v  11.1271 16.2364 -7.4349
v  9.4628 16.2364 -9.4628
v  7.4348 16.2364 -11.1271
v  5.1212 16.2364 -12.3637
v  2.6108 16.2364 -13.1253
v  -0.0000 13.5744 -13.6446
v  -2.6619 13.5744 -13.3824
v  -5.2216 13.5744 -12.6060
v  -7.5805 13.5744 -11.3451
v  -9.6482 13.5744 -9.6482
v  -11.3451 13.5744 -7.5805
v  -12.6060 13.5744 -5.2216
v  -13.3824 13.5744 -2.6619
v  -13.6446 13.5744 0.0000
v  -13.3824 13.5744 2.6619
v  -12.6060 13.5744 5.2216
v  -11.3451 13.5744 7.5805
v  -9.6482 13.5744 9.6482
v  -7.5805 13.5744 11.3451
v  -5.2215 13.5744 12.6060
v  -2.6619 13.5744 13.3824
v  0.0000 13.5744 13.6446
v  2.6619 13.5744 13.3824
v  5.2216 13.5744 12.6060
v  7.5805 13.5744 11.3451
v  9.6482 13.5744 9.6482
v  11.3451 13.5744 7.5805
v  12.6060 13.5744 5.2215
v  13.3824 13.5744 2.6619
v  13.6446 13.5744 -0.0000
v  13.3824 13.5744 -2.6620
v  12.6059 13.5744 -5.2216
v  11.3450 13.5744 -7.5805
v  9.6482 13.5744 -9.6482
v  7.5805 13.5744 -11.3451
v  5.2215 13.5744 -12.6060
v  2.6619 13.5744 -13.3824
v  -0.0000 10.9125 -13.3824
v  -2.6108 10.9125 -13.1253
v  -5.1212 10.9125 -12.3637
v  -7.4349 10.9125 -11.1271
v  -9.4628 10.9125 -9.4628
v  -11.1271 10.9125 -7.4349
v  -12.3637 10.9125 -5.1212
v  -13.1253 10.9125 -2.6108
v  -13.3824 10.9125 0.0000
v  -13.1253 10.9125 2.6108
v  -12.3637 10.9125 5.1212
v  -11.1271 10.9125 7.4349
v  -9.4628 10.9125 9.4628
v  -7.4349 10.9125 11.1271
v  -5.1212 10.9125 12.3637
v  -2.6108 10.9125 13.1253
v  0.0000 10.9125 13.3824
v  2.6108 10.9125 13.1253
v  5.1212 10.9125 12.3637
v  7.4349 10.9125 11.1271
v  9.4628 10.9125 9.4628
v  11.1271 10.9125 7.4349
v  12.3637 10.9125 5.1212
v  13.1253 10.9125 2.6108
v  13.3824 10.9125 -0.0000
v  13.1253 10.9125 -2.6108
v  12.3637 10.9125 -5.1213
v  11.1271 10.9125 -7.4349
v  9.4628 10.9125 -9.4628
v  7.4348 10.9125 -11.1271
v  5.1212 10.9125 -12.3637
v  2.6108 10.9125 -13.1253
v  -0.0000 8.3529 -12.6060
v  -2.4593 8.3529 -12.3637
v  -4.8241 8.3529 -11.6464
v  -7.0035 8.3529 -10.4815
v  -8.9138 8.3529 -8.9138
v  -10.4815 8.3529 -7.0035
v  -11.6464 8.3529 -4.8241
v  -12.3637 8.3529 -2.4593
v  -12.6060 8.3529 0.0000
v  -12.3637 8.3529 2.4593
v  -11.6464 8.3529 4.8241
v  -10.4815 8.3529 7.0035
v  -8.9138 8.3529 8.9138
v  -7.0035 8.3529 10.4815
v  -4.8241 8.3529 11.6464
v  -2.4593 8.3529 12.3637
v  0.0000 8.3529 12.6060
v  2.4593 8.3529 12.3637
v  4.8241 8.3529 11.6464
v  7.0035 8.3529 10.4815
v  8.9138 8.3529 8.9137
v  10.4815 8.3529 7.0035
v  11.6464 8.3529 4.8241
v  12.3637 8.3529 2.4593
v  12.6060 8.3529 -0.0000
v  12.3637 8.3529 -2.4593
v  11.6464 8.3529 -4.8241
v  10.4815 8.3529 -7.0035
v  8.9137 8.3529 -8.9138
v  7.0035 8.3529 -10.4815
v  4.8241 8.3529 -11.6464
v  2.4593 8.3529 -12.3637
v  -0.0000 5.9939 -11.3451
v  -2.2133 5.9939 -11.1271
v  -4.3416 5.9939 -10.4815
v  -6.3030 5.9939 -9.4331
v  -8.0222 5.9939 -8.0222
v  -9.4331 5.9939 -6.3030
v  -10.4815 5.9939 -4.3416
v  -11.1271 5.9939 -2.2133
v  -11.3451 5.9939 0.0000
v  -11.1271 5.9939 2.2133
v  -10.4815 5.9939 4.3416
v  -9.4331 5.9939 6.3030
v  -8.0222 5.9939 8.0222
v  -6.3030 5.9939 9.4331
v  -4.3416 5.9939 10.4815
v  -2.2133 5.9939 11.1271
v  0.0000 5.9939 11.3451
v  2.2133 5.9939 11.1271
v  4.3416 5.9939 10.4815
v  6.3030 5.9939 9.4331
v  8.0222 5.9939 8.0222
v  9.4331 5.9939 6.3030
v  10.4815 5.9939 4.3416
v  11.1271 5.9939 2.2133
v  11.3451 5.9939 -0.0000
v  11.1271 5.9939 -2.2133
v  10.4815 5.9939 -4.3416
v  9.4331 5.9939 -6.3030
v  8.0222 5.9939 -8.0222
v  6.3030 5.9939 -9.4331
v  4.3415 5.9939 -10.4815
v  2.2133 5.9939 -11.1271
v  -0.0000 3.9263 -9.6482
v  -1.8823 3.9263 -9.4628
v  -3.6922 3.9263 -8.9138
v  -5.3602 3.9263 -8.0222
v  -6.8223 3.9263 -6.8223
v  -8.0222 3.9263 -5.3602
v  -8.9138 3.9263 -3.6922
v  -9.4628 3.9263 -1.8823
v  -9.6482 3.9263 0.0000
v  -9.4628 3.9263 1.8823
v  -8.9138 3.9263 3.6922
v  -8.0222 3.9263 5.3602
v  -6.8223 3.9263 6.8223
v  -5.3602 3.9263 8.0222
v  -3.6922 3.9263 8.9138
v  -1.8823 3.9263 9.4628
v  0.0000 3.9263 9.6482
v  1.8823 3.9263 9.4628
v  3.6922 3.9263 8.9138
v  5.3603 3.9263 8.0222
v  6.8223 3.9263 6.8223
v  8.0222 3.9263 5.3602
v  8.9138 3.9263 3.6922
v  9.4628 3.9263 1.8823
v  9.6482 3.9263 -0.0000
v  9.4628 3.9263 -1.8823
v  8.9138 3.9263 -3.6922
v  8.0222 3.9263 -5.3603
v  6.8223 3.9263 -6.8223
v  5.3602 3.9263 -8.0222
v  3.6922 3.9263 -8.9138
v  1.8822 3.9263 -9.4628
v  -0.0000 2.2294 -7.5805
v  -1.4789 2.2294 -7.4349
v  -2.9009 2.2294 -7.0035
v  -4.2115 2.2294 -6.3030
v  -5.3602 2.2294 -5.3602
v  -6.3030 2.2294 -4.2115
v  -7.0035 2.2294 -2.9009
v  -7.4349 2.2294 -1.4789
v  -7.5805 2.2294 0.0000
v  -7.4349 2.2294 1.4789
v  -7.0035 2.2294 2.9009
v  -6.3030 2.2294 4.2115
v  -5.3602 2.2294 5.3602
v  -4.2115 2.2294 6.3030
v  -2.9009 2.2294 7.0035
v  -1.4789 2.2294 7.4349
v  0.0000 2.2294 7.5805
v  1.4789 2.2294 7.4349
v  2.9009 2.2294 7.0035
v  4.2115 2.2294 6.3030
v  5.3602 2.2294 5.3602
v  6.3030 2.2294 4.2115
v  7.0035 2.2294 2.9009
v  7.4349 2.2294 1.4789
v  7.5805 2.2294 -0.0000
v  7.4349 2.2294 -1.4789
v  7.0035 2.2294 -2.9010
v  6.3030 2.2294 -4.2115
v  5.3602 2.2294 -5.3603
v  4.2115 2.2294 -6.3030
v  2.9009 2.2294 -7.0035
v  1.4789 2.2294 -7.4349
v  -0.0000 0.9685 -5.2216
v  -1.0187 0.9685 -5.1212
v  -1.9982 0.9685 -4.8241
v  -2.9009 0.9685 -4.3416
v  -3.6922 0.9685 -3.6922
v  -4.3416 0.9685 -2.9009
v  -4.8241 0.9685 -1.9982
v  -5.1212 0.9685 -1.0187
v  -5.2216 0.9685 0.0000
v  -5.1212 0.9685 1.0187
v  -4.8241 0.9685 1.9982
v  -4.3416 0.9685 2.9009
v  -3.6922 0.9685 3.6922
v  -2.9009 0.9685 4.3416
v  -1.9982 0.9685 4.8241
v  -1.0187 0.9685 5.1212
v  0.0000 0.9685 5.2216
v  1.0187 0.9685 5.1212
v  1.9982 0.9685 4.8241
v  2.9009 0.9685 4.3416
v  3.6922 0.9685 3.6922
v  4.3416 0.9685 2.9009
v  4.8241 0.9685 1.9982
v  5.1212 0.9685 1.0187
v  5.2216 0.9685 -0.0000
v  5.1212 0.9685 -1.0187
v  4.8241 0.9685 -1.9982
v  4.3416 0.9685 -2.9009
v  3.6922 0.9685 -3.6922
v  2.9009 0.9685 -4.3416
v  1.9982 0.9685 -4.8241
v  1.0187 0.9685 -5.1212
v  -0.0000 0.1567 -1.5871
v  -0.3096 0.1567 -1.5566
v  -0.6073 0.1567 -1.4663
v  -0.8817 0.1567 -1.3196
v  -1.1222 0.1567 -1.1222
v  -1.3196 0.1567 -0.8817
v  -1.4663 0.1567 -0.6073
v  -1.5566 0.1567 -0.3096
v  -1.5871 0.1567 0.0000
v  -1.5566 0.1567 0.3096
v  -1.4663 0.1567 0.6073
v  -1.3196 0.1567 0.8817
v  -1.1222 0.1567 1.1222
v  -0.8817 0.1567 1.3196
v  -0.6073 0.1567 1.4663
v  -0.3096 0.1567 1.5566
v  0.0000 0.1567 1.5871
v  0.3096 0.1567 1.5566
v  0.6073 0.1567 1.4663
v  0.8817 0.1567 1.3196
v  1.1222 0.1567 1.1222
v  1.3196 0.1567 0.8817
v  1.4663 0.1567 0.6073
v  1.5566 0.1567 0.3096
v  1.5871 0.1567 -0.0000
v  1.5566 0.1567 -0.3096
v  1.4663 0.1567 -0.6074
v  1.3196 0.1567 -0.8817
v  1.1222 0.1567 -1.1222
v  0.8817 0.1567 -1.3196
v  0.6073 0.1567 -1.4663
v  0.3096 0.1567 -1.5566
v  -0.0000 0.0004 -0.0000
# 482 vertices

vn -0.0000 1.0000 0.0000
vn -0.0000 0.9796 -0.2010
vn -0.0392 0.9796 -0.1971
vn -0.0769 0.9796 -0.1857
vn -0.1116 0.9796 -0.1671
vn -0.1421 0.9796 -0.1421
vn -0.1671 0.9796 -0.1116
vn -0.1857 0.9796 -0.0769
vn -0.1971 0.9796 -0.0392
vn -0.2010 0.9796 0.0000
vn -0.1971 0.9796 0.0392
vn -0.1857 0.9796 0.0769
vn -0.1671 0.9796 0.1116
vn -0.1421 0.9796 0.1421
vn -0.1116 0.9796 0.1671
vn -0.0769 0.9796 0.1857
vn -0.0392 0.9796 0.1971
vn 0.0000 0.9796 0.2010
vn 0.0392 0.9796 0.1971
vn 0.0769 0.9796 0.1857
vn 0.1116 0.9796 0.1671
vn 0.1421 0.9796 0.1421
vn 0.1671 0.9796 0.1116
vn 0.1857 0.9796 0.0769
vn 0.1971 0.9796 0.0392
vn 0.2010 0.9796 -0.0000
vn 0.1971 0.9796 -0.0392
vn 0.1857 0.9796 -0.0769
vn 0.1671 0.9796 -0.1116
vn 0.1421 0.9796 -0.1421
vn 0.1116 0.9796 -0.1671
vn 0.0769 0.9796 -0.1857
vn 0.0392 0.9796 -0.1971
vn -0.0000 0.9217 -0.3879
vn -0.0757 0.9217 -0.3804
vn -0.1484 0.9217 -0.3583
vn -0.2155 0.9217 -0.3225
vn -0.2743 0.9217 -0.2743
vn -0.3225 0.9217 -0.2155
vn -0.3583 0.9217 -0.1484
vn -0.3804 0.9217 -0.0757
vn -0.3879 0.9217 0.0000
vn -0.3804 0.9217 0.0757
vn -0.3583 0.9217 0.1484
vn -0.3225 0.9217 0.2155
vn -0.2743 0.9217 0.2743
vn -0.2155 0.9217 0.3225
vn -0.1484 0.9217 0.3583
vn -0.0757 0.9217 0.3804
vn 0.0000 0.9217 0.3879
vn 0.0757 0.9217 0.3804
vn 0.1484 0.9217 0.3583
vn 0.2155 0.9217 0.3225
vn 0.2743 0.9217 0.2743
vn 0.3225 0.9217 0.2155
vn 0.3583 0.9217 0.1484
vn 0.3804 0.9217 0.0757
vn 0.3879 0.9217 -0.0000
vn 0.3804 0.9217 -0.0757
vn 0.3583 0.9217 -0.1484
vn 0.3225 0.9217 -0.2155
vn 0.2743 0.9217 -0.2743
vn 0.2155 0.9217 -0.3225
vn 0.1484 0.9217 -0.3583
vn 0.0757 0.9217 -0.3804
vn -0.0000 0.8287 -0.5598
vn -0.1092 0.8286 -0.5490
vn -0.2142 0.8286 -0.5172
vn -0.3110 0.8286 -0.4654
vn -0.3958 0.8286 -0.3958
vn -0.4654 0.8286 -0.3110
vn -0.5172 0.8286 -0.2142
vn -0.5490 0.8286 -0.1092
vn -0.5598 0.8287 0.0000
vn -0.5490 0.8286 0.1092
vn -0.5172 0.8286 0.2142
vn -0.4654 0.8286 0.3110
vn -0.3958 0.8286 0.3958
vn -0.3110 0.8286 0.4654
vn -0.2142 0.8286 0.5172
vn -0.1092 0.8286 0.5490
vn 0.0000 0.8287 0.5598
vn 0.1092 0.8286 0.5490
vn 0.2142 0.8286 0.5172
vn 0.3110 0.8286 0.4654
vn 0.3958 0.8286 0.3958
vn 0.4654 0.8286 0.3110
vn 0.5172 0.8286 0.2142
vn 0.5490 0.8286 0.1092
vn 0.5598 0.8287 -0.0000
vn 0.5490 0.8286 -0.1092
vn 0.5172 0.8286 -0.2142
vn 0.4654 0.8286 -0.3110
vn 0.3958 0.8286 -0.3958
vn 0.3110 0.8286 -0.4654
vn 0.2142 0.8286 -0.5172
vn 0.1092 0.8286 -0.5490
vn -0.0000 0.7041 -0.7101
vn -0.1385 0.7041 -0.6965
vn -0.2717 0.7041 -0.6561
vn -0.3945 0.7041 -0.5904
vn -0.5021 0.7041 -0.5021
vn -0.5904 0.7041 -0.3945
vn -0.6561 0.7041 -0.2717
vn -0.6965 0.7041 -0.1385
vn -0.7101 0.7041 0.0000
vn -0.6965 0.7041 0.1385
vn -0.6561 0.7041 0.2717
vn -0.5904 0.7041 0.3945
vn -0.5021 0.7041 0.5021
vn -0.3945 0.7041 0.5904
vn -0.2717 0.7041 0.6561
vn -0.1385 0.7041 0.6965
vn 0.0000 0.7041 0.7101
vn 0.1385 0.7041 0.6965
vn 0.2717 0.7041 0.6561
vn 0.3945 0.7041 0.5904
vn 0.5021 0.7041 0.5021
vn 0.5904 0.7041 0.3945
vn 0.6561 0.7041 0.2717
vn 0.6965 0.7041 0.1385
vn 0.7101 0.7041 -0.0000
vn 0.6965 0.7041 -0.1385
vn 0.6561 0.7041 -0.2717
vn 0.5904 0.7041 -0.3945
vn 0.5021 0.7041 -0.5021
vn 0.3945 0.7041 -0.5904
vn 0.2717 0.7041 -0.6561
vn 0.1385 0.7041 -0.6965
vn -0.0000 0.5528 -0.8333
vn -0.1626 0.5528 -0.8173
vn -0.3189 0.5528 -0.7699
vn -0.4630 0.5527 -0.6929
vn -0.5893 0.5527 -0.5893
vn -0.6929 0.5527 -0.4630
vn -0.7699 0.5528 -0.3189
vn -0.8173 0.5528 -0.1626
vn -0.8333 0.5528 0.0000
vn -0.8173 0.5528 0.1626
vn -0.7699 0.5528 0.3189
vn -0.6929 0.5527 0.4630
vn -0.5893 0.5527 0.5893
vn -0.4630 0.5527 0.6929
vn -0.3189 0.5528 0.7699
vn -0.1626 0.5528 0.8173
vn 0.0000 0.5528 0.8333
vn 0.1626 0.5528 0.8173
vn 0.3189 0.5528 0.7699
vn 0.4630 0.5527 0.6929
vn 0.5893 0.5527 0.5893
vn 0.6929 0.5527 0.4630
vn 0.7699 0.5528 0.3189
vn 0.8173 0.5528 0.1626
vn 0.8333 0.5528 -0.0000
vn 0.8173 0.5528 -0.1626
vn 0.7699 0.5528 -0.3189
vn 0.6929 0.5527 -0.4630
vn 0.5893 0.5527 -0.5893
vn 0.4630 0.5527 -0.6929
vn 0.3189 0.5528 -0.7699
vn 0.1626 0.5528 -0.8173
vn -0.0000 0.3805 -0.9248
vn -0.1804 0.3805 -0.9070
vn -0.3539 0.3805 -0.8544
vn -0.5138 0.3805 -0.7689
vn -0.6539 0.3805 -0.6539
vn -0.7689 0.3805 -0.5138
vn -0.8544 0.3805 -0.3539
vn -0.9070 0.3805 -0.1804
vn -0.9248 0.3805 0.0000
vn -0.9070 0.3805 0.1804
vn -0.8544 0.3805 0.3539
vn -0.7689 0.3805 0.5138
vn -0.6539 0.3805 0.6539
vn -0.5138 0.3805 0.7689
vn -0.3539 0.3805 0.8544
vn -0.1804 0.3805 0.9070
vn 0.0000 0.3805 0.9248
vn 0.1804 0.3805 0.9070
vn 0.3539 0.3805 0.8544
vn 0.5138 0.3805 0.7689
vn 0.6539 0.3805 0.6539
vn 0.7689 0.3805 0.5138
vn 0.8544 0.3805 0.3539
vn 0.9070 0.3805 0.1804
vn 0.9248 0.3805 -0.0000
vn 0.9070 0.3805 -0.1804
vn 0.8544 0.3805 -0.3539
vn 0.7689 0.3805 -0.5138
vn 0.6539 0.3805 -0.6539
vn 0.5138 0.3805 -0.7689
vn 0.3539 0.3805 -0.8544
vn 0.1804 0.3805 -0.9070
vn -0.0000 0.1939 -0.9810
vn -0.1914 0.1939 -0.9622
vn -0.3754 0.1939 -0.9063
vn -0.5450 0.1939 -0.8157
vn -0.6937 0.1939 -0.6937
vn -0.8157 0.1939 -0.5450
vn -0.9063 0.1939 -0.3754
vn -0.9622 0.1939 -0.1914
vn -0.9810 0.1939 0.0000
vn -0.9622 0.1939 0.1914
vn -0.9063 0.1939 0.3754
vn -0.8157 0.1939 0.5450
vn -0.6937 0.1939 0.6937
vn -0.5450 0.1939 0.8157
vn -0.3754 0.1939 0.9063
vn -0.1914 0.1939 0.9622
vn 0.0000 0.1939 0.9810
vn 0.1914 0.1939 0.9622
vn 0.3754 0.1939 0.9063
vn 0.5450 0.1939 0.8157
vn 0.6937 0.1939 0.6937
vn 0.8157 0.1939 0.5450
vn 0.9063 0.1939 0.3754
vn 0.9622 0.1939 0.1914
vn 0.9810 0.1939 -0.0000
vn 0.9622 0.1939 -0.1914
vn 0.9063 0.1939 -0.3754
vn 0.8157 0.1939 -0.5450
vn 0.6937 0.1939 -0.6937
vn 0.5450 0.1939 -0.8157
vn 0.3754 0.1939 -0.9063
vn 0.1914 0.1939 -0.9622
vn -0.0000 0.0000 -1.0000
vn -0.1951 0.0000 -0.9808
vn -0.3827 0.0000 -0.9239
vn -0.5555 0.0000 -0.8315
vn -0.7071 0.0000 -0.7071
vn -0.8315 0.0000 -0.5555
vn -0.9239 0.0000 -0.3827
vn -0.9808 0.0000 -0.1951
vn -1.0000 0.0000 0.0000
vn -0.9808 0.0000 0.1951
vn -0.9239 0.0000 0.3827
vn -0.8315 0.0000 0.5555
vn -0.7071 0.0000 0.7071
vn -0.5555 0.0000 0.8315
vn -0.3827 0.0000 0.9239
vn -0.1951 0.0000 0.9808
vn 0.0000 0.0000 1.0000
vn 0.1951 0.0000 0.9808
vn 0.3827 0.0000 0.9239
vn 0.5555 0.0000 0.8315
vn 0.7071 0.0000 0.7071
vn 0.8315 0.0000 0.5555
vn 0.9239 0.0000 0.3827
vn 0.9808 0.0000 0.1951
vn 1.0000 0.0000 -0.0000
vn 0.9808 0.0000 -0.1951
vn 0.9239 0.0000 -0.3827
vn 0.8315 0.0000 -0.5555
vn 0.7071 0.0000 -0.7071
vn 0.5555 0.0000 -0.8315
vn 0.3827 0.0000 -0.9239
vn 0.1951 0.0000 -0.9808
vn -0.0000 -0.1939 -0.9810
vn -0.1914 -0.1939 -0.9622
vn -0.3754 -0.1939 -0.9063
vn -0.5450 -0.1939 -0.8157
vn -0.6937 -0.1939 -0.6937
vn -0.8157 -0.1939 -0.5450
vn -0.9063 -0.1939 -0.3754
vn -0.9622 -0.1939 -0.1914
vn -0.9810 -0.1939 0.0000
vn -0.9622 -0.1939 0.1914
vn -0.9063 -0.1939 0.3754
vn -0.8157 -0.1939 0.5450
vn -0.6937 -0.1939 0.6937
vn -0.5450 -0.1939 0.8157
vn -0.3754 -0.1939 0.9063
vn -0.1914 -0.1939 0.9622
vn 0.0000 -0.1939 0.9810
vn 0.1914 -0.1939 0.9622
vn 0.3754 -0.1939 0.9063
vn 0.5450 -0.1939 0.8157
vn 0.6937 -0.1939 0.6937
vn 0.8157 -0.1939 0.5450
vn 0.9063 -0.1939 0.3754
vn 0.9622 -0.1939 0.1914
vn 0.9810 -0.1939 -0.0000
vn 0.9622 -0.1939 -0.1914
vn 0.9063 -0.1939 -0.3754
vn 0.8157 -0.1939 -0.5450
vn 0.6937 -0.1939 -0.6937
vn 0.5450 -0.1939 -0.8157
vn 0.3754 -0.1939 -0.9063
vn 0.1914 -0.1939 -0.9622
vn -0.0000 -0.3805 -0.9248
vn -0.1804 -0.3805 -0.9070
vn -0.3539 -0.3805 -0.8544
vn -0.5138 -0.3805 -0.7689
vn -0.6539 -0.3805 -0.6539
vn -0.7689 -0.3805 -0.5138
vn -0.8544 -0.3805 -0.3539
vn -0.9070 -0.3805 -0.1804
vn -0.9248 -0.3805 0.0000
vn -0.9070 -0.3805 0.1804
vn -0.8544 -0.3805 0.3539
vn -0.7689 -0.3805 0.5138
vn -0.6539 -0.3805 0.6539
vn -0.5138 -0.3805 0.7689
vn -0.3539 -0.3805 0.8544
vn -0.1804 -0.3805 0.9070
vn 0.0000 -0.3805 0.9248
vn 0.1804 -0.3805 0.9070
vn 0.3539 -0.3805 0.8544
vn 0.5138 -0.3805 0.7689
vn 0.6539 -0.3805 0.6539
vn 0.7689 -0.3805 0.5138
vn 0.8544 -0.3805 0.3539
vn 0.9070 -0.3805 0.1804
vn 0.9248 -0.3805 -0.0000
vn 0.9070 -0.3805 -0.1804
vn 0.8544 -0.3805 -0.3539
vn 0.7689 -0.3805 -0.5138
vn 0.6539 -0.3805 -0.6539
vn 0.5138 -0.3805 -0.7689
vn 0.3539 -0.3805 -0.8544
vn 0.1804 -0.3805 -0.9070
vn -0.0000 -0.5528 -0.8333
vn -0.1626 -0.5528 -0.8173
vn -0.3189 -0.5528 -0.7699
vn -0.4630 -0.5527 -0.6929
vn -0.5893 -0.5527 -0.5893
vn -0.6929 -0.5527 -0.4630
vn -0.7699 -0.5528 -0.3189
vn -0.8173 -0.5528 -0.1626
vn -0.8333 -0.5528 0.0000
vn -0.8173 -0.5528 0.1626
vn -0.7699 -0.5528 0.3189
vn -0.6929 -0.5527 0.4630
vn -0.5893 -0.5527 0.5893
vn -0.4630 -0.5527 0.6929
vn -0.3189 -0.5528 0.7699
vn -0.1626 -0.5528 0.8173
vn 0.0000 -0.5528 0.8333
vn 0.1626 -0.5528 0.8173
vn 0.3189 -0.5528 0.7699
vn 0.4630 -0.5527 0.6929
vn 0.5893 -0.5527 0.5893
vn 0.6929 -0.5527 0.4630
vn 0.7699 -0.5528 0.3189
vn 0.8173 -0.5528 0.1626
vn 0.8333 -0.5528 -0.0000
vn 0.8173 -0.5528 -0.1626
vn 0.7699 -0.5528 -0.3189
vn 0.6929 -0.5527 -0.4630
vn 0.5893 -0.5527 -0.5893
vn 0.4630 -0.5527 -0.6929
vn 0.3189 -0.5528 -0.7699
vn 0.1626 -0.5528 -0.8173
vn -0.0000 -0.7041 -0.7101
vn -0.1385 -0.7041 -0.6965
vn -0.2717 -0.7041 -0.6561
vn -0.3945 -0.7041 -0.5904
vn -0.5021 -0.7041 -0.5021
vn -0.5904 -0.7041 -0.3945
vn -0.6561 -0.7041 -0.2717
vn -0.6965 -0.7041 -0.1385
vn -0.7101 -0.7041 0.0000
vn -0.6965 -0.7041 0.1385
vn -0.6561 -0.7041 0.2717
vn -0.5904 -0.7041 0.3945
vn -0.5021 -0.7041 0.5021
vn -0.3945 -0.7041 0.5904
vn -0.2717 -0.7041 0.6561
vn -0.1385 -0.7041 0.6965
vn 0.0000 -0.7041 0.7101
vn 0.1385 -0.7041 0.6965
vn 0.2717 -0.7041 0.6561
vn 0.3945 -0.7041 0.5904
vn 0.5021 -0.7041 0.5021
vn 0.5904 -0.7041 0.3945
vn 0.6561 -0.7041 0.2717
vn 0.6965 -0.7041 0.1385
vn 0.7101 -0.7041 -0.0000
vn 0.6965 -0.7041 -0.1385
vn 0.6561 -0.7041 -0.2717
vn 0.5904 -0.7041 -0.3945
vn 0.5021 -0.7041 -0.5021
vn 0.3945 -0.7041 -0.5904
vn 0.2717 -0.7041 -0.6561
vn 0.1385 -0.7041 -0.6965
vn -0.0000 -0.8287 -0.5598
vn -0.1092 -0.8286 -0.5490
vn -0.2142 -0.8286 -0.5172
vn -0.3110 -0.8286 -0.4654
vn -0.3958 -0.8286 -0.3958
vn -0.4654 -0.8286 -0.3110
vn -0.5172 -0.8286 -0.2142
vn -0.5490 -0.8286 -0.1092
vn -0.5598 -0.8287 0.0000
vn -0.5490 -0.8286 0.1092
vn -0.5172 -0.8286 0.2142
vn -0.4654 -0.8286 0.3110
vn -0.3958 -0.8286 0.3958
vn -0.3110 -0.8286 0.4654
vn -0.2142 -0.8286 0.5172
vn -0.1092 -0.8286 0.5490
vn 0.0000 -0.8287 0.5598
vn 0.1092 -0.8286 0.5490
vn 0.2142 -0.8286 0.5172
vn 0.3110 -0.8286 0.4654
vn 0.3958 -0.8286 0.3958
vn 0.4654 -0.8286 0.3110
vn 0.5172 -0.8286 0.2142
vn 0.5490 -0.8286 0.1092
vn 0.5598 -0.8287 -0.0000
vn 0.5490 -0.8286 -0.1092
vn 0.5172 -0.8286 -0.2142
vn 0.4654 -0.8286 -0.3110
vn 0.3958 -0.8286 -0.3958
vn 0.3110 -0.8286 -0.4654
vn 0.2142 -0.8286 -0.5172
vn 0.1092 -0.8286 -0.5490
vn -0.0000 -0.9348 -0.3552
vn -0.0693 -0.9348 -0.3484
vn -0.1359 -0.9348 -0.3282
vn -0.1974 -0.9348 -0.2954
vn -0.2512 -0.9348 -0.2512
vn -0.2954 -0.9348 -0.1974
vn -0.3282 -0.9348 -0.1359
vn -0.3484 -0.9348 -0.0693
vn -0.3552 -0.9348 0.0000
vn -0.3484 -0.9348 0.0693
vn -0.3282 -0.9348 0.1359
vn -0.2954 -0.9348 0.1974
vn -0.2512 -0.9348 0.2512
vn -0.1974 -0.9348 0.2954
vn -0.1359 -0.9348 0.3282
vn -0.0693 -0.9348 0.3484
vn 0.0000 -0.9348 0.3552
vn 0.0693 -0.9348 0.3484
vn 0.1359 -0.9348 0.3282
vn 0.1974 -0.9348 0.2954
vn 0.2512 -0.9348 0.2512
vn 0.2954 -0.9348 0.1974
vn 0.3282 -0.9348 0.1359
vn 0.3484 -0.9348 0.0693
vn 0.3552 -0.9348 -0.0000
vn 0.3484 -0.9348 -0.0693
vn 0.3282 -0.9348 -0.1359
vn 0.2954 -0.9348 -0.1974
vn 0.2512 -0.9348 -0.2512
vn 0.1974 -0.9348 -0.2954
vn 0.1359 -0.9348 -0.3282
vn 0.0693 -0.9348 -0.3484
vn -0.0000 -0.9868 -0.1620
vn -0.0316 -0.9868 -0.1589
vn -0.0620 -0.9868 -0.1497
vn -0.0900 -0.9868 -0.1347
vn -0.1145 -0.9868 -0.1145
vn -0.1347 -0.9868 -0.0900
vn -0.1497 -0.9868 -0.0620
vn -0.1589 -0.9868 -0.0316
vn -0.1620 -0.9868 0.0000
vn -0.1589 -0.9868 0.0316
vn -0.1497 -0.9868 0.0620
vn -0.1347 -0.9868 0.0900
vn -0.1145 -0.9868 0.1145
vn -0.0900 -0.9868 0.1347
vn -0.0620 -0.9868 0.1497
vn -0.0316 -0.9868 0.1589
vn 0.0000 -0.9868 0.1620
vn 0.0316 -0.9868 0.1589
vn 0.0620 -0.9868 0.1497
vn 0.0900 -0.9868 0.1347
vn 0.1145 -0.9868 0.1145
vn 0.1347 -0.9868 0.0900
vn 0.1497 -0.9868 0.0620
vn 0.1589 -0.9868 0.0316
vn 0.1620 -0.9868 -0.0000
vn 0.1589 -0.9868 -0.0316
vn 0.1497 -0.9868 -0.0620
vn 0.1347 -0.9868 -0.0900
vn 0.1145 -0.9868 -0.1145
vn 0.0900 -0.9868 -0.1347
vn 0.0620 -0.9868 -0.1497
vn 0.0316 -0.9868 -0.1589
vn -0.0000 -1.0000 0.0000
# 482 vertex normals

vt 0.7980 0.7024 0.0000
vt 0.7980 0.8899 0.0000
vt 0.7614 0.8863 0.0000
vt 0.7262 0.8757 0.0000
vt 0.6937 0.8583 0.0000
vt 0.6653 0.8350 0.0000
vt 0.6420 0.8066 0.0000
vt 0.6247 0.7742 0.0000
vt 0.6140 0.7390 0.0000
vt 0.6104 0.7024 0.0000
vt 0.6140 0.6658 0.0000
vt 0.6247 0.6306 0.0000
vt 0.6420 0.5982 0.0000
vt 0.6653 0.5697 0.0000
vt 0.6937 0.5464 0.0000
vt 0.7262 0.5291 0.0000
vt 0.7614 0.5184 0.0000
vt 0.7980 0.5148 0.0000
vt 0.8345 0.5184 0.0000
vt 0.8697 0.5291 0.0000
vt 0.9022 0.5464 0.0000
vt 0.9306 0.5697 0.0000
vt 0.9539 0.5982 0.0000
vt 0.9713 0.6306 0.0000
vt 0.9819 0.6658 0.0000
vt 0.9855 0.7024 0.0000
vt 0.9819 0.7390 0.0000
vt 0.9713 0.7742 0.0000
vt 0.9539 0.8066 0.0000
vt 0.9306 0.8350 0.0000
vt 0.9022 0.8583 0.0000
vt 0.8697 0.8757 0.0000
vt 0.8345 0.8863 0.0000
vt 0.1084 0.6920 0.0000
vt 0.1431 0.6944 0.0000
vt 0.1411 0.7076 0.0000
vt 0.1073 0.6988 0.0000
vt 0.1369 0.7203 0.0000
vt 0.1051 0.7052 0.0000
vt 0.8727 0.2339 0.0000
vt 0.8413 0.2502 0.0000
vt 0.8366 0.2376 0.0000
vt 0.8702 0.2275 0.0000
vt 0.8342 0.2244 0.0000
vt 0.8689 0.2207 0.0000
vt 0.8341 0.2109 0.0000
vt 0.8688 0.2138 0.0000
vt 0.8363 0.1977 0.0000
vt 0.8700 0.2070 0.0000
vt 0.8407 0.1850 0.0000
vt 0.8723 0.2006 0.0000
vt 0.5121 0.3424 0.0000
vt 0.4820 0.3620 0.0000
vt 0.4763 0.3498 0.0000
vt 0.5090 0.3363 0.0000
vt 0.4728 0.3367 0.0000
vt 0.5070 0.3296 0.0000
vt 0.4716 0.3232 0.0000
vt 0.5063 0.3227 0.0000
vt 0.4725 0.3097 0.0000
vt 0.5068 0.3157 0.0000
vt 0.4756 0.2966 0.0000
vt 0.5085 0.3090 0.0000
vt 0.4810 0.2843 0.0000
vt 0.5114 0.3027 0.0000
vt 0.5133 0.5268 0.0000
vt 0.4822 0.5436 0.0000
vt 0.4773 0.5311 0.0000
vt 0.5107 0.5205 0.0000
vt 0.4747 0.5179 0.0000
vt 0.5093 0.5137 0.0000
vt 0.4744 0.5045 0.0000
vt 0.5091 0.5068 0.0000
vt 0.4763 0.4912 0.0000
vt 0.5102 0.5000 0.0000
vt 0.4805 0.4785 0.0000
vt 0.5124 0.4936 0.0000
vt 0.4023 0.4065 0.0000
vt 0.4337 0.3901 0.0000
vt 0.4384 0.4027 0.0000
vt 0.4048 0.4128 0.0000
vt 0.4408 0.4160 0.0000
vt 0.4061 0.4196 0.0000
vt 0.4409 0.4294 0.0000
vt 0.4062 0.4265 0.0000
vt 0.4387 0.4427 0.0000
vt 0.4051 0.4333 0.0000
vt 0.4343 0.4553 0.0000
vt 0.4027 0.4397 0.0000
vt 0.0151 0.0974 0.0000
vt 0.0452 0.0779 0.0000
vt 0.0509 0.0901 0.0000
vt 0.0182 0.1036 0.0000
vt 0.0544 0.1031 0.0000
vt 0.0202 0.1103 0.0000
vt 0.0556 0.1166 0.0000
vt 0.0209 0.1172 0.0000
vt 0.0547 0.1302 0.0000
vt 0.0204 0.1242 0.0000
vt 0.0516 0.1433 0.0000
vt 0.0187 0.1309 0.0000
vt 0.0462 0.1555 0.0000
vt 0.0158 0.1371 0.0000
vt 0.1041 0.6720 0.0000
vt 0.1353 0.6552 0.0000
vt 0.1402 0.6677 0.0000
vt 0.1067 0.6783 0.0000
vt 0.1427 0.6809 0.0000
vt 0.1082 0.6851 0.0000
vt 0.1775 0.6966 0.0000
vt 0.1751 0.7159 0.0000
vt 0.1697 0.7345 0.0000
vt 0.8086 0.2655 0.0000
vt 0.8027 0.2469 0.0000
vt 0.7998 0.2277 0.0000
vt 0.7997 0.2081 0.0000
vt 0.8025 0.1889 0.0000
vt 0.8081 0.1703 0.0000
vt 0.4503 0.3803 0.0000
vt 0.4430 0.3622 0.0000
vt 0.4387 0.3432 0.0000
vt 0.4372 0.3236 0.0000
vt 0.4384 0.3041 0.0000
vt 0.4424 0.2850 0.0000
vt 0.4493 0.2669 0.0000
vt 0.4498 0.5595 0.0000
vt 0.4436 0.5410 0.0000
vt 0.4403 0.5218 0.0000
vt 0.4399 0.5022 0.0000
vt 0.4424 0.4829 0.0000
vt 0.4478 0.4643 0.0000
vt 0.4664 0.3748 0.0000
vt 0.4723 0.3934 0.0000
vt 0.4752 0.4127 0.0000
vt 0.4753 0.4322 0.0000
vt 0.4726 0.4515 0.0000
vt 0.4669 0.4700 0.0000
vt 0.0770 0.0595 0.0000
vt 0.0842 0.0776 0.0000
vt 0.0885 0.0967 0.0000
vt 0.0900 0.1163 0.0000
vt 0.0888 0.1358 0.0000
vt 0.0848 0.1549 0.0000
vt 0.0779 0.1730 0.0000
vt 0.1677 0.6394 0.0000
vt 0.1739 0.6578 0.0000
vt 0.1771 0.6771 0.0000
vt 0.2118 0.6985 0.0000
vt 0.2093 0.7231 0.0000
vt 0.2036 0.7471 0.0000
vt 0.7747 0.2789 0.0000
vt 0.7685 0.2550 0.0000
vt 0.7655 0.2304 0.0000
vt 0.7655 0.2056 0.0000
vt 0.7684 0.1811 0.0000
vt 0.7745 0.1572 0.0000
vt 0.4166 0.3965 0.0000
vt 0.4091 0.3729 0.0000
vt 0.4047 0.3485 0.0000
vt 0.4032 0.3238 0.0000
vt 0.4045 0.2991 0.0000
vt 0.4087 0.2748 0.0000
vt 0.4160 0.2513 0.0000
vt 0.4161 0.5734 0.0000
vt 0.4095 0.5496 0.0000
vt 0.4061 0.5250 0.0000
vt 0.4057 0.5003 0.0000
vt 0.4082 0.4757 0.0000
vt 0.4139 0.4518 0.0000
vt 0.5003 0.3614 0.0000
vt 0.5065 0.3854 0.0000
vt 0.5095 0.4100 0.0000
vt 0.5095 0.4347 0.0000
vt 0.5066 0.4592 0.0000
vt 0.5005 0.4831 0.0000
vt 0.1106 0.0434 0.0000
vt 0.1181 0.0669 0.0000
vt 0.1225 0.0913 0.0000
vt 0.1240 0.1161 0.0000
vt 0.1227 0.1408 0.0000
vt 0.1185 0.1651 0.0000
vt 0.1112 0.1886 0.0000
vt 0.2014 0.6254 0.0000
vt 0.2080 0.6493 0.0000
vt 0.2113 0.6738 0.0000
vt 0.2459 0.7001 0.0000
vt 0.2437 0.7289 0.0000
vt 0.2386 0.7574 0.0000
vt 0.7395 0.2898 0.0000
vt 0.7340 0.2613 0.0000
vt 0.7314 0.2325 0.0000
vt 0.7315 0.2035 0.0000
vt 0.7341 0.1747 0.0000
vt 0.7397 0.1464 0.0000
vt 0.3812 0.4097 0.0000
vt 0.3746 0.3814 0.0000
vt 0.3708 0.3527 0.0000
vt 0.3695 0.3239 0.0000
vt 0.3707 0.2950 0.0000
vt 0.3744 0.2664 0.0000
vt 0.3811 0.2383 0.0000
vt 0.3811 0.5849 0.0000
vt 0.3751 0.5565 0.0000
vt 0.3721 0.5277 0.0000
vt 0.3716 0.4987 0.0000
vt 0.3738 0.4699 0.0000
vt 0.3789 0.4414 0.0000
vt 0.5355 0.3505 0.0000
vt 0.5410 0.3790 0.0000
vt 0.5436 0.4079 0.0000
vt 0.5436 0.4368 0.0000
vt 0.5409 0.4656 0.0000
vt 0.5353 0.4940 0.0000
vt 0.1460 0.0302 0.0000
vt 0.1526 0.0584 0.0000
vt 0.1564 0.0871 0.0000
vt 0.1577 0.1160 0.0000
vt 0.1565 0.1449 0.0000
vt 0.1528 0.1735 0.0000
vt 0.1461 0.2015 0.0000
vt 0.2364 0.6139 0.0000
vt 0.2423 0.6423 0.0000
vt 0.2454 0.6711 0.0000
vt 0.2798 0.7012 0.0000
vt 0.2783 0.7332 0.0000
vt 0.2745 0.7650 0.0000
vt 0.7033 0.2979 0.0000
vt 0.6993 0.2659 0.0000
vt 0.6975 0.2339 0.0000
vt 0.6975 0.2019 0.0000
vt 0.6996 0.1699 0.0000
vt 0.7039 0.1381 0.0000
vt 0.3445 0.4193 0.0000
vt 0.3396 0.3875 0.0000
vt 0.3369 0.3557 0.0000
vt 0.3360 0.3238 0.0000
vt 0.3369 0.2920 0.0000
vt 0.3397 0.2602 0.0000
vt 0.3448 0.2286 0.0000
vt 0.3450 0.5935 0.0000
vt 0.3405 0.5616 0.0000
vt 0.3381 0.5297 0.0000
vt 0.3377 0.4976 0.0000
vt 0.3392 0.4657 0.0000
vt 0.3430 0.4338 0.0000
vt 0.5717 0.3425 0.0000
vt 0.5757 0.3744 0.0000
vt 0.5776 0.4064 0.0000
vt 0.5775 0.4385 0.0000
vt 0.5754 0.4704 0.0000
vt 0.5712 0.5022 0.0000
vt 0.1827 0.0206 0.0000
vt 0.1876 0.0523 0.0000
vt 0.1903 0.0842 0.0000
vt 0.1912 0.1161 0.0000
vt 0.1903 0.1479 0.0000
vt 0.1875 0.1797 0.0000
vt 0.1824 0.2113 0.0000
vt 0.2725 0.6053 0.0000
vt 0.2770 0.6372 0.0000
vt 0.2794 0.6692 0.0000
vt 0.3136 0.7017 0.0000
vt 0.3130 0.7356 0.0000
vt 0.3111 0.7696 0.0000
vt 0.6665 0.3027 0.0000
vt 0.6645 0.2686 0.0000
vt 0.6636 0.2347 0.0000
vt 0.6637 0.2008 0.0000
vt 0.6649 0.1669 0.0000
vt 0.6673 0.1329 0.0000
vt 0.3069 0.4251 0.0000
vt 0.3044 0.3912 0.0000
vt 0.3030 0.3574 0.0000
vt 0.3026 0.3237 0.0000
vt 0.3031 0.2900 0.0000
vt 0.3047 0.2563 0.0000
vt 0.3076 0.2224 0.0000
vt 0.3083 0.5989 0.0000
vt 0.3057 0.5649 0.0000
vt 0.3043 0.5310 0.0000
vt 0.3038 0.4971 0.0000
vt 0.3045 0.4632 0.0000
vt 0.3063 0.4292 0.0000
vt 0.6085 0.3377 0.0000
vt 0.6105 0.3717 0.0000
vt 0.6114 0.4057 0.0000
vt 0.6113 0.4395 0.0000
vt 0.6102 0.4734 0.0000
vt 0.6077 0.5074 0.0000
vt 0.2203 0.0148 0.0000
vt 0.2228 0.0487 0.0000
vt 0.2242 0.0825 0.0000
vt 0.2246 0.1162 0.0000
vt 0.2241 0.1499 0.0000
vt 0.2225 0.1836 0.0000
vt 0.2196 0.2174 0.0000
vt 0.3092 0.5999 0.0000
vt 0.3118 0.6339 0.0000
vt 0.3132 0.6678 0.0000
vt 0.3475 0.7017 0.0000
vt 0.3479 0.7362 0.0000
vt 0.3482 0.7710 0.0000
vt 0.6294 0.3041 0.0000
vt 0.6296 0.2694 0.0000
vt 0.6298 0.2348 0.0000
vt 0.6299 0.2003 0.0000
vt 0.6300 0.1657 0.0000
vt 0.6303 0.1310 0.0000
vt 0.2689 0.4269 0.0000
vt 0.2691 0.3922 0.0000
vt 0.2692 0.3578 0.0000
vt 0.2693 0.3235 0.0000
vt 0.2693 0.2892 0.0000
vt 0.2694 0.2548 0.0000
vt 0.2697 0.2202 0.0000
vt 0.2712 0.6009 0.0000
vt 0.2708 0.5662 0.0000
vt 0.2704 0.5317 0.0000
vt 0.2700 0.4971 0.0000
vt 0.2696 0.4626 0.0000
vt 0.2693 0.4279 0.0000
vt 0.6457 0.3362 0.0000
vt 0.6454 0.3710 0.0000
vt 0.6453 0.4055 0.0000
vt 0.6451 0.4400 0.0000
vt 0.6450 0.4746 0.0000
vt 0.6448 0.5093 0.0000
vt 0.2583 0.0130 0.0000
vt 0.2581 0.0476 0.0000
vt 0.2580 0.0820 0.0000
vt 0.2579 0.1163 0.0000
vt 0.2579 0.1506 0.0000
vt 0.2578 0.1850 0.0000
vt 0.2575 0.2197 0.0000
vt 0.3463 0.5979 0.0000
vt 0.3466 0.6326 0.0000
vt 0.3470 0.6672 0.0000
vt 0.3813 0.7010 0.0000
vt 0.3827 0.7349 0.0000
vt 0.3853 0.7689 0.0000
vt 0.5923 0.3022 0.0000
vt 0.5948 0.2682 0.0000
vt 0.5959 0.2343 0.0000
vt 0.5961 0.2004 0.0000
vt 0.5951 0.1665 0.0000
vt 0.5931 0.1325 0.0000
vt 0.2310 0.4246 0.0000
vt 0.2338 0.3908 0.0000
vt 0.2354 0.3571 0.0000
vt 0.2360 0.3234 0.0000
vt 0.2355 0.2897 0.0000
vt 0.2341 0.2559 0.0000
vt 0.2317 0.2220 0.0000
vt 0.2341 0.5996 0.0000
vt 0.2360 0.5656 0.0000
vt 0.2366 0.5317 0.0000
vt 0.2362 0.4978 0.0000
vt 0.2347 0.4639 0.0000
vt 0.2322 0.4299 0.0000
vt 0.6827 0.3382 0.0000
vt 0.6803 0.3721 0.0000
vt 0.6791 0.4060 0.0000
vt 0.6790 0.4399 0.0000
vt 0.6799 0.4739 0.0000
vt 0.6819 0.5079 0.0000
vt 0.2962 0.0152 0.0000
vt 0.2934 0.0491 0.0000
vt 0.2918 0.0828 0.0000
vt 0.2912 0.1165 0.0000
vt 0.2917 0.1502 0.0000
vt 0.2931 0.1840 0.0000
vt 0.2955 0.2179 0.0000
vt 0.3834 0.5992 0.0000
vt 0.3815 0.6332 0.0000
vt 0.3809 0.6671 0.0000
vt 0.4152 0.6997 0.0000
vt 0.4175 0.7317 0.0000
vt 0.4221 0.7635 0.0000
vt 0.5557 0.2970 0.0000
vt 0.5600 0.2652 0.0000
vt 0.5621 0.2332 0.0000
vt 0.5622 0.2012 0.0000
vt 0.5603 0.1692 0.0000
vt 0.5563 0.1372 0.0000
vt 0.1937 0.4185 0.0000
vt 0.1988 0.3869 0.0000
vt 0.2017 0.3551 0.0000
vt 0.2026 0.3233 0.0000
vt 0.2017 0.2914 0.0000
vt 0.1989 0.2595 0.0000
vt 0.1940 0.2277 0.0000
vt 0.1974 0.5950 0.0000
vt 0.2012 0.5631 0.0000
vt 0.2028 0.5312 0.0000
vt 0.2023 0.4991 0.0000
vt 0.1999 0.4672 0.0000
vt 0.1954 0.4353 0.0000
vt 0.7193 0.3434 0.0000
vt 0.7150 0.3752 0.0000
vt 0.7129 0.4071 0.0000
vt 0.7128 0.4391 0.0000
vt 0.7147 0.4712 0.0000
vt 0.7187 0.5031 0.0000
vt 0.3335 0.0214 0.0000
vt 0.3284 0.0530 0.0000
vt 0.3255 0.0848 0.0000
vt 0.3246 0.1166 0.0000
vt 0.3255 0.1485 0.0000
vt 0.3283 0.1804 0.0000
vt 0.3332 0.2121 0.0000
vt 0.4200 0.6038 0.0000
vt 0.4163 0.6357 0.0000
vt 0.4147 0.6677 0.0000
vt 0.4491 0.6977 0.0000
vt 0.4522 0.7265 0.0000
vt 0.4581 0.7549 0.0000
vt 0.5199 0.2888 0.0000
vt 0.5255 0.2604 0.0000
vt 0.5282 0.2316 0.0000
vt 0.5282 0.2026 0.0000
vt 0.5256 0.1738 0.0000
vt 0.5201 0.1453 0.0000
vt 0.1574 0.4087 0.0000
vt 0.1641 0.3807 0.0000
vt 0.1679 0.3521 0.0000
vt 0.1691 0.3232 0.0000
vt 0.1678 0.2943 0.0000
vt 0.1640 0.2656 0.0000
vt 0.1573 0.2374 0.0000
vt 0.1615 0.5874 0.0000
vt 0.1666 0.5589 0.0000
vt 0.1688 0.5301 0.0000
vt 0.1684 0.5011 0.0000
vt 0.1653 0.4723 0.0000
vt 0.1594 0.4439 0.0000
vt 0.7551 0.3516 0.0000
vt 0.7495 0.3800 0.0000
vt 0.7468 0.4088 0.0000
vt 0.7468 0.4377 0.0000
vt 0.7494 0.4666 0.0000
vt 0.7549 0.4951 0.0000
vt 0.3698 0.0311 0.0000
vt 0.3631 0.0592 0.0000
vt 0.3593 0.0878 0.0000
vt 0.3581 0.1167 0.0000
vt 0.3594 0.1456 0.0000
vt 0.3632 0.1742 0.0000
vt 0.3699 0.2025 0.0000
vt 0.4560 0.6115 0.0000
vt 0.4509 0.6399 0.0000
vt 0.4487 0.6687 0.0000
vt 0.4831 0.6951 0.0000
vt 0.4865 0.7196 0.0000
vt 0.4931 0.7434 0.0000
vt 0.4851 0.2779 0.0000
vt 0.4912 0.2540 0.0000
vt 0.4941 0.2295 0.0000
vt 0.4941 0.2047 0.0000
vt 0.4911 0.1801 0.0000
vt 0.4849 0.1562 0.0000
vt 0.1225 0.3958 0.0000
vt 0.1299 0.3723 0.0000
vt 0.1341 0.3480 0.0000
vt 0.1354 0.3232 0.0000
vt 0.1339 0.2985 0.0000
vt 0.1295 0.2741 0.0000
vt 0.1220 0.2506 0.0000
vt 0.1265 0.5770 0.0000
vt 0.1322 0.5531 0.0000
vt 0.1348 0.5285 0.0000
vt 0.1343 0.5038 0.0000
vt 0.1309 0.4792 0.0000
vt 0.1244 0.4554 0.0000
vt 0.7899 0.3625 0.0000
vt 0.7838 0.3863 0.0000
vt 0.7809 0.4109 0.0000
vt 0.7809 0.4356 0.0000
vt 0.7839 0.4602 0.0000
vt 0.7901 0.4842 0.0000
vt 0.4047 0.0441 0.0000
vt 0.3973 0.0676 0.0000
vt 0.3932 0.0919 0.0000
vt 0.3918 0.1166 0.0000
vt 0.3933 0.1414 0.0000
vt 0.3977 0.1658 0.0000
vt 0.4052 0.1893 0.0000
vt 0.4910 0.6218 0.0000
vt 0.4853 0.6457 0.0000
vt 0.4827 0.6703 0.0000
vt 0.5173 0.6918 0.0000
vt 0.5206 0.7110 0.0000
vt 0.5268 0.7295 0.0000
vt 0.4514 0.2647 0.0000
vt 0.4572 0.2462 0.0000
vt 0.4599 0.2270 0.0000
vt 0.4599 0.2074 0.0000
vt 0.4569 0.1881 0.0000
vt 0.4510 0.1696 0.0000
vt 0.0892 0.3801 0.0000
vt 0.0961 0.3620 0.0000
vt 0.1002 0.3430 0.0000
vt 0.1014 0.3234 0.0000
vt 0.0999 0.3039 0.0000
vt 0.0956 0.2848 0.0000
vt 0.0883 0.2667 0.0000
vt 0.0926 0.5645 0.0000
vt 0.0981 0.5459 0.0000
vt 0.1005 0.5265 0.0000
vt 0.1001 0.5070 0.0000
vt 0.0969 0.4878 0.0000
vt 0.0906 0.4693 0.0000
vt 0.8236 0.3756 0.0000
vt 0.8179 0.3941 0.0000
vt 0.8151 0.4134 0.0000
vt 0.8152 0.4329 0.0000
vt 0.8181 0.4522 0.0000
vt 0.8241 0.4707 0.0000
vt 0.4380 0.0597 0.0000
vt 0.4311 0.0778 0.0000
vt 0.4271 0.0969 0.0000
vt 0.4258 0.1165 0.0000
vt 0.4273 0.1360 0.0000
vt 0.4316 0.1551 0.0000
vt 0.4389 0.1732 0.0000
vt 0.5249 0.6344 0.0000
vt 0.5194 0.6530 0.0000
vt 0.5170 0.6723 0.0000
vt 0.5517 0.6880 0.0000
vt 0.5543 0.7012 0.0000
vt 0.5593 0.7136 0.0000
vt 0.4188 0.2499 0.0000
vt 0.4234 0.2374 0.0000
vt 0.4256 0.2241 0.0000
vt 0.4255 0.2107 0.0000
vt 0.4230 0.1975 0.0000
vt 0.4183 0.1849 0.0000
vt 0.0574 0.3625 0.0000
vt 0.0629 0.3503 0.0000
vt 0.0661 0.3373 0.0000
vt 0.0671 0.3238 0.0000
vt 0.0658 0.3103 0.0000
vt 0.0623 0.2973 0.0000
vt 0.0565 0.2852 0.0000
vt 0.0598 0.5502 0.0000
vt 0.0641 0.5375 0.0000
vt 0.0661 0.5243 0.0000
vt 0.0658 0.5108 0.0000
vt 0.0632 0.4976 0.0000
vt 0.0582 0.4852 0.0000
vt 0.8562 0.3904 0.0000
vt 0.8517 0.4030 0.0000
vt 0.8495 0.4162 0.0000
vt 0.8496 0.4297 0.0000
vt 0.8520 0.4429 0.0000
vt 0.8567 0.4554 0.0000
vt 0.4698 0.0774 0.0000
vt 0.4643 0.0896 0.0000
vt 0.4611 0.1026 0.0000
vt 0.4601 0.1161 0.0000
vt 0.4614 0.1296 0.0000
vt 0.4649 0.1426 0.0000
vt 0.4707 0.1547 0.0000
vt 0.5577 0.6486 0.0000
vt 0.5534 0.6613 0.0000
vt 0.5514 0.6745 0.0000
vt 0.5999 0.6821 0.0000
vt 0.6007 0.6861 0.0000
vt 0.6023 0.6898 0.0000
vt 0.3751 0.2277 0.0000
vt 0.3765 0.2239 0.0000
vt 0.3772 0.2199 0.0000
vt 0.3772 0.2158 0.0000
vt 0.3764 0.2118 0.0000
vt 0.3749 0.2080 0.0000
vt 0.0155 0.3362 0.0000
vt 0.0173 0.3325 0.0000
vt 0.0184 0.3286 0.0000
vt 0.0187 0.3245 0.0000
vt 0.0182 0.3203 0.0000
vt 0.0170 0.3164 0.0000
vt 0.0151 0.3128 0.0000
vt 0.0157 0.5287 0.0000
vt 0.0171 0.5249 0.0000
vt 0.0177 0.5208 0.0000
vt 0.0176 0.5167 0.0000
vt 0.0167 0.5127 0.0000
vt 0.0151 0.5090 0.0000
vt 0.8999 0.4126 0.0000
vt 0.8985 0.4164 0.0000
vt 0.8978 0.4204 0.0000
vt 0.8978 0.4245 0.0000
vt 0.8986 0.4285 0.0000
vt 0.9002 0.4323 0.0000
vt 0.5117 0.1037 0.0000
vt 0.5099 0.1073 0.0000
vt 0.5088 0.1113 0.0000
vt 0.5085 0.1154 0.0000
vt 0.5090 0.1195 0.0000
vt 0.5102 0.1235 0.0000
vt 0.5121 0.1271 0.0000
vt 0.6018 0.6701 0.0000
vt 0.6004 0.6739 0.0000
vt 0.5998 0.6780 0.0000
vt 0.2397 0.8897 0.0000
vt 0.2592 0.9879 0.0000
vt 0.2397 0.9898 0.0000
vt 0.2780 0.9822 0.0000
vt 0.2953 0.9729 0.0000
vt 0.3104 0.9605 0.0000
vt 0.3229 0.9453 0.0000
vt 0.3321 0.9280 0.0000
vt 0.3378 0.9093 0.0000
vt 0.3397 0.8897 0.0000
vt 0.3378 0.8702 0.0000
vt 0.3321 0.8514 0.0000
vt 0.3229 0.8341 0.0000
vt 0.3104 0.8190 0.0000
vt 0.2953 0.8065 0.0000
vt 0.2780 0.7973 0.0000
vt 0.2592 0.7916 0.0000
vt 0.2397 0.7897 0.0000
vt 0.2201 0.7916 0.0000
vt 0.2014 0.7973 0.0000
vt 0.1841 0.8065 0.0000
vt 0.1689 0.8190 0.0000
vt 0.1565 0.8341 0.0000
vt 0.1472 0.8514 0.0000
vt 0.1415 0.8702 0.0000
vt 0.1396 0.8897 0.0000
vt 0.1415 0.9093 0.0000
vt 0.1472 0.9280 0.0000
vt 0.1565 0.9453 0.0000
vt 0.1689 0.9605 0.0000
vt 0.1841 0.9729 0.0000
vt 0.2014 0.9822 0.0000
vt 0.2201 0.9879 0.0000
# 636 texture coords

o beach_ball
g beach_ball
usemtl beach_ball
s off
f 1/1/1 2/2/2 3/3/3 
f 1/1/1 3/3/3 4/4/4 
f 1/1/1 4/4/4 5/5/5 
f 1/1/1 5/5/5 6/6/6 
f 1/1/1 6/6/6 7/7/7 
f 1/1/1 7/7/7 8/8/8 
f 1/1/1 8/8/8 9/9/9 
f 1/1/1 9/9/9 10/10/10 
f 1/1/1 10/10/10 11/11/11 
f 1/1/1 11/11/11 12/12/12 
f 1/1/1 12/12/12 13/13/13 
f 1/1/1 13/13/13 14/14/14 
f 1/1/1 14/14/14 15/15/15 
f 1/1/1 15/15/15 16/16/16 
f 1/1/1 16/16/16 17/17/17 
f 1/1/1 17/17/17 18/18/18 
f 1/1/1 18/18/18 19/19/19 
f 1/1/1 19/19/19 20/20/20 
f 1/1/1 20/20/20 21/21/21 
f 1/1/1 21/21/21 22/22/22 
f 1/1/1 22/22/22 23/23/23 
f 1/1/1 23/23/23 24/24/24 
f 1/1/1 24/24/24 25/25/25 
f 1/1/1 25/25/25 26/26/26 
f 1/1/1 26/26/26 27/27/27 
f 1/1/1 27/27/27 28/28/28 
f 1/1/1 28/28/28 29/29/29 
f 1/1/1 29/29/29 30/30/30 
f 1/1/1 30/30/30 31/31/31 
f 1/1/1 31/31/31 32/32/32 
f 1/1/1 32/32/32 33/33/33 
f 1/1/1 33/33/33 2/2/2 
f 2/34/2 34/35/34 35/36/35 3/37/3 
f 3/37/3 35/36/35 36/38/36 4/39/4 
f 4/40/4 36/41/36 37/42/37 5/43/5 
f 5/43/5 37/42/37 38/44/38 6/45/6 
f 6/45/6 38/44/38 39/46/39 7/47/7 
f 7/47/7 39/46/39 40/48/40 8/49/8 
f 8/49/8 40/48/40 41/50/41 9/51/9 
f 9/52/9 41/53/41 42/54/42 10/55/10 
f 10/55/10 42/54/42 43/56/43 11/57/11 
f 11/57/11 43/56/43 44/58/44 12/59/12 
f 12/59/12 44/58/44 45/60/45 13/61/13 
f 13/61/13 45/60/45 46/62/46 14/63/14 
f 14/63/14 46/62/46 47/64/47 15/65/15 
f 15/66/15 47/67/47 48/68/48 16/69/16 
f 16/69/16 48/68/48 49/70/49 17/71/17 
f 17/71/17 49/70/49 50/72/50 18/73/18 
f 18/73/18 50/72/50 51/74/51 19/75/19 
f 19/75/19 51/74/51 52/76/52 20/77/20 
f 20/78/20 52/79/52 53/80/53 21/81/21 
f 21/81/21 53/80/53 54/82/54 22/83/22 
f 22/83/22 54/82/54 55/84/55 23/85/23 
f 23/85/23 55/84/55 56/86/56 24/87/24 
f 24/87/24 56/86/56 57/88/57 25/89/25 
f 25/90/25 57/91/57 58/92/58 26/93/26 
f 26/93/26 58/92/58 59/94/59 27/95/27 
f 27/95/27 59/94/59 60/96/60 28/97/28 
f 28/97/28 60/96/60 61/98/61 29/99/29 
f 29/99/29 61/98/61 62/100/62 30/101/30 
f 30/101/30 62/100/62 63/102/63 31/103/31 
f 31/104/31 63/105/63 64/106/64 32/107/32 
f 32/107/32 64/106/64 65/108/65 33/109/33 
f 33/109/33 65/108/65 34/35/34 2/34/2 
f 34/35/34 66/110/66 67/111/67 35/36/35 
f 35/36/35 67/111/67 68/112/68 36/38/36 
f 36/41/36 68/113/68 69/114/69 37/42/37 
f 37/42/37 69/114/69 70/115/70 38/44/38 
f 38/44/38 70/115/70 71/116/71 39/46/39 
f 39/46/39 71/116/71 72/117/72 40/48/40 
f 40/48/40 72/117/72 73/118/73 41/50/41 
f 41/53/41 73/119/73 74/120/74 42/54/42 
f 42/54/42 74/120/74 75/121/75 43/56/43 
f 43/56/43 75/121/75 76/122/76 44/58/44 
f 44/58/44 76/122/76 77/123/77 45/60/45 
f 45/60/45 77/123/77 78/124/78 46/62/46 
f 46/62/46 78/124/78 79/125/79 47/64/47 
f 47/67/47 79/126/79 80/127/80 48/68/48 
f 48/68/48 80/127/80 81/128/81 49/70/49 
f 49/70/49 81/128/81 82/129/82 50/72/50 
f 50/72/50 82/129/82 83/130/83 51/74/51 
f 51/74/51 83/130/83 84/131/84 52/76/52 
f 52/79/52 84/132/84 85/133/85 53/80/53 
f 53/80/53 85/133/85 86/134/86 54/82/54 
f 54/82/54 86/134/86 87/135/87 55/84/55 
f 55/84/55 87/135/87 88/136/88 56/86/56 
f 56/86/56 88/136/88 89/137/89 57/88/57 
f 57/91/57 89/138/89 90/139/90 58/92/58 
f 58/92/58 90/139/90 91/140/91 59/94/59 
f 59/94/59 91/140/91 92/141/92 60/96/60 
f 60/96/60 92/141/92 93/142/93 61/98/61 
f 61/98/61 93/142/93 94/143/94 62/100/62 
f 62/100/62 94/143/94 95/144/95 63/102/63 
f 63/105/63 95/145/95 96/146/96 64/106/64 
f 64/106/64 96/146/96 97/147/97 65/108/65 
f 65/108/65 97/147/97 66/110/66 34/35/34 
f 66/110/66 98/148/98 99/149/99 67/111/67 
f 67/111/67 99/149/99 100/150/100 68/112/68 
f 68/113/68 100/151/100 101/152/101 69/114/69 
f 69/114/69 101/152/101 102/153/102 70/115/70 
f 70/115/70 102/153/102 103/154/103 71/116/71 
f 71/116/71 103/154/103 104/155/104 72/117/72 
f 72/117/72 104/155/104 105/156/105 73/118/73 
f 73/119/73 105/157/105 106/158/106 74/120/74 
f 74/120/74 106/158/106 107/159/107 75/121/75 
f 75/121/75 107/159/107 108/160/108 76/122/76 
f 76/122/76 108/160/108 109/161/109 77/123/77 
f 77/123/77 109/161/109 110/162/110 78/124/78 
f 78/124/78 110/162/110 111/163/111 79/125/79 
f 79/126/79 111/164/111 112/165/112 80/127/80 
f 80/127/80 112/165/112 113/166/113 81/128/81 
f 81/128/81 113/166/113 114/167/114 82/129/82 
f 82/129/82 114/167/114 115/168/115 83/130/83 
f 83/130/83 115/168/115 116/169/116 84/131/84 
f 84/132/84 116/170/116 117/171/117 85/133/85 
f 85/133/85 117/171/117 118/172/118 86/134/86 
f 86/134/86 118/172/118 119/173/119 87/135/87 
f 87/135/87 119/173/119 120/174/120 88/136/88 
f 88/136/88 120/174/120 121/175/121 89/137/89 
f 89/138/89 121/176/121 122/177/122 90/139/90 
f 90/139/90 122/177/122 123/178/123 91/140/91 
f 91/140/91 123/178/123 124/179/124 92/141/92 
f 92/141/92 124/179/124 125/180/125 93/142/93 
f 93/142/93 125/180/125 126/181/126 94/143/94 
f 94/143/94 126/181/126 127/182/127 95/144/95 
f 95/145/95 127/183/127 128/184/128 96/146/96 
f 96/146/96 128/184/128 129/185/129 97/147/97 
f 97/147/97 129/185/129 98/148/98 66/110/66 
f 98/148/98 130/186/130 131/187/131 99/149/99 
f 99/149/99 131/187/131 132/188/132 100/150/100 
f 100/151/100 132/189/132 133/190/133 101/152/101 
f 101/152/101 133/190/133 134/191/134 102/153/102 
f 102/153/102 134/191/134 135/192/135 103/154/103 
f 103/154/103 135/192/135 136/193/136 104/155/104 
f 104/155/104 136/193/136 137/194/137 105/156/105 
f 105/157/105 137/195/137 138/196/138 106/158/106 
f 106/158/106 138/196/138 139/197/139 107/159/107 
f 107/159/107 139/197/139 140/198/140 108/160/108 
f 108/160/108 140/198/140 141/199/141 109/161/109 
f 109/161/109 141/199/141 142/200/142 110/162/110 
f 110/162/110 142/200/142 143/201/143 111/163/111 
f 111/164/111 143/202/143 144/203/144 112/165/112 
f 112/165/112 144/203/144 145/204/145 113/166/113 
f 113/166/113 145/204/145 146/205/146 114/167/114 
f 114/167/114 146/205/146 147/206/147 115/168/115 
f 115/168/115 147/206/147 148/207/148 116/169/116 
f 116/170/116 148/208/148 149/209/149 117/171/117 
f 117/171/117 149/209/149 150/210/150 118/172/118 
f 118/172/118 150/210/150 151/211/151 119/173/119 
f 119/173/119 151/211/151 152/212/152 120/174/120 
f 120/174/120 152/212/152 153/213/153 121/175/121 
f 121/176/121 153/214/153 154/215/154 122/177/122 
f 122/177/122 154/215/154 155/216/155 123/178/123 
f 123/178/123 155/216/155 156/217/156 124/179/124 
f 124/179/124 156/217/156 157/218/157 125/180/125 
f 125/180/125 157/218/157 158/219/158 126/181/126 
f 126/181/126 158/219/158 159/220/159 127/182/127 
f 127/183/127 159/221/159 160/222/160 128/184/128 
f 128/184/128 160/222/160 161/223/161 129/185/129 
f 129/185/129 161/223/161 130/186/130 98/148/98 
f 130/186/130 162/224/162 163/225/163 131/187/131 
f 131/187/131 163/225/163 164/226/164 132/188/132 
f 132/189/132 164/227/164 165/228/165 133/190/133 
f 133/190/133 165/228/165 166/229/166 134/191/134 
f 134/191/134 166/229/166 167/230/167 135/192/135 
f 135/192/135 167/230/167 168/231/168 136/193/136 
f 136/193/136 168/231/168 169/232/169 137/194/137 
f 137/195/137 169/233/169 170/234/170 138/196/138 
f 138/196/138 170/234/170 171/235/171 139/197/139 
f 139/197/139 171/235/171 172/236/172 140/198/140 
f 140/198/140 172/236/172 173/237/173 141/199/141 
f 141/199/141 173/237/173 174/238/174 142/200/142 
f 142/200/142 174/238/174 175/239/175 143/201/143 
f 143/202/143 175/240/175 176/241/176 144/203/144 
f 144/203/144 176/241/176 177/242/177 145/204/145 
f 145/204/145 177/242/177 178/243/178 146/205/146 
f 146/205/146 178/243/178 179/244/179 147/206/147 
f 147/206/147 179/244/179 180/245/180 148/207/148 
f 148/208/148 180/246/180 181/247/181 149/209/149 
f 149/209/149 181/247/181 182/248/182 150/210/150 
f 150/210/150 182/248/182 183/249/183 151/211/151 
f 151/211/151 183/249/183 184/250/184 152/212/152 
f 152/212/152 184/250/184 185/251/185 153/213/153 
f 153/214/153 185/252/185 186/253/186 154/215/154 
f 154/215/154 186/253/186 187/254/187 155/216/155 
f 155/216/155 187/254/187 188/255/188 156/217/156 
f 156/217/156 188/255/188 189/256/189 157/218/157 
f 157/218/157 189/256/189 190/257/190 158/219/158 
f 158/219/158 190/257/190 191/258/191 159/220/159 
f 159/221/159 191/259/191 192/260/192 160/222/160 
f 160/222/160 192/260/192 193/261/193 161/223/161 
f 161/223/161 193/261/193 162/224/162 130/186/130 
f 162/224/162 194/262/194 195/263/195 163/225/163 
f 163/225/163 195/263/195 196/264/196 164/226/164 
f 164/227/164 196/265/196 197/266/197 165/228/165 
f 165/228/165 197/266/197 198/267/198 166/229/166 
f 166/229/166 198/267/198 199/268/199 167/230/167 
f 167/230/167 199/268/199 200/269/200 168/231/168 
f 168/231/168 200/269/200 201/270/201 169/232/169 
f 169/233/169 201/271/201 202/272/202 170/234/170 
f 170/234/170 202/272/202 203/273/203 171/235/171 
f 171/235/171 203/273/203 204/274/204 172/236/172 
f 172/236/172 204/274/204 205/275/205 173/237/173 
f 173/237/173 205/275/205 206/276/206 174/238/174 
f 174/238/174 206/276/206 207/277/207 175/239/175 
f 175/240/175 207/278/207 208/279/208 176/241/176 
f 176/241/176 208/279/208 209/280/209 177/242/177 
f 177/242/177 209/280/209 210/281/210 178/243/178 
f 178/243/178 210/281/210 211/282/211 179/244/179 
f 179/244/179 211/282/211 212/283/212 180/245/180 
f 180/246/180 212/284/212 213/285/213 181/247/181 
f 181/247/181 213/285/213 214/286/214 182/248/182 
f 182/248/182 214/286/214 215/287/215 183/249/183 
f 183/249/183 215/287/215 216/288/216 184/250/184 
f 184/250/184 216/288/216 217/289/217 185/251/185 
f 185/252/185 217/290/217 218/291/218 186/253/186 
f 186/253/186 218/291/218 219/292/219 187/254/187 
f 187/254/187 219/292/219 220/293/220 188/255/188 
f 188/255/188 220/293/220 221/294/221 189/256/189 
f 189/256/189 221/294/221 222/295/222 190/257/190 
f 190/257/190 222/295/222 223/296/223 191/258/191 
f 191/259/191 223/297/223 224/298/224 192/260/192 
f 192/260/192 224/298/224 225/299/225 193/261/193 
f 193/261/193 225/299/225 194/262/194 162/224/162 
f 194/262/194 226/300/226 227/301/227 195/263/195 
f 195/263/195 227/301/227 228/302/228 196/264/196 
f 196/265/196 228/303/228 229/304/229 197/266/197 
f 197/266/197 229/304/229 230/305/230 198/267/198 
f 198/267/198 230/305/230 231/306/231 199/268/199 
f 199/268/199 231/306/231 232/307/232 200/269/200 
f 200/269/200 232/307/232 233/308/233 201/270/201 
f 201/271/201 233/309/233 234/310/234 202/272/202 
f 202/272/202 234/310/234 235/311/235 203/273/203 
f 203/273/203 235/311/235 236/312/236 204/274/204 
f 204/274/204 236/312/236 237/313/237 205/275/205 
f 205/275/205 237/313/237 238/314/238 206/276/206 
f 206/276/206 238/314/238 239/315/239 207/277/207 
f 207/278/207 239/316/239 240/317/240 208/279/208 
f 208/279/208 240/317/240 241/318/241 209/280/209 
f 209/280/209 241/318/241 242/319/242 210/281/210 
f 210/281/210 242/319/242 243/320/243 211/282/211 
f 211/282/211 243/320/243 244/321/244 212/283/212 
f 212/284/212 244/322/244 245/323/245 213/285/213 
f 213/285/213 245/323/245 246/324/246 214/286/214 
f 214/286/214 246/324/246 247/325/247 215/287/215 
f 215/287/215 247/325/247 248/326/248 216/288/216 
f 216/288/216 248/326/248 249/327/249 217/289/217 
f 217/290/217 249/328/249 250/329/250 218/291/218 
f 218/291/218 250/329/250 251/330/251 219/292/219 
f 219/292/219 251/330/251 252/331/252 220/293/220 
f 220/293/220 252/331/252 253/332/253 221/294/221 
f 221/294/221 253/332/253 254/333/254 222/295/222 
f 222/295/222 254/333/254 255/334/255 223/296/223 
f 223/297/223 255/335/255 256/336/256 224/298/224 
f 224/298/224 256/336/256 257/337/257 225/299/225 
f 225/299/225 257/337/257 226/300/226 194/262/194 
f 226/300/226 258/338/258 259/339/259 227/301/227 
f 227/301/227 259/339/259 260/340/260 228/302/228 
f 228/303/228 260/341/260 261/342/261 229/304/229 
f 229/304/229 261/342/261 262/343/262 230/305/230 
f 230/305/230 262/343/262 263/344/263 231/306/231 
f 231/306/231 263/344/263 264/345/264 232/307/232 
f 232/307/232 264/345/264 265/346/265 233/308/233 
f 233/309/233 265/347/265 266/348/266 234/310/234 
f 234/310/234 266/348/266 267/349/267 235/311/235 
f 235/311/235 267/349/267 268/350/268 236/312/236 
f 236/312/236 268/350/268 269/351/269 237/313/237 
f 237/313/237 269/351/269 270/352/270 238/314/238 
f 238/314/238 270/352/270 271/353/271 239/315/239 
f 239/316/239 271/354/271 272/355/272 240/317/240 
f 240/317/240 272/355/272 273/356/273 241/318/241 
f 241/318/241 273/356/273 274/357/274 242/319/242 
f 242/319/242 274/357/274 275/358/275 243/320/243 
f 243/320/243 275/358/275 276/359/276 244/321/244 
f 244/322/244 276/360/276 277/361/277 245/323/245 
f 245/323/245 277/361/277 278/362/278 246/324/246 
f 246/324/246 278/362/278 279/363/279 247/325/247 
f 247/325/247 279/363/279 280/364/280 248/326/248 
f 248/326/248 280/364/280 281/365/281 249/327/249 
f 249/328/249 281/366/281 282/367/282 250/329/250 
f 250/329/250 282/367/282 283/368/283 251/330/251 
f 251/330/251 283/368/283 284/369/284 252/331/252 
f 252/331/252 284/369/284 285/370/285 253/332/253 
f 253/332/253 285/370/285 286/371/286 254/333/254 
f 254/333/254 286/371/286 287/372/287 255/334/255 
f 255/335/255 287/373/287 288/374/288 256/336/256 
f 256/336/256 288/374/288 289/375/289 257/337/257 
f 257/337/257 289/375/289 258/338/258 226/300/226 
f 258/338/258 290/376/290 291/377/291 259/339/259 
f 259/339/259 291/377/291 292/378/292 260/340/260 
f 260/341/260 292/379/292 293/380/293 261/342/261 
f 261/342/261 293/380/293 294/381/294 262/343/262 
f 262/343/262 294/381/294 295/382/295 263/344/263 
f 263/344/263 295/382/295 296/383/296 264/345/264 
f 264/345/264 296/383/296 297/384/297 265/346/265 
f 265/347/265 297/385/297 298/386/298 266/348/266 
f 266/348/266 298/386/298 299/387/299 267/349/267 
f 267/349/267 299/387/299 300/388/300 268/350/268 
f 268/350/268 300/388/300 301/389/301 269/351/269 
f 269/351/269 301/389/301 302/390/302 270/352/270 
f 270/352/270 302/390/302 303/391/303 271/353/271 
f 271/354/271 303/392/303 304/393/304 272/355/272 
f 272/355/272 304/393/304 305/394/305 273/356/273 
f 273/356/273 305/394/305 306/395/306 274/357/274 
f 274/357/274 306/395/306 307/396/307 275/358/275 
f 275/358/275 307/396/307 308/397/308 276/359/276 
f 276/360/276 308/398/308 309/399/309 277/361/277 
f 277/361/277 309/399/309 310/400/310 278/362/278 
f 278/362/278 310/400/310 311/401/311 279/363/279 
f 279/363/279 311/401/311 312/402/312 280/364/280 
f 280/364/280 312/402/312 313/403/313 281/365/281 
f 281/366/281 313/404/313 314/405/314 282/367/282 
f 282/367/282 314/405/314 315/406/315 283/368/283 
f 283/368/283 315/406/315 316/407/316 284/369/284 
f 284/369/284 316/407/316 317/408/317 285/370/285 
f 285/370/285 317/408/317 318/409/318 286/371/286 
f 286/371/286 318/409/318 319/410/319 287/372/287 
f 287/373/287 319/411/319 320/412/320 288/374/288 
f 288/374/288 320/412/320 321/413/321 289/375/289 
f 289/375/289 321/413/321 290/376/290 258/338/258 
f 290/376/290 322/414/322 323/415/323 291/377/291 
f 291/377/291 323/415/323 324/416/324 292/378/292 
f 292/379/292 324/417/324 325/418/325 293/380/293 
f 293/380/293 325/418/325 326/419/326 294/381/294 
f 294/381/294 326/419/326 327/420/327 295/382/295 
f 295/382/295 327/420/327 328/421/328 296/383/296 
f 296/383/296 328/421/328 329/422/329 297/384/297 
f 297/385/297 329/423/329 330/424/330 298/386/298 
f 298/386/298 330/424/330 331/425/331 299/387/299 
f 299/387/299 331/425/331 332/426/332 300/388/300 
f 300/388/300 332/426/332 333/427/333 301/389/301 
f 301/389/301 333/427/333 334/428/334 302/390/302 
f 302/390/302 334/428/334 335/429/335 303/391/303 
f 303/392/303 335/430/335 336/431/336 304/393/304 
f 304/393/304 336/431/336 337/432/337 305/394/305 
f 305/394/305 337/432/337 338/433/338 306/395/306 
f 306/395/306 338/433/338 339/434/339 307/396/307 
f 307/396/307 339/434/339 340/435/340 308/397/308 
f 308/398/308 340/436/340 341/437/341 309/399/309 
f 309/399/309 341/437/341 342/438/342 310/400/310 
f 310/400/310 342/438/342 343/439/343 311/401/311 
f 311/401/311 343/439/343 344/440/344 312/402/312 
f 312/402/312 344/440/344 345/441/345 313/403/313 
f 313/404/313 345/442/345 346/443/346 314/405/314 
f 314/405/314 346/443/346 347/444/347 315/406/315 
f 315/406/315 347/444/347 348/445/348 316/407/316 
f 316/407/316 348/445/348 349/446/349 317/408/317 
f 317/408/317 349/446/349 350/447/350 318/409/318 
f 318/409/318 350/447/350 351/448/351 319/410/319 
f 319/411/319 351/449/351 352/450/352 320/412/320 
f 320/412/320 352/450/352 353/451/353 321/413/321 
f 321/413/321 353/451/353 322/414/322 290/376/290 
f 322/414/322 354/452/354 355/453/355 323/415/323 
f 323/415/323 355/453/355 356/454/356 324/416/324 
f 324/417/324 356/455/356 357/456/357 325/418/325 
f 325/418/325 357/456/357 358/457/358 326/419/326 
f 326/419/326 358/457/358 359/458/359 327/420/327 
f 327/420/327 359/458/359 360/459/360 328/421/328 
f 328/421/328 360/459/360 361/460/361 329/422/329 
f 329/423/329 361/461/361 362/462/362 330/424/330 
f 330/424/330 362/462/362 363/463/363 331/425/331 
f 331/425/331 363/463/363 364/464/364 332/426/332 
f 332/426/332 364/464/364 365/465/365 333/427/333 
f 333/427/333 365/465/365 366/466/366 334/428/334 
f 334/428/334 366/466/366 367/467/367 335/429/335 
f 335/430/335 367/468/367 368/469/368 336/431/336 
f 336/431/336 368/469/368 369/470/369 337/432/337 
f 337/432/337 369/470/369 370/471/370 338/433/338 
f 338/433/338 370/471/370 371/472/371 339/434/339 
f 339/434/339 371/472/371 372/473/372 340/435/340 
f 340/436/340 372/474/372 373/475/373 341/437/341 
f 341/437/341 373/475/373 374/476/374 342/438/342 
f 342/438/342 374/476/374 375/477/375 343/439/343 
f 343/439/343 375/477/375 376/478/376 344/440/344 
f 344/440/344 376/478/376 377/479/377 345/441/345 
f 345/442/345 377/480/377 378/481/378 346/443/346 
f 346/443/346 378/481/378 379/482/379 347/444/347 
f 347/444/347 379/482/379 380/483/380 348/445/348 
f 348/445/348 380/483/380 381/484/381 349/446/349 
f 349/446/349 381/484/381 382/485/382 350/447/350 
f 350/447/350 382/485/382 383/486/383 351/448/351 
f 351/449/351 383/487/383 384/488/384 352/450/352 
f 352/450/352 384/488/384 385/489/385 353/451/353 
f 353/451/353 385/489/385 354/452/354 322/414/322 
f 354/452/354 386/490/386 387/491/387 355/453/355 
f 355/453/355 387/491/387 388/492/388 356/454/356 
f 356/455/356 388/493/388 389/494/389 357/456/357 
f 357/456/357 389/494/389 390/495/390 358/457/358 
f 358/457/358 390/495/390 391/496/391 359/458/359 
f 359/458/359 391/496/391 392/497/392 360/459/360 
f 360/459/360 392/497/392 393/498/393 361/460/361 
f 361/461/361 393/499/393 394/500/394 362/462/362 
f 362/462/362 394/500/394 395/501/395 363/463/363 
f 363/463/363 395/501/395 396/502/396 364/464/364 
f 364/464/364 396/502/396 397/503/397 365/465/365 
f 365/465/365 397/503/397 398/504/398 366/466/366 
f 366/466/366 398/504/398 399/505/399 367/467/367 
f 367/468/367 399/506/399 400/507/400 368/469/368 
f 368/469/368 400/507/400 401/508/401 369/470/369 
f 369/470/369 401/508/401 402/509/402 370/471/370 
f 370/471/370 402/509/402 403/510/403 371/472/371 
f 371/472/371 403/510/403 404/511/404 372/473/372 
f 372/474/372 404/512/404 405/513/405 373/475/373 
f 373/475/373 405/513/405 406/514/406 374/476/374 
f 374/476/374 406/514/406 407/515/407 375/477/375 
f 375/477/375 407/515/407 408/516/408 376/478/376 
f 376/478/376 408/516/408 409/517/409 377/479/377 
f 377/480/377 409/518/409 410/519/410 378/481/378 
f 378/481/378 410/519/410 411/520/411 379/482/379 
f 379/482/379 411/520/411 412/521/412 380/483/380 
f 380/483/380 412/521/412 413/522/413 381/484/381 
f 381/484/381 413/522/413 414/523/414 382/485/382 
f 382/485/382 414/523/414 415/524/415 383/486/383 
f 383/487/383 415/525/415 416/526/416 384/488/384 
f 384/488/384 416/526/416 417/527/417 385/489/385 
f 385/489/385 417/527/417 386/490/386 354/452/354 
f 386/490/386 418/528/418 419/529/419 387/491/387 
f 387/491/387 419/529/419 420/530/420 388/492/388 
f 388/493/388 420/531/420 421/532/421 389/494/389 
f 389/494/389 421/532/421 422/533/422 390/495/390 
f 390/495/390 422/533/422 423/534/423 391/496/391 
f 391/496/391 423/534/423 424/535/424 392/497/392 
f 392/497/392 424/535/424 425/536/425 393/498/393 
f 393/499/393 425/537/425 426/538/426 394/500/394 
f 394/500/394 426/538/426 427/539/427 395/501/395 
f 395/501/395 427/539/427 428/540/428 396/502/396 
f 396/502/396 428/540/428 429/541/429 397/503/397 
f 397/503/397 429/541/429 430/542/430 398/504/398 
f 398/504/398 430/542/430 431/543/431 399/505/399 
f 399/506/399 431/544/431 432/545/432 400/507/400 
f 400/507/400 432/545/432 433/546/433 401/508/401 
f 401/508/401 433/546/433 434/547/434 402/509/402 
f 402/509/402 434/547/434 435/548/435 403/510/403 
f 403/510/403 435/548/435 436/549/436 404/511/404 
f 404/512/404 436/550/436 437/551/437 405/513/405 
f 405/513/405 437/551/437 438/552/438 406/514/406 
f 406/514/406 438/552/438 439/553/439 407/515/407 
f 407/515/407 439/553/439 440/554/440 408/516/408 
f 408/516/408 440/554/440 441/555/441 409/517/409 
f 409/518/409 441/556/441 442/557/442 410/519/410 
f 410/519/410 442/557/442 443/558/443 411/520/411 
f 411/520/411 443/558/443 444/559/444 412/521/412 
f 412/521/412 444/559/444 445/560/445 413/522/413 
f 413/522/413 445/560/445 446/561/446 414/523/414 
f 414/523/414 446/561/446 447/562/447 415/524/415 
f 415/525/415 447/563/447 448/564/448 416/526/416 
f 416/526/416 448/564/448 449/565/449 417/527/417 
f 417/527/417 449/565/449 418/528/418 386/490/386 
f 418/528/418 450/566/450 451/567/451 419/529/419 
f 419/529/419 451/567/451 452/568/452 420/530/420 
f 420/531/420 452/569/452 453/570/453 421/532/421 
f 421/532/421 453/570/453 454/571/454 422/533/422 
f 422/533/422 454/571/454 455/572/455 423/534/423 
f 423/534/423 455/572/455 456/573/456 424/535/424 
f 424/535/424 456/573/456 457/574/457 425/536/425 
f 425/537/425 457/575/457 458/576/458 426/538/426 
f 426/538/426 458/576/458 459/577/459 427/539/427 
f 427/539/427 459/577/459 460/578/460 428/540/428 
f 428/540/428 460/578/460 461/579/461 429/541/429 
f 429/541/429 461/579/461 462/580/462 430/542/430 
f 430/542/430 462/580/462 463/581/463 431/543/431 
f 431/544/431 463/582/463 464/583/464 432/545/432 
f 432/545/432 464/583/464 465/584/465 433/546/433 
f 433/546/433 465/584/465 466/585/466 434/547/434 
f 434/547/434 466/585/466 467/586/467 435/548/435 
f 435/548/435 467/586/467 468/587/468 436/549/436 
f 436/550/436 468/588/468 469/589/469 437/551/437 
f 437/551/437 469/589/469 470/590/470 438/552/438 
f 438/552/438 470/590/470 471/591/471 439/553/439 
f 439/553/439 471/591/471 472/592/472 440/554/440 
f 440/554/440 472/592/472 473/593/473 441/555/441 
f 441/556/441 473/594/473 474/595/474 442/557/442 
f 442/557/442 474/595/474 475/596/475 443/558/443 
f 443/558/443 475/596/475 476/597/476 444/559/444 
f 444/559/444 476/597/476 477/598/477 445/560/445 
f 445/560/445 477/598/477 478/599/478 446/561/446 
f 446/561/446 478/599/478 479/600/479 447/562/447 
f 447/563/447 479/601/479 480/602/480 448/564/448 
f 448/564/448 480/602/480 481/603/481 449/565/449 
f 449/565/449 481/603/481 450/566/450 418/528/418 
f 482/604/482 451/605/451 450/606/450 
f 482/604/482 452/607/452 451/605/451 
f 482/604/482 453/608/453 452/607/452 
f 482/604/482 454/609/454 453/608/453 
f 482/604/482 455/610/455 454/609/454 
f 482/604/482 456/611/456 455/610/455 
f 482/604/482 457/612/457 456/611/456 
f 482/604/482 458/613/458 457/612/457 
f 482/604/482 459/614/459 458/613/458 
f 482/604/482 460/615/460 459/614/459 
f 482/604/482 461/616/461 460/615/460 
f 482/604/482 462/617/462 461/616/461 
f 482/604/482 463/618/463 462/617/462 
f 482/604/482 464/619/464 463/618/463 
f 482/604/482 465/620/465 464/619/464 
f 482/604/482 466/621/466 465/620/465 
f 482/604/482 467/622/467 466/621/466 
f 482/604/482 468/623/468 467/622/467 
f 482/604/482 469/624/469 468/623/468 
f 482/604/482 470/625/470 469/624/469 
f 482/604/482 471/626/471 470/625/470 
f 482/604/482 472/627/472 471/626/471 
f 482/604/482 473/628/473 472/627/472 
f 482/604/482 474/629/474 473/628/473 
f 482/604/482 475/630/475 474/629/474 
f 482/604/482 476/631/476 475/630/475 
f 482/604/482 477/632/477 476/631/476 
f 482/604/482 478/633/478 477/632/477 
f 482/604/482 479/634/479 478/633/478 
f 482/604/482 480/635/480 479/634/479 
f 482/604/482 481/636/481 480/635/480 
f 482/604/482 450/606/450 481/636/481 
# 448 polygons - 64 triangles

