# 3ds Max Wavefront OBJ Exporter v0.99 - (c)2007 guruware
# File Created: 15.03.2026 18:52:10

mtllib pasto.mtl

#
# object Cube_001
#

v  -38.8732 0.1145 31.5598
v  71.6686 -0.1868 7.6851
v  58.8732 -0.1039 -51.5598
v  -51.6686 0.1974 -27.6851
# 4 vertices

vn 0.0000 1.0000 0.0000
# 1 vertex normals

vt 0.1250 0.5000 0.0000
vt 0.3750 0.5000 0.0000
vt 0.3750 0.7500 0.0000
vt 0.1250 0.7500 0.0000
# 4 texture coords

o Cube_001
g Cube_001
usemtl Material
s off
f 1/1/1 2/2/1 3/3/1 4/4/1 
# 1 polygons

#
# object Cube
#

v  71.1516 -0.2189 7.9635
v  -39.3138 0.1043 31.4669
v  -51.4421 0.1879 -27.9198
v  59.0233 -0.1353 -51.4233
v  59.3137 -0.1149 -51.4669
v  -51.1517 0.2083 -27.9635
v  -39.0234 0.1247 31.4233
v  71.4420 -0.1985 7.9198
# 8 vertices

vn 0.0000 -1.0000 -0.0000
vn 0.0000 0.0000 -1.0000
vn -1.0000 0.0000 -0.0000
vn 1.0000 0.0000 -0.0000
vn 0.0000 0.0000 1.0000
# 5 vertex normals

vt 0.6250 0.5000 0.0000
vt 0.8750 0.5000 0.0000
vt 0.8750 0.7500 0.0000
vt 0.6250 0.7500 0.0000
vt 0.3750 0.7500 0.0000
vt 0.6250 1.0000 0.0000
vt 0.3750 1.0000 0.0000
vt 0.3750 0.0000 0.0000
vt 0.6250 0.0000 0.0000
vt 0.6250 0.2500 0.0000
vt 0.3750 0.2500 0.0000
vt 0.3750 0.5000 0.0000
# 12 texture coords

o Cube
g Cube
usemtl dirt
s off
f 5/5/2 6/6/2 7/7/2 8/8/2 
f 9/9/3 8/8/3 7/10/3 10/11/3 
f 10/12/4 7/13/4 6/14/4 11/15/4 
f 12/16/5 5/5/5 8/8/5 9/9/5 
f 11/15/6 6/14/6 5/5/6 12/16/6 
# 5 polygons

