# 3ds Max Wavefront OBJ Exporter v0.99 - (c)2007 guruware
# File Created: 15.03.2026 18:13:11

mtllib perro_blanco.mtl

#
# object Perro_blanco
#

v  27.7927 4.6063 10.6665
v  27.7219 4.8915 10.7257
v  27.8821 4.8218 10.6780
v  28.0670 4.5003 10.7229
v  28.1449 4.7714 10.8135
v  28.3960 5.0206 11.1066
v  28.1082 5.1444 11.2355
v  28.6992 5.5313 11.4554
v  28.4955 5.3841 11.2517
v  28.2591 5.4712 11.4057
v  28.7304 5.2163 11.1975
v  28.9683 5.4321 11.5344
v  28.4885 5.6531 11.7690
v  27.8321 4.4042 12.4633
v  27.7092 4.6029 12.2643
v  27.7723 4.5301 12.2422
v  29.0051 5.5456 11.7152
v  28.1544 3.5926 12.1092
v  28.1233 3.8725 12.2018
v  28.1226 3.7091 11.9228
v  28.8852 5.5893 12.0631
v  28.5680 5.6537 12.0429
v  29.0799 0.5207 11.8890
v  29.3652 0.3738 11.7588
v  29.2402 0.2660 11.4679
v  29.3060 0.1030 11.4859
v  29.2135 5.4404 11.8345
v  28.6987 0.4896 12.5445
v  28.6652 0.1722 12.4490
v  28.3855 0.0919 12.1025
v  28.3337 0.5490 12.6428
v  28.3569 0.4973 12.3838
v  28.1940 0.3608 12.5906
v  29.3859 1.3209 11.8587
v  29.2529 1.7844 11.8069
v  29.3942 2.5585 11.6870
v  28.9381 2.1002 12.0766
v  29.0339 2.0234 12.3178
v  28.6256 2.1657 12.2177
v  29.4310 5.1932 11.8467
v  29.1686 5.3983 11.9871
v  29.4470 0.5144 11.9588
v  29.4543 0.6027 12.2155
v  29.3920 0.0879 11.8680
v  28.6416 0.1082 12.5091
v  28.6993 1.9170 12.5739
v  28.7938 1.6810 12.8387
v  28.6830 1.5913 12.5679
v  28.7368 5.1794 12.5498
v  29.1286 4.8578 12.5195
v  29.0853 5.2536 12.2977
v  28.5984 1.8016 12.9980
v  28.5518 0.6574 12.8463
v  28.6708 0.5874 12.8167
v  28.8371 2.0498 12.8095
v  29.1640 4.5925 12.7942
v  29.3598 4.7328 12.3276
v  29.4244 4.4218 12.9233
v  29.6058 4.3243 12.5686
v  29.7215 4.2768 12.8649
v  29.8257 4.1345 12.4876
v  29.7543 4.2067 13.3240
v  29.9520 4.1190 12.9764
v  30.1793 4.0441 13.4685
v  30.2207 3.9187 13.1008
v  30.5174 3.6784 13.3238
v  30.5815 3.8345 13.6658
v  30.6012 3.9414 14.0028
v  30.1968 4.0865 13.9266
v  31.0635 3.7212 14.2832
v  30.6534 4.0592 14.5252
v  31.1077 3.8458 14.6124
v  30.9640 2.1550 14.2051
v  30.9355 1.9591 14.4375
v  30.7972 2.1829 14.3891
v  31.0585 3.9024 15.1006
v  30.3132 0.2314 15.4727
v  30.4703 0.2750 15.3308
v  30.4138 0.1222 15.3625
v  31.4298 3.5291 14.7696
v  30.2742 0.0717 15.5280
v  30.5983 0.0179 15.4573
v  30.6095 0.1163 15.3381
v  30.7508 0.1086 15.4905
v  31.3373 3.7048 15.2143
v  31.3711 3.6350 15.0266
v  30.3949 2.4460 15.6352
v  30.5927 2.7529 15.6682
v  30.4035 3.1161 15.4813
v  31.4542 3.4279 15.3521
v  31.8105 0.7155 14.8390
v  31.8672 0.2791 14.7384
v  31.6085 0.4099 14.7840
v  31.7316 1.6998 14.6953
v  31.8951 1.3019 14.9795
v  31.7196 1.1861 14.7933
v  31.1812 3.6604 15.4479
v  31.4241 3.2320 15.1807
v  31.3557 3.3599 15.5732
v  30.8080 0.3583 15.8963
v  30.8510 0.3721 15.7212
v  30.9452 0.9402 15.8234
v  30.7792 0.9305 15.9416
v  31.5179 2.7111 15.5936
v  31.3612 2.7193 15.7055
v  31.5727 2.1073 15.8544
v  31.6028 2.2060 15.6726
v  31.7245 1.9087 15.8095
v  31.8705 1.4790 16.0628
v  31.9500 1.4571 15.8262
v  31.9174 1.3728 15.9229
v  27.8963 4.3245 11.4996
v  27.6557 4.3489 11.0840
v  28.0308 4.2963 11.1492
v  27.9002 5.0559 11.4550
v  27.7864 4.8309 11.4632
v  27.8914 5.1978 11.8422
v  27.7884 4.5064 11.5307
v  27.8503 4.6386 11.6983
v  28.2189 3.5229 11.6687
v  28.1244 3.9051 11.8069
v  27.8799 5.0753 12.3285
v  27.8211 4.7993 12.1726
v  27.9797 4.7894 11.9510
v  28.0519 4.8159 12.1577
v  28.0158 5.1359 12.1284
v  27.9835 4.5207 12.3569
v  27.9421 4.6369 12.2565
v  27.9606 4.5252 12.6289
v  27.8615 4.6924 12.4657
v  27.9552 0.2569 12.4480
v  28.0061 0.2652 12.2029
v  29.3418 3.1295 11.6225
v  28.8605 3.1016 11.5814
v  29.0927 3.3654 11.5794
v  28.3401 5.5828 12.1891
v  28.1103 5.4238 12.1452
v  28.1080 5.3822 12.3517
v  29.2133 2.7871 11.6160
v  29.1443 2.4074 11.7473
v  28.8764 2.6612 11.6262
v  28.1158 3.0985 12.5394
v  28.2173 3.2951 12.8385
v  28.1556 3.4488 12.4669
v  28.3360 5.3642 12.5785
v  28.6182 5.5078 12.3682
v  28.2212 2.1799 12.6383
v  28.1953 2.8817 12.8525
v  29.2873 0.7114 11.8752
v  29.1881 0.7230 11.9071
v  28.2208 5.0472 12.7475
v  28.3797 5.1732 12.6192
v  28.3832 4.6664 12.6577
v  28.4041 4.3891 12.7456
v  28.6871 4.5241 12.8873
v  28.9968 2.1818 12.6163
v  28.7662 2.0209 12.5317
v  28.8204 4.7762 12.7191
v  29.8480 2.7885 12.1124
v  30.0805 3.4653 12.4935
v  29.9995 3.0349 12.4187
v  29.0485 4.0857 13.4272
v  28.7400 3.9314 13.3470
v  28.9446 3.8274 13.5900
v  29.9198 2.6802 12.4611
v  30.1132 2.5275 12.8182
v  29.8163 2.4028 12.5975
v  29.1288 2.8155 13.8773
v  28.8971 3.0275 13.6661
v  29.0340 2.5506 13.6041
v  29.1261 3.2056 13.9687
v  30.5105 2.9343 13.1009
v  30.5187 2.6982 13.2561
v  30.3465 2.7628 12.9584
v  29.4387 4.1507 13.5049
v  29.8751 4.0560 13.9335
v  30.5116 2.5615 13.7961
v  29.8666 2.2051 13.5520
v  29.9846 2.2190 13.2970
v  30.0634 2.3769 13.8576
v  29.7132 2.3046 13.8395
v  30.0727 2.5556 14.2119
v  29.7607 2.5663 14.2484
v  30.7732 3.3399 13.6167
v  30.8537 2.9326 13.8448
v  30.7538 3.0457 13.5472
v  30.8386 2.7566 13.9396
v  30.6128 2.5571 14.1459
v  31.5277 2.8221 14.4143
v  31.5791 2.2269 14.4159
v  31.2903 2.4594 14.1448
v  31.3737 1.9077 14.3483
v  30.5608 3.6538 15.2596
v  30.6282 3.9133 14.9618
v  30.2878 3.7597 14.9254
v  31.0826 1.6731 14.6394
v  31.3214 1.3174 14.8539
v  31.1797 1.6086 14.8288
v  31.6092 0.1044 14.4668
v  31.8330 0.0504 14.5857
v  31.5403 0.0140 14.7252
v  31.4812 0.1116 14.8949
v  31.4658 0.3944 14.8293
v  31.3746 0.2784 14.7115
v  31.8551 0.1145 14.5758
v  31.4892 0.2825 14.5632
v  31.4263 1.2142 15.1133
v  31.4716 0.9030 14.9728
v  31.1904 2.0981 15.1050
v  31.3615 2.3580 15.1300
v  31.1334 2.3103 15.2757
v  31.5044 1.4277 15.1958
v  31.3774 1.6433 15.0957
v  31.9297 0.2053 14.8745
v  31.7708 0.0673 14.9762
v  31.1297 3.4505 15.5649
v  30.9167 3.7535 15.3382
v  31.5664 1.1989 15.2673
v  31.2679 2.6603 15.2425
v  31.1058 2.6016 15.4116
v  31.2506 2.5473 15.4200
v  31.5130 0.5448 14.9838
v  31.6520 0.8522 15.2203
v  31.2777 2.6876 15.3359
v  30.5689 0.1405 15.8965
v  30.5806 0.7376 15.7843
v  30.4655 0.2729 15.8259
v  30.8289 1.3558 15.9472
v  31.0245 1.2516 15.8889
v  30.8445 1.8046 15.6579
v  30.7157 1.8108 15.7383
v  31.7463 1.2224 15.3167
v  31.3661 1.8885 15.8547
v  31.4611 1.7314 15.7221
v  31.4277 1.4126 16.0777
v  31.6726 1.3199 15.9750
v  31.5915 1.3659 16.1655
v  31.6869 1.4983 16.1794
v  27.8809 4.3838 10.7671
v  27.6298 4.4844 10.8523
v  27.5681 4.4635 11.0769
v  27.9573 5.3035 11.6129
v  28.0875 5.5100 11.8508
v  28.3804 2.9228 11.7086
v  28.0908 4.2061 12.1409
v  27.9482 0.0778 12.4187
v  28.0439 0.0788 12.1705
v  28.9881 0.2483 11.4353
v  28.1572 4.4971 12.4406
v  28.0433 4.5878 12.2552
v  28.1216 4.4000 12.2198
v  28.8631 0.2438 11.6053
v  29.1643 0.5280 11.8279
v  29.1640 5.3034 11.4962
v  29.4770 4.9795 11.7338
v  29.5164 4.6216 11.6667
v  29.3044 4.8465 11.4391
v  28.4086 0.4157 12.7564
v  29.1547 0.5579 12.1678
v  29.1368 0.7172 11.9953
v  28.2177 3.8191 12.5488
v  28.4830 3.9400 13.0373
v  28.3804 4.1557 12.8664
v  29.1539 1.9308 12.2210
v  29.1081 2.0399 11.9668
v  28.8868 2.0504 12.4340
v  28.3527 1.2315 12.7742
v  28.2973 2.5211 12.9721
v  29.2901 5.0435 11.9735
v  29.7053 2.0844 12.1405
v  29.6875 2.2314 11.9607
v  29.5668 2.2600 12.5205
v  29.5712 2.0456 12.3699
v  29.7528 2.4081 12.4040
v  28.4495 2.9082 13.1918
v  28.7549 2.8957 13.4068
v  28.6737 3.4670 13.4048
v  28.6541 2.6606 13.2747
v  29.8164 2.2431 12.8466
v  29.6670 2.1328 13.0003
v  29.2930 2.0985 12.7241
v  29.0881 4.3484 13.0857
v  28.7078 4.2463 13.0543
v  28.7899 4.1524 13.2102
v  30.3456 3.1150 12.8594
v  30.5870 3.3178 13.2215
v  30.8302 3.6022 13.8510
v  30.9336 3.2413 13.9508
v  29.9561 3.2290 14.7039
v  29.5467 3.3179 14.3789
v  29.8853 2.8794 14.5733
v  30.3353 2.5721 14.2317
v  30.2736 2.4601 14.5699
v  30.1160 2.5832 14.5826
v  30.9589 2.4889 14.0521
v  30.6408 2.3507 14.3949
v  31.0792 3.5618 14.1556
v  31.2084 3.1871 14.1264
v  30.7919 2.1474 14.6273
v  30.4193 1.9636 14.8464
v  30.4112 1.7023 15.0347
v  30.1840 2.1582 14.8089
v  30.5627 2.1292 14.8165
v  30.7800 1.9683 15.1489
v  30.2615 2.1552 15.5009
v  30.0560 2.3134 14.9895
v  30.2795 1.7931 15.3922
v  31.6242 1.4780 14.6638
v  31.4517 1.3856 14.6574
v  31.0647 1.9639 14.8761
v  31.0085 1.9568 14.6780
v  30.6450 0.4011 15.4677
v  30.8697 1.1777 15.4543
v  30.6364 1.3198 15.3383
v  30.8917 1.3809 15.4077
v  30.5687 1.8441 15.7378
v  31.7566 1.8154 14.8842
v  31.7214 2.3822 14.6364
v  30.8504 3.0665 15.5443
v  30.7076 3.4100 15.4805
v  30.7585 2.4861 15.6640
v  31.4055 2.8091 15.1219
v  31.5854 3.0951 14.9187
v  30.6484 1.2009 15.8880
v  30.4982 1.3867 15.6303
v  30.9527 1.6262 15.4789
v  31.0551 1.2409 15.6903
v  31.1372 2.6992 15.5490
v  31.2073 2.4739 15.5232
v  31.7461 1.5592 15.1387
v  31.8359 0.3503 15.1005
v  31.8537 0.8808 15.1505
v  27.5874 4.7580 10.9778
v  28.5117 3.3685 11.5046
v  28.1607 3.1944 12.1747
v  29.0224 4.8240 11.4721
v  28.8086 4.7880 11.3268
v  28.9777 5.1407 11.4187
v  29.1007 4.6888 11.4320
v  29.0575 4.9764 11.3672
v  29.0763 4.6873 11.2359
v  29.0481 4.6005 11.4766
v  28.9793 0.0789 11.4458
v  28.8275 0.0934 11.7273
v  27.9850 5.2184 12.2288
v  29.3017 3.8417 11.7339
v  29.0703 3.6013 11.6125
v  28.9486 3.8170 11.5284
v  28.8914 0.2861 11.8533
v  29.0444 0.1429 12.0702
v  28.3184 0.0899 12.6743
v  27.9779 0.1218 12.5407
v  29.1266 0.0971 12.0858
v  29.4917 4.5785 11.7923
v  29.3989 4.4165 11.4841
v  29.1267 1.5541 11.9521
v  28.3667 0.7957 12.5778
v  28.4364 0.7377 12.4849
v  28.5491 2.1358 12.4182
v  29.3227 4.5816 11.7541
v  29.3781 4.7292 11.8966
v  29.3224 0.1407 12.0940
v  28.4534 4.8912 12.6600
v  28.4773 1.7402 12.4662
v  29.2754 0.5227 12.2467
v  29.5410 1.2607 12.0069
v  28.4523 2.1264 13.0381
v  28.5650 4.7064 12.7435
v  29.3839 1.1735 12.3180
v  29.4062 1.9894 12.3992
v  29.1905 1.4851 12.1831
v  29.6631 3.2655 11.8798
v  29.6316 1.8687 12.2389
v  28.6541 2.2577 13.1096
v  29.6879 4.1949 12.2797
v  28.8193 2.4743 13.2345
v  29.2531 2.1953 13.3190
v  29.1837 3.5551 13.9619
v  29.3871 2.6936 14.1214
v  29.2479 2.9281 14.0802
v  29.5239 3.0432 14.3463
v  31.0620 2.9555 13.9883
v  30.4335 2.3340 14.6171
v  30.9304 2.0475 15.0271
v  30.4811 1.4232 15.3614
v  30.6387 1.6341 15.1175
v  30.3029 1.7316 15.1784
v  31.2013 1.9379 15.0053
v  30.9550 3.3806 15.4985
v  30.9805 2.2216 15.4553
v  31.0034 2.1143 15.2450
v  30.9439 2.0386 15.3472
v  30.9467 1.7826 15.4790
v  31.6331 1.9147 15.0386
v  31.6010 2.6276 15.0165
v  31.9108 0.9014 14.9927
v  31.0468 2.9885 15.5074
v  31.4880 1.9707 15.9137
v  31.5214 1.4791 16.1885
v  27.9180 4.3488 11.8166
v  28.0691 4.2021 11.5622
v  28.4787 4.1472 11.3204
v  28.2433 3.9185 11.5408
v  28.0342 4.1603 11.6981
v  28.9263 4.0972 11.5341
v  28.8838 4.2700 11.4192
v  29.1377 5.0255 11.3061
v  29.2315 4.4499 11.3738
v  29.2129 4.5430 11.5405
v  29.2752 4.2098 11.6797
v  29.4005 3.5446 11.7538
v  28.2600 4.5499 12.5911
v  28.1621 4.5747 12.8088
v  28.0372 4.4543 12.6157
v  28.5059 5.3086 12.5179
v  29.5372 4.8345 11.9018
v  28.7009 0.7833 12.5718
v  28.5523 0.6537 12.4611
v  28.3190 4.7500 12.8244
v  28.7777 2.0421 12.9641
v  28.9632 2.1876 12.9141
v  29.5605 2.1157 13.1670
v  29.2565 3.9028 13.7834
v  31.3728 0.0941 14.7143
v  31.4966 3.2484 14.5696
v  31.6655 2.8628 14.6654
v  30.5189 0.3623 15.6385
v  30.6105 1.0818 15.5406
v  31.7112 2.5254 14.8532
v  31.5678 0.6499 14.8983
v  30.8505 0.8312 15.5974
v  30.7026 0.8790 15.5334
v  31.8925 1.1954 15.2089
v  31.8326 1.3951 15.7431
v  31.6889 1.6213 15.6246
v  28.2611 4.2807 11.2911
v  27.9765 4.5242 12.0439
v  27.9889 4.8379 12.2456
v  29.4523 4.4577 12.0142
v  29.6881 3.9026 12.0747
v  28.2991 3.5980 12.8415
v  29.6006 3.7219 14.2643
v  29.9767 3.6989 14.6297
v  29.9459 3.8839 14.3712
v  29.8668 3.5045 14.5982
v  30.0528 2.5797 15.1391
v  30.2480 2.7420 15.4335
v  30.0577 3.1542 15.0387
v  29.9670 2.9052 14.8706
v  30.7653 0.0703 15.6962
v  31.5246 1.0110 14.8459
v  31.3822 1.9810 15.1014
v  31.6715 0.4281 15.1235
v  30.3016 0.0678 15.7438
v  31.4236 2.7512 15.3429
v  31.3319 2.3239 15.7408
v  31.5925 1.9977 15.5647
v  27.6040 4.8189 10.8211
v  28.0600 4.3440 10.8199
v  28.4034 4.3783 11.0797
v  28.8014 3.4882 11.5213
v  28.5706 3.7969 11.4339
v  28.2197 2.7258 12.1465
v  28.3544 2.4007 12.2815
v  28.3905 2.5147 12.0264
v  29.3780 4.4926 11.3392
v  29.2795 4.6970 11.2752
v  28.7654 2.3569 11.8400
v  28.1742 2.7067 12.4026
v  29.0771 2.2366 11.8969
v  28.4750 5.1142 12.5436
v  28.5015 0.1493 12.7049
v  29.2220 2.1074 12.4531
v  29.9409 3.9322 12.4533
v  30.1959 2.9829 12.6644
v  29.3943 2.4147 13.8394
v  30.1456 3.8192 12.7768
v  31.1890 1.6919 14.4434
v  30.6335 0.0635 15.8459
v  30.9555 2.6473 15.5090
v  28.8613 4.5073 11.3146
v  28.5347 4.5603 11.1055
v  29.9702 2.7122 14.4764
v  28.5128 4.8115 11.0888
v  28.6409 4.3330 11.2117
v  29.2461 4.4849 11.2427
v  28.3843 0.2691 12.1230
v  28.7266 0.6412 12.7478
v  29.3609 2.1207 12.4836
v  30.7031 2.1357 14.8145
v  30.6963 0.6324 15.5704
v  28.2301 4.1820 12.5801
v  29.1307 4.4361 11.5927
v  29.5058 4.0852 11.8786
v  28.3979 2.0394 12.4590
v  30.2565 3.9886 14.4480
v  30.0930 3.4583 14.9498
v  28.1580 0.2123 12.0849
v  29.6112 4.1779 12.0382
v  29.6064 3.9460 13.9804
v  30.2690 2.4276 13.2320
v  29.5857 2.5670 11.7976
# 502 vertices

vn -0.3470 -0.1955 0.9173
vn -0.0730 0.6463 0.7596
vn -0.6647 0.4217 0.6167
vn -0.8576 -0.2336 0.4581
vn -0.9157 0.2493 0.3153
vn -0.6598 0.4718 0.5848
vn -0.0658 0.7639 0.6420
vn -0.4815 0.8265 0.2917
vn -0.4434 0.5999 0.6660
vn -0.0250 0.7556 0.6546
vn -0.8693 0.2716 0.4130
vn -0.7281 0.6303 0.2694
vn -0.0093 0.9841 0.1775
vn 0.4994 -0.8448 0.1920
vn 0.6371 -0.0894 0.7655
vn -0.1911 -0.6384 0.7456
vn -0.4628 0.8855 -0.0425
vn 0.7993 -0.0954 0.5933
vn 0.8793 -0.0913 0.4674
vn 0.7252 -0.1812 0.6643
vn -0.1249 0.8803 -0.4576
vn 0.0888 0.9868 -0.1353
vn 0.3781 0.6469 0.6623
vn -0.8076 0.5587 0.1887
vn -0.7958 0.4601 0.3938
vn -0.8506 -0.5115 0.1220
vn -0.5254 0.7480 -0.4055
vn -0.9678 0.0284 -0.2500
vn -0.9194 -0.2328 -0.3172
vn -0.7288 -0.5850 0.3559
vn 0.9231 0.3449 0.1700
vn 0.0905 0.7127 0.6956
vn 0.7441 0.6632 0.0807
vn -0.8858 -0.0937 0.4546
vn -0.1898 -0.1128 0.9753
vn -0.7905 -0.1488 0.5942
vn 0.0736 -0.7995 0.5962
vn 0.3263 -0.9433 -0.0603
vn 0.1413 -0.7961 0.5884
vn -0.5503 0.4574 -0.6986
vn -0.2646 0.5738 -0.7751
vn -0.9444 0.0201 -0.3282
vn -0.2248 -0.2115 -0.9512
vn -0.5414 -0.7222 -0.4306
vn -0.4359 -0.7452 -0.5047
vn -0.9491 -0.2724 0.1579
vn -0.7615 -0.0800 -0.6432
vn -0.9962 0.0044 0.0873
vn 0.3574 0.4552 -0.8155
vn -0.0386 0.5262 -0.8495
vn -0.1733 0.5288 -0.8309
vn 0.4713 -0.1441 -0.8701
vn 0.7188 -0.1381 -0.6814
vn 0.0667 -0.2752 -0.9591
vn -0.6424 -0.5429 -0.5409
vn 0.1748 0.7507 -0.6372
vn -0.5318 0.5040 -0.6806
vn -0.0596 0.8712 -0.4873
vn -0.5623 0.7077 -0.4278
vn -0.4200 0.8533 -0.3091
vn -0.7209 0.6478 -0.2462
vn -0.0732 0.9575 -0.2788
vn -0.5505 0.7854 -0.2830
vn -0.4561 0.8743 -0.1659
vn -0.7173 0.6729 -0.1810
vn -0.8982 0.4121 -0.1526
vn -0.7337 0.6659 -0.1355
vn -0.5227 0.8478 -0.0896
vn -0.0732 0.9907 -0.1147
vn -0.7964 0.5968 -0.0979
vn -0.0751 0.9903 -0.1166
vn -0.5992 0.7709 -0.2160
vn -0.2093 -0.4802 0.8518
vn 0.4493 -0.6035 0.6588
vn 0.3823 -0.6022 0.7009
vn -0.0403 0.9301 -0.3650
vn 0.5003 0.4801 0.7206
vn -0.2947 0.4998 0.8145
vn -0.1448 -0.4222 0.8949
vn -0.7736 0.4907 -0.4009
vn 0.5517 -0.5164 0.6550
vn -0.3232 -0.9343 0.1505
vn -0.8177 -0.3009 0.4907
vn -0.9255 -0.3540 -0.1344
vn -0.4267 0.6742 -0.6028
vn -0.6969 0.5055 -0.5088
vn 0.9441 0.0783 -0.3203
vn 0.6711 0.1871 -0.7174
vn 0.9073 0.3178 -0.2755
vn -0.6459 0.2770 -0.7114
vn -0.8556 0.1129 0.5051
vn -0.9090 0.4154 0.0337
vn -0.4085 0.5806 0.7043
vn -0.9959 -0.0493 -0.0764
vn -0.8935 0.1447 -0.4250
vn -0.8862 -0.1847 0.4249
vn 0.2498 0.6635 -0.7053
vn -0.7047 0.0431 -0.7082
vn 0.0726 0.3449 -0.9358
vn -0.0530 -0.2196 -0.9741
vn -0.8712 -0.1709 -0.4602
vn -0.5012 -0.2802 -0.8187
vn 0.6233 -0.0798 -0.7779
vn -0.5943 0.1965 -0.7799
vn 0.6117 0.1873 -0.7686
vn 0.1268 0.4756 -0.8705
vn -0.8095 0.2118 -0.5477
vn -0.6677 0.4597 -0.5855
vn -0.2034 -0.0724 -0.9764
vn -0.9252 -0.0818 -0.3705
vn -0.4287 -0.6900 -0.5831
vn 0.5174 -0.7856 0.3393
vn 0.4462 -0.8253 0.3462
vn 0.0084 -0.9938 0.1112
vn 0.5431 0.5633 0.6227
vn 0.9000 0.2305 0.3699
vn 0.8710 0.2653 0.4135
vn 0.9370 -0.2073 0.2813
vn 0.9579 -0.0069 0.2870
vn 0.2982 -0.1907 0.9352
vn 0.6613 -0.1915 0.7252
vn 0.8109 0.4302 0.3968
vn -0.2910 0.1318 0.9476
vn 0.9665 0.0223 0.2556
vn 0.7436 -0.0509 0.6667
vn 0.8356 0.0486 0.5472
vn -0.5101 -0.7690 0.3852
vn -0.6899 -0.3233 0.6477
vn 0.9675 -0.1772 -0.1804
vn 0.9840 0.1780 -0.0050
vn 0.8018 0.4768 0.3603
vn 0.2691 0.4783 0.8360
vn -0.8674 0.0523 0.4949
vn -0.6001 -0.1556 0.7847
vn -0.7830 0.0571 0.6194
vn 0.4112 0.9097 -0.0579
vn 0.7010 0.6386 0.3175
vn 0.7423 0.6620 0.1041
vn -0.7006 -0.1452 0.6986
vn -0.4212 -0.3543 0.8349
vn -0.4535 -0.3260 0.8295
vn 0.8314 0.0194 0.5554
vn 0.9686 0.1456 0.2014
vn 0.8555 0.1218 0.5032
vn 0.5403 0.6091 -0.5806
vn 0.2096 0.7602 -0.6149
vn 0.7011 -0.1732 0.6917
vn 0.9724 -0.0280 0.2317
vn -0.6906 0.1228 0.7127
vn 0.0376 0.1451 0.9887
vn 0.7129 0.3665 -0.5979
vn 0.0828 0.2185 -0.9723
vn 0.5578 -0.1869 -0.8086
vn 0.9523 0.2572 -0.1642
vn 0.7112 0.5002 -0.4939
vn -0.0472 -0.9719 -0.2307
vn -0.5128 -0.8573 0.0462
vn 0.4068 0.5224 -0.7494
vn -0.9801 -0.1027 -0.1697
vn -0.9910 0.1175 -0.0648
vn -0.9786 -0.1442 -0.1467
vn 0.6527 0.7072 -0.2718
vn 0.9106 0.3935 -0.1266
vn 0.9019 0.4056 -0.1484
vn -0.9159 -0.3410 -0.2116
vn -0.8495 -0.5270 -0.0232
vn -0.7552 -0.6512 -0.0752
vn 0.9609 -0.2768 -0.0107
vn 0.9871 -0.1591 0.0185
vn 0.8582 -0.5132 -0.0023
vn 0.9970 0.0048 -0.0775
vn -0.9850 -0.1529 -0.0804
vn -0.8508 -0.4808 -0.2121
vn -0.9468 -0.3217 -0.0101
vn 0.3842 0.8848 -0.2636
vn 0.3480 0.9265 -0.1430
vn -0.4558 -0.8434 -0.2846
vn 0.0012 -0.9565 -0.2918
vn -0.3618 -0.9057 -0.2211
vn -0.0154 -0.8794 -0.4759
vn 0.3342 -0.8930 -0.3015
vn 0.1649 -0.9439 -0.2863
vn 0.5609 -0.7416 -0.3679
vn -0.9705 0.1244 -0.2065
vn -0.9610 -0.2764 0.0002
vn -0.9644 -0.1059 -0.2424
vn -0.7850 -0.4734 0.3995
vn -0.1706 -0.9005 0.4000
vn -0.9894 0.1452 -0.0052
vn -0.9919 -0.0833 0.0962
vn -0.9140 -0.1335 0.3832
vn -0.8031 -0.3531 0.4799
vn 0.7692 0.5803 -0.2675
vn 0.4611 0.8655 -0.1955
vn 0.7511 0.6509 -0.1105
vn 0.6612 -0.5184 0.5423
vn 0.6556 -0.4618 0.5974
vn 0.9295 -0.3426 0.1370
vn -0.5052 -0.2483 0.8265
vn -0.6744 -0.7382 -0.0172
vn 0.1765 -0.9759 0.1286
vn 0.8579 -0.5010 -0.1142
vn 0.6115 0.4883 0.6226
vn 0.6742 0.3387 0.6563
vn -0.9937 0.0808 0.0772
vn -0.1753 0.5294 0.8301
vn 0.9792 -0.1704 0.1104
vn 0.7573 -0.2783 0.5909
vn 0.4489 -0.5191 -0.7274
vn 0.1867 -0.1124 -0.9760
vn -0.1299 -0.3252 -0.9367
vn 0.8528 0.2155 -0.4758
vn 0.9152 -0.0097 -0.4029
vn -0.6948 -0.2503 -0.6742
vn 0.1639 -0.7627 -0.6257
vn 0.7072 0.2877 -0.6458
vn 0.5579 0.6983 -0.4485
vn 0.9278 -0.0677 -0.3669
vn -0.3781 -0.5102 -0.7725
vn 0.2286 -0.7455 -0.6261
vn -0.2062 -0.6320 0.7470
vn 0.9437 0.0196 0.3302
vn 0.7856 -0.2556 -0.5635
vn -0.7469 -0.6624 -0.0582
vn 0.7083 -0.2836 -0.6464
vn 0.8994 0.0871 0.4283
vn 0.9368 0.3413 -0.0770
vn 0.5427 0.2465 -0.8029
vn -0.2404 0.0539 -0.9692
vn -0.1921 0.2098 -0.9587
vn 0.3202 0.2953 -0.9001
vn 0.4223 0.0908 -0.9019
vn 0.9466 -0.0336 0.3206
vn 0.1794 -0.4096 0.8945
vn 0.7488 -0.5383 0.3867
vn 0.0121 -0.9932 0.1156
vn 0.4383 -0.7380 -0.5131
vn 0.2998 0.1069 -0.9480
vn -0.2505 -0.7454 0.6177
vn 0.2844 -0.4345 0.8546
vn 0.8240 -0.2771 0.4943
vn 0.4817 0.5289 0.6987
vn 0.5035 0.7788 0.3741
vn 0.0617 -0.3267 0.9431
vn 0.9193 -0.1521 0.3629
vn 0.5982 -0.6745 0.4327
vn 0.0707 -0.6814 0.7285
vn -0.2458 0.4046 0.8808
vn 0.5744 -0.7926 0.2045
vn 0.5071 -0.5188 0.6882
vn 0.9411 -0.1413 0.3073
vn 0.4744 0.3677 0.7998
vn -0.1693 0.1047 0.9800
vn -0.8010 0.5438 0.2505
vn -0.9296 0.2785 -0.2414
vn -0.8944 -0.1179 -0.4314
vn -0.9458 0.3159 -0.0753
vn 0.8919 -0.0504 -0.4493
vn 0.9966 0.0797 -0.0226
vn 0.7025 0.1263 0.7004
vn 0.9410 0.0521 0.3343
vn 0.9729 0.2302 -0.0213
vn 0.9732 0.2276 -0.0327
vn 0.8451 -0.5306 0.0644
vn 0.4271 -0.3693 0.8254
vn -0.0078 -0.9924 -0.1224
vn 0.9800 -0.1289 0.1518
vn 0.9909 -0.1235 0.0537
vn -0.2474 0.2784 -0.9280
vn -0.7284 -0.2424 -0.6409
vn -0.9812 -0.1593 -0.1092
vn -0.3444 -0.7978 -0.4949
vn -0.0391 -0.3389 -0.9400
vn -0.4706 -0.6092 -0.6382
vn 0.9889 -0.0521 -0.1393
vn 0.9656 -0.2256 -0.1293
vn 0.9940 0.0978 -0.0481
vn 0.8394 -0.2971 -0.4551
vn -0.5989 -0.8005 -0.0227
vn -0.3062 -0.9500 -0.0618
vn -0.0227 -0.9997 0.0098
vn 0.4359 0.7882 -0.4344
vn 0.7995 0.5179 -0.3043
vn 0.7502 0.6274 -0.2087
vn -0.9982 -0.0486 -0.0351
vn -0.9810 0.1402 -0.1341
vn -0.9510 0.2953 -0.0913
vn -0.9927 0.1019 0.0639
vn 0.9969 0.0291 0.0733
vn 0.9751 0.1020 -0.1971
vn 0.9479 -0.3089 0.0774
vn -0.0064 -0.9901 0.1405
vn -0.0328 -0.6675 0.7439
vn 0.3431 -0.6891 0.6383
vn -0.4913 -0.4279 0.7586
vn 0.1335 -0.7007 0.7009
vn -0.9335 0.3585 -0.0008
vn -0.9680 0.2102 0.1373
vn 0.4247 -0.7759 0.4664
vn -0.5752 -0.5460 0.6091
vn -0.1526 -0.6517 0.7430
vn 0.1855 -0.4902 0.8517
vn -0.6377 -0.6600 0.3971
vn -0.8093 -0.5859 0.0419
vn 0.9953 -0.0855 0.0453
vn 0.7533 -0.2901 0.5902
vn 0.8757 -0.3058 0.3736
vn -0.8659 -0.2861 0.4102
vn -0.4040 -0.5687 0.7165
vn 0.7175 -0.6734 0.1784
vn 0.8094 -0.5118 0.2880
vn -0.6159 0.5443 0.5696
vn -0.9075 -0.3093 0.2843
vn -0.4125 -0.5599 0.7186
vn -0.9673 -0.1969 0.1596
vn 0.8581 0.0791 -0.5074
vn -0.6767 0.1890 -0.7116
vn -0.9391 0.0667 -0.3371
vn 0.4366 0.1249 -0.8910
vn 0.7143 0.3837 -0.5853
vn 0.2675 0.0901 -0.9593
vn -0.3754 -0.1152 -0.9197
vn -0.5721 0.2144 -0.7917
vn 0.9705 0.0252 -0.2396
vn 0.9211 -0.1864 0.3419
vn -0.9156 0.1002 -0.3893
vn -0.8746 -0.0710 -0.4797
vn 0.9185 -0.2059 -0.3375
vn 0.6252 -0.4518 0.6363
vn 0.0196 0.4308 -0.9022
vn 0.0988 -0.2800 -0.9549
vn -0.1614 -0.1639 -0.9732
vn 0.8229 0.3054 0.4792
vn -0.3797 -0.1956 0.9042
vn 0.6713 -0.0840 0.7364
vn -0.5092 -0.1548 0.8466
vn -0.9618 -0.0025 0.2738
vn -0.7659 0.2410 0.5961
vn 0.3733 -0.4125 0.8309
vn 0.2229 -0.0339 0.9743
vn 0.1059 -0.1594 0.9815
vn -0.8380 -0.2539 0.4830
vn -0.1558 -0.6410 0.7516
vn 0.6850 -0.5856 0.4334
vn 0.5078 0.4003 0.7628
vn -0.9500 -0.0047 0.3123
vn -0.8773 0.0323 0.4788
vn -0.8499 -0.0467 0.5249
vn 0.9008 0.3093 0.3048
vn 0.9190 -0.3522 -0.1773
vn 0.4951 -0.7435 -0.4495
vn 0.9331 -0.3466 -0.0961
vn 0.4792 -0.7800 -0.4026
vn -0.0874 -0.6617 -0.7446
vn -0.2818 -0.9302 -0.2354
vn 0.6168 -0.0398 0.7861
vn 0.6382 0.0248 0.7695
vn -0.2305 0.2299 0.9455
vn -0.2483 -0.7109 0.6580
vn -0.3825 -0.8630 -0.3302
vn -0.3161 -0.1396 -0.9384
vn 0.0143 -0.6219 -0.7830
vn 0.3454 0.2940 -0.8912
vn -0.7750 0.0062 0.6319
vn 0.6962 -0.1708 -0.6972
vn -0.9743 -0.1284 -0.1851
vn 0.8901 -0.1965 -0.4113
vn 0.7524 0.3829 -0.5361
vn 0.6998 -0.0741 -0.7105
vn 0.5990 -0.3665 -0.7120
vn 0.9968 -0.0441 0.0673
vn -0.9859 0.1016 0.1326
vn -0.4115 -0.1170 -0.9039
vn 0.4603 -0.4176 -0.7834
vn -0.8265 0.4944 -0.2692
vn 0.7497 -0.5654 -0.3440
vn 0.4684 -0.8815 -0.0595
vn 0.9532 0.2776 -0.1198
vn 0.8699 -0.4566 -0.1864
vn 0.9823 -0.1667 -0.0857
vn 0.9627 -0.1239 -0.2403
vn -0.9448 -0.0106 0.3274
vn -0.2067 -0.6979 0.6858
vn 0.0459 -0.9987 -0.0214
vn 0.4223 -0.5970 0.6821
vn -0.8356 -0.4069 0.3690
vn 0.5386 -0.5142 0.6674
vn 0.8470 -0.4374 -0.3020
vn 0.7489 0.1888 -0.6352
vn -0.4110 -0.1664 -0.8963
vn -0.3186 -0.7314 -0.6030
vn -0.8420 -0.3719 -0.3908
vn -0.7615 -0.0380 -0.6470
vn 0.0842 0.1325 -0.9876
vn -0.1011 0.0864 -0.9911
vn -0.8717 -0.0093 -0.4900
vn 0.7635 0.0037 -0.6458
vn 0.7846 0.3892 -0.4827
vn 0.8716 0.0316 -0.4892
vn 0.8670 -0.3612 0.3432
vn 0.1357 -0.6711 0.7289
vn -0.4665 -0.5706 0.6758
vn 0.0814 -0.3090 0.9476
vn 0.6080 -0.5433 0.5790
vn -0.8795 -0.1367 0.4558
vn -0.8937 -0.3631 0.2635
vn -0.6701 0.3679 0.6447
vn 0.4174 -0.8489 0.3243
vn 0.0305 -0.9737 0.2259
vn -0.9642 0.0869 0.2506
vn -0.9248 0.1742 0.3382
vn 0.6250 -0.6216 -0.4722
vn 0.5980 -0.4832 -0.6394
vn 0.2428 -0.9178 -0.3140
vn 0.3142 0.3286 -0.8907
vn -0.3047 -0.0410 -0.9516
vn -0.9958 0.0024 -0.0911
vn -0.8296 0.2293 0.5090
vn 0.2478 -0.1118 -0.9623
vn -0.1033 -0.3254 -0.9399
vn 0.1363 -0.9179 -0.3725
vn 0.0591 -0.9919 -0.1123
vn 0.7343 0.6490 -0.1990
vn 0.6627 -0.4675 0.5851
vn -0.9032 0.3525 -0.2450
vn -0.8795 0.2274 -0.4180
vn 0.5212 0.6028 0.6042
vn 0.3969 -0.3236 0.8589
vn -0.5958 0.1064 -0.7960
vn 0.0056 0.0891 0.9960
vn -0.9688 -0.2229 0.1081
vn -0.2950 -0.3440 0.8914
vn -0.3623 0.0798 -0.9286
vn -0.5925 -0.6641 0.4560
vn -0.5672 -0.3610 0.7403
vn -0.0732 -0.8983 0.4333
vn 0.9616 -0.0669 0.2662
vn -0.3862 -0.1060 0.9163
vn -0.9179 0.3039 -0.2553
vn -0.9826 0.1852 0.0098
vn 0.9642 0.1912 0.1838
vn 0.8504 0.5036 -0.1523
vn 0.8715 0.4868 -0.0599
vn 0.6350 0.7653 -0.1055
vn 0.9764 0.1900 -0.1031
vn 0.9603 -0.0412 0.2759
vn 0.9908 0.1319 -0.0307
vn 0.9713 0.1859 0.1482
vn 0.9422 0.0338 0.3335
vn -0.4647 -0.6974 -0.5455
vn -0.1617 -0.3250 0.9318
vn 0.6316 -0.1071 -0.7678
vn 0.8202 -0.2598 -0.5097
vn 0.9009 -0.4215 0.1038
vn -0.9445 -0.2791 -0.1735
vn 0.9668 0.1043 -0.2335
vn -0.8710 -0.1063 0.4797
vn 0.4544 0.3808 0.8053
vn -0.4846 -0.8164 0.3141
vn -0.7200 -0.6177 0.3164
vn -0.7491 -0.0953 0.6556
vn -0.5558 -0.1955 0.8080
vn 0.5247 -0.2875 0.8013
vn 0.3358 -0.5054 0.7949
vn 0.2445 -0.5296 0.8123
vn -0.9553 -0.2957 0.0011
vn -0.9294 0.2396 0.2806
vn -0.1568 -0.6258 0.7641
vn 0.6508 -0.2160 0.7279
vn -0.0188 -0.4865 0.8735
vn 0.3192 0.2791 -0.9057
vn 0.2284 -0.5821 -0.7803
vn 0.3386 -0.9039 -0.2612
vn -0.9221 0.3586 -0.1455
vn -0.9855 -0.1697 -0.0064
vn 0.6632 -0.7332 -0.1501
vn -0.8832 0.4387 -0.1658
vn -0.2054 -0.6153 0.7611
vn 0.1736 -0.7839 -0.5961
vn 0.2325 -0.1167 -0.9656
vn -0.9674 -0.0734 0.2426
vn -0.9482 -0.0929 0.3039
vn 0.7209 -0.6922 -0.0333
vn -0.9411 0.0767 0.3294
vn -0.8282 -0.4395 0.3477
vn -0.4416 -0.5709 0.6922
vn -0.7973 0.3928 0.4582
vn -0.6131 -0.1355 -0.7783
vn 0.1084 -0.8300 -0.5471
vn -0.1238 -0.9014 0.4148
vn 0.0164 0.3038 0.9526
vn 0.9785 0.0292 0.2039
vn -0.9378 -0.2798 0.2055
vn -0.9862 0.1059 0.1273
vn -0.2523 -0.2535 0.9338
vn 0.4317 0.8991 -0.0731
vn 0.9485 0.3167 0.0072
vn -0.3805 0.2243 0.8972
vn -0.9403 0.3130 -0.1336
vn 0.5849 0.7915 -0.1772
vn -0.6572 -0.7273 -0.1979
vn -0.9780 -0.0607 0.1995
# 502 vertex normals

vt 0.5765 0.6600 0.0000
vt 0.6070 0.6807 0.0000
vt 0.5862 0.6845 0.0000
vt 0.4573 0.4923 0.0000
vt 0.4401 0.5113 0.0000
vt 0.4276 0.4706 0.0000
vt 0.4590 0.4984 0.0000
vt 0.4700 0.4548 0.0000
vt 0.4912 0.4813 0.0000
vt 0.5475 0.4868 0.0000
vt 0.9805 0.1596 0.0000
vt 0.9607 0.1666 0.0000
vt 0.9357 0.0944 0.0000
vt 0.9747 0.0832 0.0000
vt 0.9440 0.0037 0.0000
vt 0.9525 0.0406 0.0000
vt 0.9171 0.0492 0.0000
vt 0.9834 0.0350 0.0000
vt 0.6096 0.9428 0.0000
vt 0.6392 0.9631 0.0000
vt 0.5975 0.9852 0.0000
vt 0.8956 0.0016 0.0000
vt 0.3631 0.6622 0.0000
vt 0.3422 0.6428 0.0000
vt 0.3542 0.6414 0.0000
vt 0.6554 0.9448 0.0000
vt 0.2263 0.1918 0.0000
vt 0.1906 0.1939 0.0000
vt 0.2154 0.1688 0.0000
vt 0.6214 0.8959 0.0000
vt 0.6795 0.9070 0.0000
vt 0.6534 0.8811 0.0000
vt 0.7321 0.4088 0.0000
vt 0.7387 0.3673 0.0000
vt 0.7771 0.3638 0.0000
vt 0.9941 0.0411 0.0000
vt 0.9984 0.0877 0.0000
vt 0.9787 0.0786 0.0000
vt 0.6849 0.9580 0.0000
vt 0.0172 0.2538 0.0000
vt 0.0017 0.2156 0.0000
vt 0.0386 0.1735 0.0000
vt 0.8543 0.0372 0.0000
vt 0.8684 0.0616 0.0000
vt 0.8393 0.0622 0.0000
vt 0.0136 0.3638 0.0000
vt 0.0256 0.4169 0.0000
vt 0.0015 0.5065 0.0000
vt 0.8768 0.5488 0.0000
vt 0.8661 0.5774 0.0000
vt 0.8365 0.5388 0.0000
vt 0.7095 0.9893 0.0000
vt 0.6981 0.9460 0.0000
vt 0.6645 0.3621 0.0000
vt 0.6470 0.3335 0.0000
vt 0.7189 0.3619 0.0000
vt 0.2795 0.1020 0.0000
vt 0.2693 0.1067 0.0000
vt 0.2355 0.0831 0.0000
vt 0.1250 0.3929 0.0000
vt 0.0816 0.3918 0.0000
vt 0.1014 0.3606 0.0000
vt 0.1336 0.8968 0.0000
vt 0.0913 0.9395 0.0000
vt 0.0804 0.8874 0.0000
vt 0.9974 0.2146 0.0000
vt 0.9969 0.3523 0.0000
vt 0.9830 0.3621 0.0000
vt 0.1093 0.4270 0.0000
vt 0.1067 0.9764 0.0000
vt 0.0543 0.9543 0.0000
vt 0.7018 0.3017 0.0000
vt 0.7751 0.3195 0.0000
vt 0.7238 0.3371 0.0000
vt 0.7403 0.2699 0.0000
vt 0.7016 0.2609 0.0000
vt 0.7449 0.2329 0.0000
vt 0.6453 0.2614 0.0000
vt 0.6825 0.2290 0.0000
vt 0.6173 0.2108 0.0000
vt 0.6610 0.1904 0.0000
vt 0.6268 0.1480 0.0000
vt 0.5835 0.1600 0.0000
vt 0.5420 0.1725 0.0000
vt 0.5612 0.2211 0.0000
vt 0.4967 0.1167 0.0000
vt 0.4772 0.1863 0.0000
vt 0.4555 0.1280 0.0000
vt 0.0721 0.0431 0.0000
vt 0.0414 0.0585 0.0000
vt 0.0454 0.0279 0.0000
vt 0.3975 0.1464 0.0000
vt 0.3821 0.3577 0.0000
vt 0.3560 0.3634 0.0000
vt 0.3636 0.3448 0.0000
vt 0.4288 0.0762 0.0000
vt 0.6290 0.7666 0.0000
vt 0.6151 0.7495 0.0000
vt 0.6346 0.7285 0.0000
vt 0.6169 0.7259 0.0000
vt 0.6293 0.7079 0.0000
vt 0.3770 0.1068 0.0000
vt 0.3990 0.0947 0.0000
vt 0.2912 0.7235 0.0000
vt 0.2518 0.7352 0.0000
vt 0.2118 0.6967 0.0000
vt 0.3578 0.0776 0.0000
vt 0.9159 0.5115 0.0000
vt 0.8823 0.5451 0.0000
vt 0.8719 0.5147 0.0000
vt 0.4693 0.8776 0.0000
vt 0.4157 0.9107 0.0000
vt 0.4063 0.8776 0.0000
vt 0.3527 0.1232 0.0000
vt 0.1325 0.6275 0.0000
vt 0.1453 0.6768 0.0000
vt 0.1091 0.6499 0.0000
vt 0.6651 0.4064 0.0000
vt 0.6243 0.3998 0.0000
vt 0.6703 0.3737 0.0000
vt 0.6331 0.3737 0.0000
vt 0.0738 0.3827 0.0000
vt 0.0527 0.3897 0.0000
vt 0.0338 0.3198 0.0000
vt 0.5242 0.0605 0.0000
vt 0.5901 0.0843 0.0000
vt 0.5165 0.0845 0.0000
vt 0.5420 0.3900 0.0000
vt 0.5445 0.4137 0.0000
vt 0.4647 0.4075 0.0000
vt 0.5035 0.0516 0.0000
vt 0.4455 0.0357 0.0000
vt 0.5238 0.0357 0.0000
vt 0.4474 0.6881 0.0000
vt 0.4488 0.7194 0.0000
vt 0.4261 0.6868 0.0000
vt 0.4872 0.7626 0.0000
vt 0.1019 0.6875 0.0000
vt 0.1097 0.6584 0.0000
vt 0.1550 0.6906 0.0000
vt 0.0519 0.1820 0.0000
vt 0.0306 0.1607 0.0000
vt 0.0516 0.1657 0.0000
vt 0.3810 0.9204 0.0000
vt 0.3578 0.9739 0.0000
vt 0.3364 0.9337 0.0000
vt 0.4933 0.2443 0.0000
vt 0.4758 0.2231 0.0000
vt 0.5398 0.2402 0.0000
vt 0.1268 0.0917 0.0000
vt 0.1073 0.1105 0.0000
vt 0.0883 0.0790 0.0000
vt 0.7909 0.0838 0.0000
vt 0.8122 0.0544 0.0000
vt 0.8375 0.0645 0.0000
vt 0.3013 0.6039 0.0000
vt 0.3317 0.6148 0.0000
vt 0.0836 0.1423 0.0000
vt 0.0764 0.1676 0.0000
vt 0.0379 0.1564 0.0000
vt 0.3414 0.4178 0.0000
vt 0.3634 0.3996 0.0000
vt 0.3600 0.4236 0.0000
vt 0.2938 0.9645 0.0000
vt 0.2646 0.9709 0.0000
vt 0.2681 0.9398 0.0000
vt 0.6089 0.9330 0.0000
vt 0.5577 0.9065 0.0000
vt 0.6115 0.9030 0.0000
vt 0.5587 0.9528 0.0000
vt 0.5874 0.9855 0.0000
vt 0.5574 0.9822 0.0000
vt 0.9402 0.9152 0.0000
vt 0.9163 0.8917 0.0000
vt 0.9351 0.8736 0.0000
vt 0.0221 0.5359 0.0000
vt 0.0331 0.4874 0.0000
vt 0.0647 0.5230 0.0000
vt 0.2795 0.2412 0.0000
vt 0.2496 0.2748 0.0000
vt 0.2376 0.2304 0.0000
vt 0.9746 0.8745 0.0000
vt 0.9789 0.9214 0.0000
vt 0.3896 0.2749 0.0000
vt 0.3001 0.2821 0.0000
vt 0.3396 0.5804 0.0000
vt 0.4253 0.6820 0.0000
vt 0.4151 0.6882 0.0000
vt 0.1768 0.8707 0.0000
vt 0.2002 0.9109 0.0000
vt 0.1751 0.8952 0.0000
vt 0.0839 0.2438 0.0000
vt 0.1161 0.2590 0.0000
vt 0.0954 0.2906 0.0000
vt 0.8397 0.6056 0.0000
vt 0.8084 0.6086 0.0000
vt 0.8237 0.5764 0.0000
vt 0.1367 0.9495 0.0000
vt 0.1620 0.9816 0.0000
vt 0.6564 0.5046 0.0000
vt 0.7318 0.5707 0.0000
vt 0.6815 0.5500 0.0000
vt 0.3911 0.4830 0.0000
vt 0.3930 0.4398 0.0000
vt 0.4210 0.4670 0.0000
vt 0.8105 0.3948 0.0000
vt 0.8418 0.3593 0.0000
vt 0.8506 0.3987 0.0000
vt 0.2845 0.4516 0.0000
vt 0.2637 0.4104 0.0000
vt 0.3223 0.4223 0.0000
vt 0.2352 0.4536 0.0000
vt 0.6546 0.6528 0.0000
vt 0.6247 0.6646 0.0000
vt 0.6379 0.6238 0.0000
vt 0.3610 0.5656 0.0000
vt 0.3904 0.5325 0.0000
vt 0.4353 0.5922 0.0000
vt 0.8904 0.8424 0.0000
vt 0.8469 0.7619 0.0000
vt 0.8785 0.7475 0.0000
vt 0.8421 0.8094 0.0000
vt 0.8101 0.7788 0.0000
vt 0.8157 0.8469 0.0000
vt 0.7834 0.8261 0.0000
vt 0.6955 0.7297 0.0000
vt 0.6428 0.7510 0.0000
vt 0.6604 0.7164 0.0000
vt 0.9109 0.8853 0.0000
vt 0.8719 0.8830 0.0000
vt 0.6120 0.8544 0.0000
vt 0.5384 0.8481 0.0000
vt 0.5743 0.8043 0.0000
vt 0.5041 0.8209 0.0000
vt 0.5912 0.6963 0.0000
vt 0.5461 0.7042 0.0000
vt 0.5537 0.6586 0.0000
vt 0.8066 0.3200 0.0000
vt 0.8186 0.2625 0.0000
vt 0.8256 0.3004 0.0000
vt 0.8305 0.9116 0.0000
vt 0.8239 0.9407 0.0000
vt 0.7980 0.9098 0.0000
vt 0.7590 0.1244 0.0000
vt 0.7692 0.1586 0.0000
vt 0.7462 0.1551 0.0000
vt 0.2043 0.9564 0.0000
vt 0.2138 0.9792 0.0000
vt 0.1649 0.9792 0.0000
vt 0.8421 0.2350 0.0000
vt 0.8132 0.2064 0.0000
vt 0.3524 0.1185 0.0000
vt 0.3195 0.1261 0.0000
vt 0.3337 0.0952 0.0000
vt 0.8670 0.2512 0.0000
vt 0.8635 0.2840 0.0000
vt 0.2819 0.8840 0.0000
vt 0.2742 0.8476 0.0000
vt 0.2930 0.8673 0.0000
vt 0.9281 0.4428 0.0000
vt 0.8923 0.4619 0.0000
vt 0.8914 0.4536 0.0000
vt 0.7752 0.9459 0.0000
vt 0.6228 0.7641 0.0000
vt 0.6009 0.7737 0.0000
vt 0.5901 0.7431 0.0000
vt 0.8633 0.2208 0.0000
vt 0.2889 0.1000 0.0000
vt 0.3039 0.0746 0.0000
vt 0.2842 0.2370 0.0000
vt 0.2780 0.2131 0.0000
vt 0.2981 0.2247 0.0000
vt 0.7951 0.1657 0.0000
vt 0.8432 0.1824 0.0000
vt 0.0037 0.0028 0.0000
vt 0.0242 0.0016 0.0000
vt 0.0017 0.0146 0.0000
vt 0.5677 0.8032 0.0000
vt 0.4965 0.7821 0.0000
vt 0.5534 0.7865 0.0000
vt 0.4732 0.0518 0.0000
vt 0.4804 0.0786 0.0000
vt 0.4106 0.0576 0.0000
vt 0.4146 0.0392 0.0000
vt 0.8799 0.2142 0.0000
vt 0.1023 0.4638 0.0000
vt 0.1145 0.4880 0.0000
vt 0.0696 0.5176 0.0000
vt 0.4795 0.2673 0.0000
vt 0.5055 0.2875 0.0000
vt 0.4773 0.2875 0.0000
vt 0.5228 0.7499 0.0000
vt 0.5065 0.7437 0.0000
vt 0.5586 0.6366 0.0000
vt 0.5921 0.6034 0.0000
vt 0.5911 0.6292 0.0000
vt 0.6073 0.6108 0.0000
vt 0.8848 0.0818 0.0000
vt 0.8877 0.9166 0.0000
vt 0.8535 0.9142 0.0000
vt 0.8688 0.8859 0.0000
vt 0.6775 0.1463 0.0000
vt 0.7149 0.0942 0.0000
vt 0.7323 0.1495 0.0000
vt 0.1510 0.1796 0.0000
vt 0.1935 0.1537 0.0000
vt 0.6458 0.1277 0.0000
vt 0.6127 0.1355 0.0000
vt 0.6233 0.1167 0.0000
vt 0.6380 0.1501 0.0000
vt 0.8567 0.1425 0.0000
vt 0.8602 0.2059 0.0000
vt 0.8284 0.1509 0.0000
vt 0.1098 0.2091 0.0000
vt 0.1026 0.1809 0.0000
vt 0.1257 0.1862 0.0000
vt 0.8781 0.1538 0.0000
vt 0.5874 0.9458 0.0000
vt 0.4988 0.0081 0.0000
vt 0.4679 0.0015 0.0000
vt 0.5099 0.0015 0.0000
vt 0.6534 0.9888 0.0000
vt 0.4827 0.9098 0.0000
vt 0.5239 0.8914 0.0000
vt 0.5176 0.9385 0.0000
vt 0.5411 0.9511 0.0000
vt 0.5732 0.9395 0.0000
vt 0.3792 0.8538 0.0000
vt 0.3713 0.8280 0.0000
vt 0.3998 0.8268 0.0000
vt 0.0320 0.2981 0.0000
vt 0.1905 0.2364 0.0000
vt 0.1655 0.3019 0.0000
vt 0.1428 0.2737 0.0000
vt 0.8846 0.5759 0.0000
vt 0.9013 0.5506 0.0000
vt 0.8431 0.5773 0.0000
vt 0.5024 0.3148 0.0000
vt 0.3415 0.3077 0.0000
vt 0.7274 0.9262 0.0000
vt 0.6079 0.3359 0.0000
vt 0.6189 0.2894 0.0000
vt 0.6477 0.3182 0.0000
vt 0.6022 0.3315 0.0000
vt 0.5702 0.3462 0.0000
vt 0.3813 0.4049 0.0000
vt 0.4673 0.3823 0.0000
vt 0.4549 0.4071 0.0000
vt 0.4171 0.6623 0.0000
vt 0.4305 0.6395 0.0000
vt 0.4422 0.6831 0.0000
vt 0.2894 0.3335 0.0000
vt 0.2852 0.3767 0.0000
vt 0.2158 0.3606 0.0000
vt 0.3169 0.3606 0.0000
vt 0.8989 0.6926 0.0000
vt 0.8718 0.6931 0.0000
vt 0.8585 0.6372 0.0000
vt 0.3413 0.4864 0.0000
vt 0.3486 0.4382 0.0000
vt 0.3684 0.4490 0.0000
vt 0.6815 0.6201 0.0000
vt 0.6990 0.6768 0.0000
vt 0.7248 0.7615 0.0000
vt 0.6781 0.7726 0.0000
vt 0.2143 0.5852 0.0000
vt 0.2117 0.5223 0.0000
vt 0.2598 0.5734 0.0000
vt 0.6936 0.9060 0.0000
vt 0.7275 0.8897 0.0000
vt 0.7427 0.9068 0.0000
vt 0.8767 0.1678 0.0000
vt 0.9137 0.1848 0.0000
vt 0.8669 0.2045 0.0000
vt 0.7129 0.8089 0.0000
vt 0.6648 0.8090 0.0000
vt 0.0242 0.0263 0.0000
vt 0.0408 0.0016 0.0000
vt 0.4260 0.2292 0.0000
vt 0.3923 0.2083 0.0000
vt 0.4603 0.2173 0.0000
vt 0.4332 0.2552 0.0000
vt 0.3853 0.2611 0.0000
vt 0.3300 0.7059 0.0000
vt 0.3208 0.6373 0.0000
vt 0.3760 0.7027 0.0000
vt 0.9329 0.3513 0.0000
vt 0.9090 0.3516 0.0000
vt 0.9291 0.2786 0.0000
vt 0.8445 0.3408 0.0000
vt 0.8228 0.3516 0.0000
vt 0.7961 0.2094 0.0000
vt 0.7773 0.2239 0.0000
vt 0.7583 0.2002 0.0000
vt 0.2920 0.2152 0.0000
vt 0.3263 0.2019 0.0000
vt 0.3112 0.2311 0.0000
vt 0.3620 0.7568 0.0000
vt 0.9982 0.7758 0.0000
vt 0.9759 0.7919 0.0000
vt 0.9653 0.7095 0.0000
vt 0.3028 0.0015 0.0000
vt 0.2574 0.0257 0.0000
vt 0.2171 0.0044 0.0000
vt 0.3315 0.0270 0.0000
vt 0.4131 0.0233 0.0000
vt 0.2651 0.1169 0.0000
vt 0.2217 0.1391 0.0000
vt 0.2166 0.1018 0.0000
vt 0.4376 0.7890 0.0000
vt 0.4203 0.7492 0.0000
vt 0.9200 0.5290 0.0000
vt 0.9260 0.4745 0.0000
vt 0.9476 0.5122 0.0000
vt 0.9444 0.6484 0.0000
vt 0.9648 0.6490 0.0000
vt 0.9590 0.6727 0.0000
vt 0.1403 0.3951 0.0000
vt 0.1554 0.3901 0.0000
vt 0.4535 0.1891 0.0000
vt 0.4079 0.1898 0.0000
vt 0.4294 0.1657 0.0000
vt 0.5484 0.2394 0.0000
vt 0.4868 0.2213 0.0000
vt 0.4958 0.1973 0.0000
vt 0.1069 0.0176 0.0000
vt 0.1413 0.0314 0.0000
vt 0.5633 0.1466 0.0000
vt 0.5255 0.1259 0.0000
vt 0.5449 0.1147 0.0000
vt 0.0625 0.5728 0.0000
vt 0.1219 0.5473 0.0000
vt 0.1034 0.6072 0.0000
vt 0.9136 0.9635 0.0000
vt 0.8599 0.9636 0.0000
vt 0.7459 0.0362 0.0000
vt 0.7956 0.0418 0.0000
vt 0.5958 0.5598 0.0000
vt 0.5698 0.5438 0.0000
vt 0.6131 0.5238 0.0000
vt 0.9645 0.2311 0.0000
vt 0.9729 0.2670 0.0000
vt 0.9451 0.2408 0.0000
vt 0.5806 0.5831 0.0000
vt 0.9025 0.6870 0.0000
vt 0.9214 0.6780 0.0000
vt 0.9164 0.7084 0.0000
vt 0.9400 0.7102 0.0000
vt 0.9125 0.8650 0.0000
vt 0.9846 0.5979 0.0000
vt 0.9760 0.6087 0.0000
vt 0.9740 0.5810 0.0000
vt 0.2738 0.2060 0.0000
vt 0.7983 0.4455 0.0000
vt 0.7745 0.4125 0.0000
vt 0.8038 0.3991 0.0000
vt 0.1847 0.7841 0.0000
vt 0.1377 0.7749 0.0000
vt 0.2051 0.7488 0.0000
vt 0.4328 0.8256 0.0000
vt 0.4621 0.8220 0.0000
vt 0.4326 0.8630 0.0000
vt 0.4401 0.9642 0.0000
vt 0.3872 0.9798 0.0000
vt 0.3907 0.9131 0.0000
vt 0.4020 0.9862 0.0000
vt 0.9456 0.9491 0.0000
vt 0.9728 0.9713 0.0000
vt 0.1254 0.7344 0.0000
vt 0.1801 0.7180 0.0000
vt 0.2015 0.1369 0.0000
vt 0.2033 0.1535 0.0000
vt 0.1673 0.1299 0.0000
vt 0.3407 0.6176 0.0000
vt 0.2992 0.5746 0.0000
vt 0.4334 0.0290 0.0000
vt 0.4077 0.0176 0.0000
vt 0.4391 0.0176 0.0000
vt 0.5185 0.1145 0.0000
vt 0.5288 0.1022 0.0000
vt 0.5612 0.1068 0.0000
vt 0.5591 0.3038 0.0000
vt 0.5991 0.2889 0.0000
vt 0.5884 0.3124 0.0000
vt 0.8131 0.5510 0.0000
vt 0.8116 0.6266 0.0000
vt 0.7902 0.6260 0.0000
vt 0.8021 0.6026 0.0000
vt 0.1145 0.7566 0.0000
vt 0.1703 0.9310 0.0000
vt 0.1335 0.3600 0.0000
vt 0.9185 0.7468 0.0000
vt 0.9295 0.7503 0.0000
vt 0.9084 0.8044 0.0000
vt 0.7079 0.3348 0.0000
vt 0.9449 0.7688 0.0000
vt 0.5723 0.3758 0.0000
vt 0.3877 0.3323 0.0000
vt 0.8760 0.5425 0.0000
vt 0.8407 0.5343 0.0000
vt 0.8698 0.5193 0.0000
vt 0.0220 0.7859 0.0000
vt 0.0066 0.8548 0.0000
vt 0.0017 0.7770 0.0000
vt 0.2978 0.8449 0.0000
vt 0.2045 0.8049 0.0000
vt 0.2768 0.8022 0.0000
vt 0.7198 0.4764 0.0000
vt 0.0360 0.9392 0.0000
vt 0.0204 0.9593 0.0000
vt 0.0191 0.7745 0.0000
vt 0.0300 0.7331 0.0000
vt 0.0474 0.7864 0.0000
vt 0.3836 0.3616 0.0000
vt 0.2974 0.4950 0.0000
vt 0.3200 0.4403 0.0000
vt 0.7735 0.2468 0.0000
vt 0.1137 0.8332 0.0000
vt 0.0745 0.8115 0.0000
vt 0.1243 0.7732 0.0000
vt 0.1668 0.3918 0.0000
vt 0.1922 0.4508 0.0000
vt 0.2935 0.4964 0.0000
vt 0.2664 0.4783 0.0000
vt 0.2460 0.5223 0.0000
vt 0.6404 0.7808 0.0000
vt 0.4714 0.2585 0.0000
vt 0.7969 0.3660 0.0000
vt 0.8169 0.3827 0.0000
vt 0.8213 0.9627 0.0000
vt 0.8317 0.9227 0.0000
vt 0.8562 0.9265 0.0000
vt 0.7609 0.7375 0.0000
vt 0.7768 0.7520 0.0000
vt 0.7555 0.7904 0.0000
vt 0.3669 0.2262 0.0000
vt 0.3871 0.6840 0.0000
vt 0.8627 0.3267 0.0000
vt 0.0398 0.9357 0.0000
vt 0.0330 0.8727 0.0000
vt 0.0658 0.9128 0.0000
vt 0.5643 0.4960 0.0000
vt 0.5113 0.4565 0.0000
vt 0.6024 0.4809 0.0000
vt 0.7522 0.8320 0.0000
vt 0.7315 0.8320 0.0000
vt 0.7516 0.7824 0.0000
vt 0.4803 0.2626 0.0000
vt 0.5045 0.2490 0.0000
vt 0.5022 0.2782 0.0000
vt 0.5179 0.2720 0.0000
vt 0.5526 0.2740 0.0000
vt 0.3645 0.1735 0.0000
vt 0.2799 0.1492 0.0000
vt 0.5639 0.2535 0.0000
vt 0.3085 0.2354 0.0000
vt 0.3664 0.9062 0.0000
vt 0.3468 0.8806 0.0000
vt 0.6313 0.2634 0.0000
vt 0.6194 0.2852 0.0000
vt 0.5688 0.2838 0.0000
vt 0.9175 0.6651 0.0000
vt 0.9321 0.6129 0.0000
vt 0.4679 0.6930 0.0000
vt 0.5207 0.7333 0.0000
vt 0.1489 0.0994 0.0000
vt 0.1403 0.1323 0.0000
vt 0.8772 0.0801 0.0000
vt 0.8680 0.1378 0.0000
vt 0.8405 0.0974 0.0000
vt 0.8711 0.0657 0.0000
vt 0.8649 0.0455 0.0000
vt 0.0445 0.6817 0.0000
vt 0.1014 0.7019 0.0000
vt 0.0492 0.7074 0.0000
vt 0.9743 0.5410 0.0000
vt 0.9984 0.5555 0.0000
vt 0.9859 0.5614 0.0000
vt 0.9531 0.2029 0.0000
vt 0.9726 0.2061 0.0000
vt 0.4510 0.8045 0.0000
vt 0.2074 0.8814 0.0000
vt 0.2460 0.8965 0.0000
vt 0.1991 0.9441 0.0000
vt 0.8384 0.4028 0.0000
vt 0.8441 0.4446 0.0000
vt 0.7600 0.4496 0.0000
vt 0.1486 0.4824 0.0000
vt 0.1601 0.5155 0.0000
vt 0.1348 0.5343 0.0000
vt 0.0330 0.9751 0.0000
vt 0.0369 0.9457 0.0000
vt 0.0603 0.9652 0.0000
vt 0.1551 0.8783 0.0000
vt 0.1333 0.8528 0.0000
vt 0.9661 0.0076 0.0000
vt 0.9984 0.0099 0.0000
vt 0.7830 0.5922 0.0000
vt 0.0377 0.2840 0.0000
vt 0.0453 0.2582 0.0000
vt 0.1954 0.9494 0.0000
vt 0.9974 0.1609 0.0000
vt 0.9756 0.1872 0.0000
vt 0.4684 0.3515 0.0000
vt 0.4919 0.3640 0.0000
vt 0.8077 0.6918 0.0000
vt 0.8127 0.6310 0.0000
vt 0.4151 0.3368 0.0000
vt 0.4208 0.3591 0.0000
vt 0.8483 0.7001 0.0000
vt 0.3132 0.5231 0.0000
vt 0.4350 0.5112 0.0000
vt 0.1523 0.4317 0.0000
vt 0.4272 0.6301 0.0000
vt 0.9143 0.1465 0.0000
vt 0.8696 0.1406 0.0000
vt 0.9257 0.1244 0.0000
vt 0.4954 0.2505 0.0000
vt 0.8963 0.2266 0.0000
vt 0.5544 0.7576 0.0000
vt 0.4894 0.6993 0.0000
vt 0.1488 0.6758 0.0000
vt 0.1434 0.6212 0.0000
vt 0.3900 0.3377 0.0000
vt 0.7933 0.8912 0.0000
vt 0.6637 0.8748 0.0000
vt 0.6126 0.8899 0.0000
vt 0.8971 0.0122 0.0000
vt 0.8802 0.0361 0.0000
vt 0.8741 0.0040 0.0000
vt 0.3586 0.8057 0.0000
vt 0.3343 0.7959 0.0000
vt 0.3749 0.7750 0.0000
vt 0.3793 0.8220 0.0000
vt 0.4584 0.7535 0.0000
vt 0.4206 0.7203 0.0000
vt 0.7752 0.9100 0.0000
vt 0.9671 0.6520 0.0000
vt 0.9913 0.6907 0.0000
vt 0.8917 0.4906 0.0000
vt 0.2543 0.1887 0.0000
vt 0.2718 0.1775 0.0000
vt 0.8046 0.6624 0.0000
vt 0.7807 0.7066 0.0000
vt 0.7722 0.6806 0.0000
vt 0.5662 0.0517 0.0000
vt 0.6014 0.0566 0.0000
vt 0.6294 0.1154 0.0000
vt 0.4508 0.2117 0.0000
vt 0.6391 0.4215 0.0000
vt 0.1299 0.5420 0.0000
vt 0.1369 0.5118 0.0000
vt 0.1270 0.7186 0.0000
vt 0.1483 0.6938 0.0000
vt 0.1689 0.7114 0.0000
vt 0.7981 0.0660 0.0000
vt 0.7981 0.0460 0.0000
vt 0.8152 0.0458 0.0000
vt 0.1647 0.1319 0.0000
vt 0.1145 0.1561 0.0000
vt 0.3744 0.4419 0.0000
vt 0.3869 0.4240 0.0000
vt 0.0207 0.6468 0.0000
vt 0.0061 0.6096 0.0000
vt 0.0343 0.6517 0.0000
vt 0.2957 0.0586 0.0000
vt 0.2956 0.0787 0.0000
vt 0.2494 0.0520 0.0000
vt 0.6089 0.5968 0.0000
vt 0.5891 0.5988 0.0000
vt 0.6172 0.5664 0.0000
vt 0.2366 0.9885 0.0000
vt 0.1001 0.2305 0.0000
vt 0.4876 0.8831 0.0000
vt 0.8801 0.2022 0.0000
vt 0.9070 0.1909 0.0000
vt 0.8862 0.2269 0.0000
vt 0.7191 0.9787 0.0000
vt 0.7172 0.9448 0.0000
vt 0.7398 0.9142 0.0000
vt 0.7958 0.5084 0.0000
vt 0.0763 0.2644 0.0000
vt 0.2120 0.2755 0.0000
vt 0.9525 0.1714 0.0000
vt 0.6148 0.5889 0.0000
vt 0.4909 0.5588 0.0000
vt 0.5272 0.6121 0.0000
vt 0.4912 0.6072 0.0000
vt 0.1580 0.5708 0.0000
vt 0.1639 0.5073 0.0000
vt 0.1830 0.5634 0.0000
vt 0.8390 0.8696 0.0000
vt 0.7903 0.8856 0.0000
vt 0.7564 0.8515 0.0000
vt 0.7826 0.8705 0.0000
vt 0.2856 0.6473 0.0000
vt 0.2594 0.6877 0.0000
vt 0.2170 0.6273 0.0000
vt 0.2510 0.6085 0.0000
vt 0.9661 0.5661 0.0000
vt 0.1693 0.9495 0.0000
vt 0.8599 0.5005 0.0000
vt 0.0889 0.1772 0.0000
vt 0.0541 0.1886 0.0000
vt 0.0648 0.1708 0.0000
vt 0.2054 0.0910 0.0000
vt 0.1988 0.0711 0.0000
vt 0.2400 0.0902 0.0000
vt 0.2471 0.1068 0.0000
vt 0.4446 0.8629 0.0000
vt 0.3629 0.1419 0.0000
vt 0.4028 0.1524 0.0000
vt 0.8100 0.1405 0.0000
vt 0.5809 0.7705 0.0000
vt 0.4689 0.8083 0.0000
vt 0.0667 0.4258 0.0000
vt 0.2258 0.7603 0.0000
vt 0.2026 0.8004 0.0000
vt 0.1951 0.7719 0.0000
vt 0.6618 0.2899 0.0000
vt 0.6618 0.3209 0.0000
vt 0.9171 0.9653 0.0000
vt 0.9947 0.9951 0.0000
vt 0.9031 0.9940 0.0000
vt 0.0946 0.5402 0.0000
vt 0.1944 0.0015 0.0000
vt 0.1592 0.0216 0.0000
vt 0.1271 0.0015 0.0000
vt 0.7973 0.9968 0.0000
vt 0.7367 0.9958 0.0000
vt 0.8181 0.9680 0.0000
vt 0.7696 0.9653 0.0000
vt 0.9963 0.1574 0.0000
vt 0.9823 0.1434 0.0000
vt 0.9982 0.1392 0.0000
vt 0.1020 0.0019 0.0000
vt 0.4535 0.4607 0.0000
vt 0.3016 0.9542 0.0000
vt 0.3332 0.9012 0.0000
vt 0.3016 0.9009 0.0000
vt 0.0664 0.6180 0.0000
vt 0.0925 0.6571 0.0000
vt 0.0448 0.6521 0.0000
vt 0.2962 0.5793 0.0000
vt 0.6880 0.0429 0.0000
vt 0.0255 0.6814 0.0000
vt 0.3490 0.4308 0.0000
vt 0.6450 0.0436 0.0000
vt 0.6613 0.0682 0.0000
vt 0.5592 0.9206 0.0000
vt 0.5433 0.9450 0.0000
vt 0.0791 0.4775 0.0000
vt 0.6835 0.0177 0.0000
vt 0.2841 0.5249 0.0000
vt 0.2847 0.5537 0.0000
vt 0.5507 0.9684 0.0000
vt 0.5489 0.9952 0.0000
vt 0.5246 0.9684 0.0000
vt 0.5348 0.0881 0.0000
vt 0.2754 0.5850 0.0000
vt 0.8880 0.4618 0.0000
vt 0.9040 0.4824 0.0000
vt 0.8686 0.4947 0.0000
vt 0.1600 0.9022 0.0000
vt 0.0848 0.8409 0.0000
vt 0.4582 0.9486 0.0000
vt 0.4494 0.9202 0.0000
vt 0.9054 0.8226 0.0000
vt 0.9700 0.8328 0.0000
vt 0.9348 0.8680 0.0000
vt 0.2352 0.0472 0.0000
vt 0.2857 0.0768 0.0000
vt 0.3906 0.6109 0.0000
vt 0.4144 0.6509 0.0000
vt 0.2866 0.5232 0.0000
vt 0.8735 0.6065 0.0000
vt 0.7919 0.5646 0.0000
vt 0.6696 0.5877 0.0000
vt 0.1622 0.8205 0.0000
vt 0.7719 0.6095 0.0000
vt 0.0211 0.5952 0.0000
vt 0.0211 0.5514 0.0000
vt 0.0483 0.5689 0.0000
vt 0.0071 0.1394 0.0000
vt 0.0228 0.0930 0.0000
vt 0.0479 0.1004 0.0000
vt 0.9308 0.5894 0.0000
vt 0.0780 0.2334 0.0000
vt 0.0518 0.2286 0.0000
vt 0.3581 0.0901 0.0000
vt 0.1017 0.1983 0.0000
vt 0.2170 0.0293 0.0000
vt 0.9004 0.5768 0.0000
vt 0.9086 0.5446 0.0000
vt 0.9754 0.4505 0.0000
vt 0.9601 0.4910 0.0000
vt 0.3042 0.0518 0.0000
vt 0.3693 0.1989 0.0000
vt 0.4247 0.0702 0.0000
vt 0.5015 0.0867 0.0000
vt 0.5188 0.1245 0.0000
vt 0.5664 0.0379 0.0000
vt 0.9689 0.3644 0.0000
vt 0.9583 0.4289 0.0000
vt 0.9747 0.2844 0.0000
vt 0.9512 0.3112 0.0000
vt 0.9455 0.2513 0.0000
vt 0.7354 0.9774 0.0000
vt 0.4333 0.4485 0.0000
vt 0.3097 0.9747 0.0000
vt 0.9057 0.1120 0.0000
vt 0.5503 0.5732 0.0000
vt 0.5198 0.5389 0.0000
vt 0.0361 0.1179 0.0000
vt 0.6393 0.1178 0.0000
vt 0.6135 0.0735 0.0000
vt 0.1480 0.5608 0.0000
vt 0.7812 0.3600 0.0000
vt 0.7529 0.3402 0.0000
vt 0.7941 0.3401 0.0000
vt 0.0793 0.8680 0.0000
vt 0.0593 0.8386 0.0000
vt 0.7023 0.1841 0.0000
vt 0.1754 0.8659 0.0000
vt 0.8082 0.2419 0.0000
vt 0.7887 0.2238 0.0000
vt 0.8056 0.2009 0.0000
vt 0.9487 0.1411 0.0000
vt 0.7841 0.6214 0.0000
vt 0.8043 0.6564 0.0000
vt 0.7777 0.6475 0.0000
vt 0.7352 0.1351 0.0000
vt 0.9281 0.3919 0.0000
vt 0.8969 0.4027 0.0000
vt 0.8847 0.3200 0.0000
vt 0.7974 0.7446 0.0000
vt 0.7552 0.1195 0.0000
vt 0.7322 0.1328 0.0000
vt 0.7343 0.1084 0.0000
vt 0.9412 0.4639 0.0000
vt 0.9825 0.4903 0.0000
vt 0.9972 0.5420 0.0000
vt 0.9605 0.5348 0.0000
vt 0.4817 0.9001 0.0000
vt 0.9785 0.3257 0.0000
vt 0.4412 0.6538 0.0000
vt 0.1547 0.0403 0.0000
vt 0.3300 0.7966 0.0000
vt 0.2600 0.7562 0.0000
vt 0.2682 0.7370 0.0000
vt 0.4288 0.2772 0.0000
vt 0.4742 0.2617 0.0000
vt 0.4742 0.2863 0.0000
vt 0.1110 0.7419 0.0000
vt 0.0926 0.7592 0.0000
vt 0.0808 0.7280 0.0000
vt 0.7701 0.1241 0.0000
vt 0.5364 0.5124 0.0000
vt 0.5876 0.4910 0.0000
vt 0.0018 0.1596 0.0000
vt 0.2986 0.9269 0.0000
vt 0.7455 0.4069 0.0000
vt 0.7668 0.3820 0.0000
vt 0.6788 0.0015 0.0000
vt 0.7098 0.0015 0.0000
vt 0.6940 0.0106 0.0000
vt 0.1674 0.1104 0.0000
vt 0.7308 0.0019 0.0000
vt 0.7114 0.4252 0.0000
vt 0.6013 0.0913 0.0000
vt 0.3295 0.2385 0.0000
vt 0.3148 0.0015 0.0000
vt 0.4491 0.0015 0.0000
vt 0.4371 0.0136 0.0000
vt 0.2832 0.7737 0.0000
vt 0.3753 0.8705 0.0000
vt 0.5731 0.0378 0.0000
vt 0.6068 0.0392 0.0000
vt 0.6028 0.0540 0.0000
vt 0.2027 0.0683 0.0000
vt 0.1071 0.0019 0.0000
vt 0.2250 0.0534 0.0000
vt 0.9731 0.4088 0.0000
vt 0.9683 0.3918 0.0000
vt 0.9927 0.4049 0.0000
vt 0.8112 0.2840 0.0000
vt 0.0015 0.2392 0.0000
vt 0.0114 0.2471 0.0000
vt 0.0015 0.3721 0.0000
vt 0.0016 0.9533 0.0000
vt 0.6202 0.6637 0.0000
vt 0.6251 0.7004 0.0000
vt 0.6042 0.6915 0.0000
vt 0.5297 0.0920 0.0000
vt 0.5152 0.1064 0.0000
vt 0.5046 0.0862 0.0000
vt 0.7319 0.8231 0.0000
vt 0.5530 0.8829 0.0000
vt 0.1527 0.4612 0.0000
vt 0.1290 0.4612 0.0000
vt 0.1460 0.4242 0.0000
vt 0.3491 0.7703 0.0000
vt 0.6696 0.2897 0.0000
vt 0.7112 0.3314 0.0000
vt 0.6844 0.3161 0.0000
vt 0.1648 0.0935 0.0000
vt 0.0421 0.4326 0.0000
vt 0.9242 0.4693 0.0000
vt 0.9157 0.5007 0.0000
vt 0.9006 0.4664 0.0000
vt 0.7598 0.7169 0.0000
vt 0.7409 0.7118 0.0000
vt 0.7788 0.6236 0.0000
vt 0.9436 0.3547 0.0000
vt 0.9322 0.2801 0.0000
vt 0.9436 0.2633 0.0000
vt 0.8394 0.9873 0.0000
vt 0.9815 0.1245 0.0000
vt 0.3721 0.1057 0.0000
vt 0.3572 0.1097 0.0000
vt 0.3634 0.0921 0.0000
vt 0.9334 0.1008 0.0000
vt 0.9425 0.1311 0.0000
vt 0.9127 0.1128 0.0000
vt 0.1544 0.0766 0.0000
vt 0.1851 0.0877 0.0000
vt 0.1544 0.0900 0.0000
vt 0.3735 0.2617 0.0000
vt 0.3383 0.2400 0.0000
vt 0.3642 0.2310 0.0000
vt 0.5100 0.9719 0.0000
vt 0.4690 0.9707 0.0000
vt 0.0898 0.5575 0.0000
vt 0.0666 0.5575 0.0000
vt 0.0871 0.5376 0.0000
vt 0.1455 0.2339 0.0000
vt 0.5815 0.0780 0.0000
vt 0.5549 0.0683 0.0000
vt 0.5665 0.0567 0.0000
vt 0.8230 0.4789 0.0000
vt 0.0027 0.5716 0.0000
vt 0.9086 0.7061 0.0000
vt 0.2133 0.7568 0.0000
vt 0.1932 0.7221 0.0000
vt 0.2209 0.7307 0.0000
vt 0.1622 0.3851 0.0000
vt 0.0862 0.7589 0.0000
vt 0.0433 0.7416 0.0000
vt 0.0669 0.7233 0.0000
vt 0.1646 0.9559 0.0000
vt 0.4906 0.6489 0.0000
vt 0.8054 0.8943 0.0000
vt 0.1811 0.6154 0.0000
vt 0.9370 0.6094 0.0000
vt 0.9808 0.6322 0.0000
vt 0.9467 0.6458 0.0000
vt 0.8966 0.2964 0.0000
vt 0.8886 0.3643 0.0000
vt 0.8376 0.9011 0.0000
vt 0.0778 0.8727 0.0000
vt 0.1739 0.7126 0.0000
vt 0.9982 0.6235 0.0000
vt 0.6719 0.3997 0.0000
vt 0.7094 0.4229 0.0000
vt 0.6596 0.4229 0.0000
vt 0.6752 0.3760 0.0000
vt 0.6410 0.5109 0.0000
vt 0.6711 0.5415 0.0000
vt 0.6364 0.5383 0.0000
vt 0.1191 0.5674 0.0000
vt 0.9491 0.3595 0.0000
vt 0.6165 0.6623 0.0000
vt 0.4969 0.5480 0.0000
vt 0.5820 0.6099 0.0000
vt 0.5420 0.6031 0.0000
vt 0.5406 0.6284 0.0000
vt 0.5997 0.5594 0.0000
vt 0.9805 0.0884 0.0000
vt 0.9978 0.0923 0.0000
vt 0.9803 0.1174 0.0000
vt 0.9123 0.8417 0.0000
vt 0.0511 0.9898 0.0000
vt 0.0904 0.9766 0.0000
vt 0.4858 0.3558 0.0000
vt 0.4900 0.3436 0.0000
vt 0.5169 0.3545 0.0000
vt 0.5627 0.2291 0.0000
vt 0.6185 0.2584 0.0000
vt 0.5536 0.2467 0.0000
vt 0.4927 0.5508 0.0000
vt 0.5139 0.5514 0.0000
vt 0.5139 0.5873 0.0000
vt 0.8752 0.4294 0.0000
vt 0.5983 0.0323 0.0000
vt 0.4378 0.0309 0.0000
vt 0.6158 0.0015 0.0000
vt 0.1207 0.3406 0.0000
vt 0.0500 0.2576 0.0000
vt 0.1495 0.3572 0.0000
vt 0.7288 0.4068 0.0000
vt 0.2277 0.7767 0.0000
vt 0.2381 0.1513 0.0000
vt 0.0018 0.0325 0.0000
vt 0.0173 0.0280 0.0000
vt 0.0089 0.0652 0.0000
vt 0.0135 0.2714 0.0000
vt 0.8311 0.5039 0.0000
vt 0.1346 0.3369 0.0000
vt 0.1263 0.3138 0.0000
vt 0.1596 0.3512 0.0000
vt 0.0761 0.7592 0.0000
vt 0.4498 0.5588 0.0000
vt 0.2218 0.8479 0.0000
vt 0.1981 0.7992 0.0000
vt 0.9118 0.7678 0.0000
vt 0.7438 0.6880 0.0000
vt 0.8716 0.0015 0.0000
vt 0.8448 0.0471 0.0000
vt 0.7938 0.0015 0.0000
vt 0.7594 0.7291 0.0000
vt 0.4560 0.9894 0.0000
vt 0.4446 0.9710 0.0000
vt 0.4560 0.9581 0.0000
vt 0.4250 0.2704 0.0000
vt 0.6980 0.8944 0.0000
vt 0.8432 0.5297 0.0000
vt 0.9077 0.0447 0.0000
vt 0.8656 0.0357 0.0000
vt 0.9151 0.4441 0.0000
vt 0.8837 0.4425 0.0000
vt 0.2622 0.0504 0.0000
vt 0.3525 0.0711 0.0000
vt 0.0864 0.4207 0.0000
vt 0.5169 0.5725 0.0000
vt 0.9978 0.1338 0.0000
vt 0.0990 0.4309 0.0000
vt 0.1034 0.4534 0.0000
vt 0.0897 0.4556 0.0000
vt 0.4759 0.0120 0.0000
vt 0.4423 0.0121 0.0000
vt 0.4637 0.0018 0.0000
vt 0.3226 0.4320 0.0000
vt 0.3356 0.3922 0.0000
vt 0.0414 0.4600 0.0000
vt 0.0677 0.5229 0.0000
vt 0.4547 0.9164 0.0000
vt 0.9788 0.8368 0.0000
vt 0.4580 0.3436 0.0000
vt 0.6367 0.4506 0.0000
vt 0.6403 0.4256 0.0000
vt 0.6132 0.3008 0.0000
vt 0.6339 0.0015 0.0000
vt 0.6756 0.0020 0.0000
vt 0.6763 0.0129 0.0000
vt 0.0315 0.0683 0.0000
vt 0.7186 0.3496 0.0000
vt 0.9930 0.3672 0.0000
vt 0.9728 0.3620 0.0000
vt 0.9203 0.8221 0.0000
vt 0.9972 0.4237 0.0000
vt 0.9684 0.4382 0.0000
vt 0.3394 0.3715 0.0000
vt 0.8718 0.3277 0.0000
vt 0.8819 0.3891 0.0000
vt 0.7756 0.0354 0.0000
vt 0.7363 0.0051 0.0000
vt 0.5551 0.1222 0.0000
vt 0.2566 0.8696 0.0000
vt 0.2525 0.8953 0.0000
vt 0.7858 0.8668 0.0000
vt 0.8729 0.2428 0.0000
vt 0.8925 0.3031 0.0000
vt 0.8680 0.2800 0.0000
vt 0.8925 0.2356 0.0000
vt 0.5511 0.0383 0.0000
vt 0.5224 0.0549 0.0000
vt 0.5273 0.0358 0.0000
vt 0.6087 0.5582 0.0000
vt 0.6185 0.5233 0.0000
vt 0.4001 0.8029 0.0000
vt 0.9119 0.1243 0.0000
vt 0.8716 0.1351 0.0000
vt 0.8806 0.0902 0.0000
vt 0.7969 0.1790 0.0000
vt 0.2850 0.1739 0.0000
vt 0.7767 0.6501 0.0000
vt 0.2484 0.1608 0.0000
vt 0.6538 0.3267 0.0000
vt 0.7024 0.1810 0.0000
vt 0.6835 0.1545 0.0000
vt 0.7551 0.1597 0.0000
vt 0.1494 0.4653 0.0000
vt 0.9570 0.8246 0.0000
vt 0.9467 0.7579 0.0000
vt 0.9643 0.7575 0.0000
vt 0.5518 0.2772 0.0000
vt 0.5356 0.2973 0.0000
vt 0.5138 0.2772 0.0000
vt 0.2869 0.7281 0.0000
vt 0.3498 0.7632 0.0000
vt 0.0602 0.0821 0.0000
vt 0.6617 0.1466 0.0000
vt 0.0312 0.6003 0.0000
vt 0.3954 0.2491 0.0000
vt 0.0509 0.1919 0.0000
vt 0.2260 0.7550 0.0000
vt 0.0267 0.7000 0.0000
vt 0.8121 0.5633 0.0000
vt 0.8047 0.2483 0.0000
vt 0.0016 0.6033 0.0000
vt 0.8301 0.5336 0.0000
vt 0.7684 0.2312 0.0000
vt 0.9487 0.2091 0.0000
vt 0.8469 0.9615 0.0000
vt 0.6698 0.1448 0.0000
vt 0.6943 0.1762 0.0000
vt 0.6548 0.1534 0.0000
vt 0.7772 0.7940 0.0000
vt 0.7929 0.1839 0.0000
vt 0.4164 0.8048 0.0000
vt 0.9606 0.4960 0.0000
vt 0.9975 0.4406 0.0000
vt 0.5309 0.7760 0.0000
vt 0.5233 0.7343 0.0000
vt 0.5534 0.7700 0.0000
vt 0.9445 0.7057 0.0000
vt 0.5670 0.2927 0.0000
vt 0.3911 0.4265 0.0000
vt 0.8227 0.1362 0.0000
vt 0.2421 0.1533 0.0000
vt 0.3984 0.0640 0.0000
vt 0.4179 0.0732 0.0000
vt 0.3932 0.0890 0.0000
vt 0.5689 0.9375 0.0000
vt 0.4448 0.0170 0.0000
vt 0.3408 0.3765 0.0000
vt 0.8684 0.4281 0.0000
vt 0.6396 0.5423 0.0000
vt 0.7465 0.2061 0.0000
vt 0.7623 0.9463 0.0000
vt 0.8384 0.5086 0.0000
vt 0.1774 0.0297 0.0000
vt 0.2096 0.0313 0.0000
vt 0.2075 0.0391 0.0000
vt 0.1546 0.0724 0.0000
vt 0.1578 0.0429 0.0000
vt 0.9416 0.7583 0.0000
vt 0.9147 0.7118 0.0000
vt 0.9393 0.7137 0.0000
vt 0.8895 0.5733 0.0000
vt 0.3709 0.9512 0.0000
vt 0.5477 0.2250 0.0000
vt 0.0578 0.4347 0.0000
vt 0.6087 0.0499 0.0000
vt 0.4332 0.7025 0.0000
vt 0.4069 0.6970 0.0000
vt 0.2303 0.7449 0.0000
vt 0.7813 0.7342 0.0000
vt 0.8028 0.7544 0.0000
vt 0.7813 0.7631 0.0000
vt 0.8024 0.7792 0.0000
vt 0.0140 0.9707 0.0000
vt 0.0559 0.2449 0.0000
vt 0.0485 0.3860 0.0000
vt 0.0314 0.4133 0.0000
vt 0.0314 0.3660 0.0000
vt 0.3883 0.4210 0.0000
vt 0.4885 0.4206 0.0000
vt 0.4771 0.4454 0.0000
vt 0.7675 0.9623 0.0000
vt 0.7246 0.3659 0.0000
vt 0.4285 0.6369 0.0000
vt 0.9755 0.6247 0.0000
vt 0.6225 0.7115 0.0000
vt 0.7246 0.1153 0.0000
vt 0.0311 0.6234 0.0000
vt 0.9984 0.5955 0.0000
vt 0.3635 0.0733 0.0000
vt 0.6442 0.5013 0.0000
vt 0.0191 0.6073 0.0000
vt 0.6165 0.1152 0.0000
vt 0.6074 0.1381 0.0000
vt 0.0044 0.5792 0.0000
vt 0.1169 0.4301 0.0000
vt 0.0939 0.4338 0.0000
vt 0.0016 0.1630 0.0000
vt 0.0347 0.1718 0.0000
vt 0.0044 0.2061 0.0000
vt 0.0017 0.1084 0.0000
vt 0.8081 0.2977 0.0000
vt 0.5927 0.4683 0.0000
vt 0.9016 0.6428 0.0000
vt 0.8842 0.6205 0.0000
vt 0.1343 0.5408 0.0000
vt 0.1485 0.5725 0.0000
vt 0.1219 0.5624 0.0000
vt 0.8005 0.3946 0.0000
vt 0.7723 0.3772 0.0000
vt 0.7895 0.3538 0.0000
vt 0.7783 0.3991 0.0000
vt 0.5977 0.7398 0.0000
vt 0.1684 0.0238 0.0000
vt 0.5278 0.0566 0.0000
vt 0.1453 0.5766 0.0000
vt 0.2315 0.1872 0.0000
vt 0.2434 0.1666 0.0000
vt 0.2503 0.1872 0.0000
vt 0.9763 0.8208 0.0000
# 1208 texture coords

o Perro_blanco
g Perro_blanco
usemtl Dog_Tris_Material
s off
f 1/1/1 2/2/2 3/3/3 
f 1/4/1 3/5/3 4/6/4 
f 4/7/4 3/8/3 5/9/5 
f 3/8/3 6/10/6 5/9/5 
f 3/11/3 2/12/2 7/13/7 
f 6/14/6 3/11/3 7/13/7 
f 8/15/8 9/16/9 10/17/10 
f 8/15/8 11/18/11 9/16/9 
f 8/19/8 12/20/12 11/21/11 
f 13/22/13 8/15/8 10/17/10 
f 14/23/14 15/24/15 16/25/16 
f 17/26/17 12/20/12 8/19/8 
f 18/27/18 19/28/19 20/29/20 
f 13/30/13 17/26/17 8/19/8 
f 17/26/17 13/30/13 21/31/21 
f 22/32/22 21/31/21 13/30/13 
f 23/33/23 24/34/24 25/35/25 
f 24/36/24 26/37/26 25/38/25 
f 27/39/27 17/26/17 21/31/21 
f 28/40/28 29/41/29 30/42/30 
f 31/43/31 32/44/32 33/45/33 
f 34/46/34 35/47/35 36/48/36 
f 37/49/37 38/50/38 39/51/39 
f 40/52/40 27/39/27 41/53/41 
f 42/54/42 43/55/43 44/56/44 
f 45/57/45 29/58/29 28/59/28 
f 46/60/46 47/61/47 48/62/48 
f 49/63/49 50/64/50 51/65/51 
f 52/66/52 53/67/53 54/68/54 
f 46/60/46 55/69/55 47/61/47 
f 56/70/56 57/71/57 50/64/50 
f 58/72/58 57/73/57 56/74/56 
f 59/75/59 60/76/60 61/77/61 
f 58/72/58 59/75/59 57/73/57 
f 60/76/60 59/75/59 58/72/58 
f 60/76/60 58/72/58 62/78/62 
f 63/79/63 60/76/60 62/78/62 
f 63/79/63 64/80/64 65/81/65 
f 66/82/66 65/81/65 67/83/67 
f 64/80/64 67/83/67 65/81/65 
f 68/84/68 64/80/64 69/85/69 
f 68/84/68 70/86/70 67/83/67 
f 71/87/71 68/84/68 69/85/69 
f 71/87/71 72/88/72 68/84/68 
f 70/86/70 68/84/68 72/88/72 
f 73/89/73 74/90/74 75/91/75 
f 72/88/72 71/87/71 76/92/76 
f 77/93/77 78/94/78 79/95/79 
f 72/88/72 80/96/80 70/86/70 
f 81/97/81 79/98/79 82/99/82 
f 83/100/83 84/101/84 82/99/82 
f 72/88/72 85/102/85 86/103/86 
f 85/102/85 72/88/72 76/92/76 
f 87/104/87 88/105/88 89/106/89 
f 90/107/90 86/103/86 85/102/85 
f 91/108/91 92/109/92 93/110/93 
f 94/111/94 95/112/95 96/113/96 
f 97/114/97 85/102/85 76/92/76 
f 98/115/98 86/116/86 90/117/90 
f 97/118/97 99/119/99 85/120/85 
f 99/119/99 90/121/90 85/120/85 
f 100/122/100 101/123/101 102/124/102 
f 103/125/103 100/126/100 102/127/102 
f 99/119/99 104/128/104 90/121/90 
f 104/128/104 99/119/99 105/129/105 
f 104/128/104 105/129/105 106/130/106 
f 107/131/107 104/132/104 106/133/106 
f 106/134/106 108/135/108 107/136/107 
f 106/134/106 109/137/109 108/135/108 
f 109/138/109 110/139/110 108/140/108 
f 110/141/110 109/142/109 111/143/111 
f 112/144/112 113/145/113 114/146/114 
f 115/147/115 116/148/116 117/149/117 
f 118/150/118 119/151/119 116/152/116 
f 120/153/120 20/154/20 121/155/121 
f 122/156/122 123/157/123 15/24/15 
f 124/158/124 125/159/125 126/160/126 
f 127/161/127 16/162/16 128/163/128 
f 14/164/14 129/165/129 130/166/130 
f 131/167/131 32/168/32 132/169/132 
f 133/170/133 134/171/134 135/172/135 
f 136/173/136 137/174/137 138/175/138 
f 139/176/139 140/177/140 141/178/141 
f 142/179/142 143/180/143 144/181/144 
f 145/182/145 146/183/146 136/173/136 
f 147/184/147 148/185/148 142/179/142 
f 21/31/21 41/53/41 27/39/27 
f 35/186/35 149/187/149 150/188/150 
f 145/189/145 151/190/151 152/191/152 
f 153/192/153 154/193/154 155/194/155 
f 156/195/156 55/196/55 157/197/157 
f 56/70/56 158/198/158 155/199/155 
f 159/200/159 160/201/160 161/202/161 
f 50/64/50 158/198/158 56/70/56 
f 162/203/162 163/204/163 164/205/164 
f 165/206/165 166/207/166 167/208/167 
f 168/209/168 169/210/169 170/211/170 
f 168/209/168 171/212/171 169/210/169 
f 172/213/172 173/214/173 174/215/174 
f 62/216/62 175/217/175 176/218/176 
f 177/219/177 178/220/178 179/221/179 
f 180/222/180 178/220/178 177/219/177 
f 181/223/181 182/224/182 183/225/183 
f 184/226/184 185/227/185 186/228/186 
f 187/229/187 188/230/188 177/219/177 
f 189/231/189 190/232/190 191/233/191 
f 192/234/192 191/233/191 190/232/190 
f 193/235/193 194/236/194 195/237/195 
f 196/238/196 197/239/197 198/240/198 
f 199/241/199 200/242/200 201/243/201 
f 80/96/80 72/88/72 86/103/86 
f 202/244/202 203/245/203 204/246/204 
f 92/247/92 205/248/205 206/249/206 
f 207/250/207 197/239/197 208/251/208 
f 209/252/209 210/253/210 211/254/211 
f 207/250/207 212/255/212 213/256/213 
f 214/257/214 205/258/205 92/259/92 
f 214/260/214 200/261/200 205/262/205 
f 200/242/200 215/263/215 201/243/201 
f 216/264/216 97/265/97 217/266/217 
f 207/250/207 218/267/218 212/255/212 
f 219/268/219 220/269/220 211/254/211 
f 220/270/220 219/271/219 221/272/221 
f 222/273/222 223/274/223 208/251/208 
f 224/275/224 221/276/221 219/277/219 
f 225/278/225 226/279/226 227/280/227 
f 228/281/228 229/282/229 230/283/230 
f 230/283/230 231/284/231 228/281/228 
f 232/285/232 212/255/212 218/267/218 
f 233/286/233 234/287/234 235/288/235 
f 109/289/109 236/290/236 111/291/111 
f 237/292/237 109/137/109 238/293/238 
f 239/294/239 113/295/113 240/296/240 
f 240/296/240 113/295/113 241/297/241 
f 7/13/7 242/298/242 10/17/10 
f 243/299/243 242/300/242 117/301/117 
f 141/302/141 244/303/244 134/304/134 
f 245/305/245 121/306/121 19/28/19 
f 132/307/132 246/308/246 131/309/131 
f 246/308/246 132/307/132 247/310/247 
f 248/311/248 23/312/23 25/313/25 
f 249/314/249 250/315/250 251/316/251 
f 23/312/23 248/311/248 252/317/252 
f 134/171/134 133/170/133 139/318/139 
f 253/319/253 24/320/24 23/321/23 
f 40/52/40 254/322/254 27/39/27 
f 255/323/255 256/324/256 257/325/257 
f 258/326/258 33/327/33 131/167/131 
f 259/328/259 260/329/260 23/330/23 
f 34/46/34 149/331/149 35/47/35 
f 261/332/261 262/333/262 263/334/263 
f 264/335/264 37/49/37 265/336/265 
f 37/49/37 264/335/264 38/50/38 
f 266/337/266 39/51/39 38/50/38 
f 267/338/267 268/339/268 147/184/147 
f 51/340/51 41/53/41 21/31/21 
f 51/341/51 269/342/269 41/343/41 
f 258/344/258 53/345/53 267/338/267 
f 49/63/49 158/198/158 50/64/50 
f 159/346/159 270/347/270 271/348/271 
f 272/349/272 273/350/273 274/351/274 
f 275/352/275 276/353/276 277/354/277 
f 278/355/278 276/353/276 275/352/275 
f 279/356/279 280/357/280 281/358/281 
f 282/359/282 283/360/283 284/361/284 
f 163/204/163 162/203/162 284/361/284 
f 172/213/172 285/362/285 286/363/286 
f 184/226/184 287/364/287 288/365/288 
f 289/366/289 290/367/290 291/368/291 
f 292/369/292 293/370/293 294/371/294 
f 188/372/188 295/373/295 296/374/296 
f 297/375/297 298/376/298 288/365/288 
f 75/91/75 299/377/299 296/378/296 
f 300/379/300 301/380/301 302/381/302 
f 303/382/303 304/383/304 300/379/300 
f 305/384/305 306/385/306 307/386/307 
f 308/387/308 309/388/309 192/389/192 
f 310/390/310 311/391/311 198/240/198 
f 83/392/83 78/393/78 312/394/312 
f 313/395/313 314/396/314 315/397/315 
f 316/398/316 87/104/87 305/384/305 
f 317/399/317 94/400/94 318/401/318 
f 88/402/88 319/403/319 320/404/320 
f 231/284/231 321/405/321 316/406/316 
f 322/407/322 323/408/323 98/409/98 
f 226/279/226 324/410/324 325/411/325 
f 326/412/326 327/413/327 315/414/315 
f 328/415/328 220/416/220 329/417/329 
f 329/418/329 221/419/221 234/287/234 
f 232/420/232 330/421/330 212/422/212 
f 331/423/331 332/424/332 223/425/223 
f 116/152/116 333/426/333 241/427/241 
f 9/16/9 6/14/6 10/17/10 
f 6/14/6 7/13/7 10/17/10 
f 115/428/115 117/429/117 242/430/242 
f 134/431/134 244/432/244 334/433/334 
f 13/434/13 10/435/10 243/299/243 
f 244/303/244 335/436/335 120/153/120 
f 335/436/335 18/437/18 120/153/120 
f 336/438/336 337/439/337 338/440/338 
f 339/441/339 340/442/340 341/443/341 
f 336/438/336 342/444/342 337/439/337 
f 248/445/248 343/446/343 252/447/252 
f 252/447/252 343/446/343 344/448/344 
f 138/175/138 137/174/137 345/449/345 
f 339/450/339 342/451/342 336/452/336 
f 144/181/144 335/453/335 142/179/142 
f 346/454/346 347/455/347 348/456/348 
f 26/457/26 44/458/44 343/459/343 
f 349/460/349 344/461/344 350/462/350 
f 17/26/17 27/39/27 254/322/254 
f 351/463/351 246/464/246 30/465/30 
f 352/466/352 246/464/246 351/463/351 
f 22/467/22 146/183/146 21/468/21 
f 136/173/136 146/183/146 22/467/22 
f 44/458/44 353/469/353 344/470/344 
f 256/471/256 354/472/354 355/473/355 
f 35/186/35 356/474/356 265/475/265 
f 23/476/23 260/477/260 253/478/253 
f 357/479/357 358/480/358 32/481/32 
f 357/482/357 32/483/32 31/484/31 
f 157/197/157 39/51/39 266/337/266 
f 157/197/157 359/485/359 39/51/39 
f 360/486/360 354/487/354 361/488/361 
f 362/489/362 353/469/353 44/458/44 
f 152/191/152 151/190/151 363/490/363 
f 46/60/46 48/62/48 364/491/364 
f 350/492/350 353/493/353 365/494/365 
f 158/198/158 49/63/49 363/490/363 
f 43/55/43 362/495/362 44/56/44 
f 362/496/362 365/494/365 353/493/353 
f 366/497/366 43/55/43 42/54/42 
f 263/334/263 155/194/155 154/193/154 
f 367/498/367 268/339/268 267/338/267 
f 275/352/275 148/185/148 268/339/268 
f 155/499/155 158/500/158 368/501/368 
f 43/502/43 369/503/369 365/504/365 
f 369/505/369 370/506/370 371/507/371 
f 270/347/270 43/55/43 366/497/366 
f 372/508/372 160/201/160 159/200/159 
f 43/502/43 373/509/373 273/510/273 
f 367/511/367 52/512/52 374/513/374 
f 159/346/159 165/514/165 270/347/270 
f 282/359/282 56/515/56 155/516/155 
f 61/77/61 375/517/375 59/75/59 
f 170/518/170 376/519/376 377/520/377 
f 164/521/164 277/354/277 378/522/378 
f 170/211/170 379/523/379 168/209/168 
f 380/524/380 381/525/381 171/212/171 
f 298/376/298 382/526/382 288/365/288 
f 383/527/383 303/382/303 300/379/300 
f 74/528/74 311/391/311 299/529/299 
f 311/391/311 310/390/310 299/529/299 
f 299/530/299 310/531/310 384/532/384 
f 314/533/314 385/534/385 301/535/301 
f 386/536/386 315/397/315 314/396/314 
f 387/537/387 325/411/325 307/386/307 
f 388/538/388 310/390/310 198/240/198 
f 86/539/86 323/540/323 80/541/80 
f 87/542/87 316/543/316 88/544/88 
f 389/545/389 216/546/216 217/547/217 
f 211/548/211 390/549/390 391/550/391 
f 392/551/392 391/550/391 390/549/390 
f 392/551/392 390/549/390 393/552/393 
f 210/253/210 394/553/394 395/554/395 
f 230/555/230 393/552/393 390/549/390 
f 329/556/329 220/270/220 221/272/221 
f 396/557/396 91/558/91 95/112/95 
f 228/281/228 231/284/231 316/406/316 
f 229/559/229 327/560/327 326/561/326 
f 328/415/328 105/562/105 397/563/397 
f 106/134/106 398/564/398 399/565/399 
f 112/566/112 400/567/400 118/150/118 
f 401/568/401 402/569/402 403/570/403 
f 404/571/404 401/568/401 403/570/403 
f 10/17/10 242/298/242 243/572/243 
f 405/573/405 402/574/402 406/575/406 
f 136/173/136 243/299/243 137/174/137 
f 338/576/338 407/577/407 340/578/340 
f 341/443/341 408/579/408 409/580/409 
f 349/460/349 252/581/252 344/461/344 
f 138/582/138 122/583/122 151/584/151 
f 130/166/130 151/584/151 122/583/122 
f 405/585/405 410/586/410 348/456/348 
f 346/454/346 411/587/411 347/455/347 
f 259/588/259 23/589/23 349/590/349 
f 412/591/412 413/592/413 414/593/414 
f 35/186/35 150/188/150 356/474/356 
f 415/594/415 146/595/146 145/189/145 
f 149/596/149 42/597/42 24/36/24 
f 415/594/415 49/63/49 146/595/146 
f 416/598/416 361/488/361 354/487/354 
f 48/62/48 417/599/417 418/600/418 
f 357/482/357 31/484/31 258/344/258 
f 419/601/419 363/490/363 151/190/151 
f 53/345/53 367/498/367 267/338/267 
f 367/498/367 275/352/275 268/339/268 
f 374/602/374 52/66/52 420/603/420 
f 273/604/273 373/605/373 270/347/270 
f 281/358/281 377/606/377 421/607/421 
f 167/608/167 274/609/274 165/514/165 
f 422/610/422 377/606/377 281/358/281 
f 175/217/175 58/611/58 282/359/282 
f 170/211/170 169/210/169 276/353/276 
f 423/612/423 162/203/162 164/205/164 
f 378/522/378 423/613/423 164/521/164 
f 379/523/379 380/524/380 168/209/168 
f 176/218/176 69/614/69 62/216/62 
f 180/222/180 182/224/182 181/223/181 
f 187/615/187 177/616/177 185/617/185 
f 288/365/288 382/526/382 185/227/185 
f 383/527/383 300/379/300 293/618/293 
f 192/389/192 73/619/73 295/373/295 
f 386/536/386 301/380/301 300/379/300 
f 76/620/76 71/621/71 194/236/194 
f 89/106/89 193/622/193 195/623/195 
f 79/95/79 81/624/81 77/93/77 
f 199/241/199 201/243/201 424/625/424 
f 425/626/425 426/627/426 189/231/189 
f 384/628/384 391/629/391 304/630/304 
f 427/631/427 312/632/312 77/633/77 
f 77/633/77 227/634/227 427/631/427 
f 428/635/428 325/411/325 385/636/385 
f 424/625/424 201/243/201 202/637/202 
f 318/401/318 426/638/426 429/639/429 
f 91/108/91 93/110/93 430/640/430 
f 431/641/431 432/642/432 313/395/313 
f 226/643/226 428/644/428 432/645/432 
f 225/646/225 100/647/100 103/648/103 
f 229/282/229 228/281/228 103/125/103 
f 229/282/229 103/125/103 102/127/102 
f 223/425/223 332/424/332 232/420/232 
f 232/420/232 433/649/433 330/421/330 
f 216/650/216 105/129/105 99/119/99 
f 434/651/434 234/287/234 435/652/435 
f 434/651/434 235/288/235 234/287/234 
f 436/653/436 401/654/401 112/655/112 
f 112/656/112 401/657/401 404/658/404 
f 404/659/404 245/305/245 400/567/400 
f 125/159/125 437/660/437 250/315/250 
f 438/661/438 128/163/128 123/662/123 
f 126/663/126 125/664/125 345/665/345 
f 438/666/438 123/667/123 345/668/345 
f 25/669/25 26/670/26 248/671/248 
f 250/315/250 437/660/437 251/316/251 
f 130/166/130 129/165/129 413/672/413 
f 412/673/412 154/193/154 153/192/153 
f 416/674/416 256/324/256 255/323/255 
f 255/675/255 40/676/40 416/677/416 
f 439/678/439 361/679/361 269/680/269 
f 440/681/440 411/587/411 346/454/346 
f 153/192/153 155/194/155 368/682/368 
f 277/354/277 262/333/262 441/683/441 
f 420/603/420 421/684/421 374/602/374 
f 62/216/62 58/611/58 175/217/175 
f 423/612/423 175/217/175 162/203/162 
f 174/215/174 173/214/173 166/685/166 
f 178/220/178 181/223/181 377/606/377 
f 442/686/442 443/687/443 444/688/444 
f 443/689/443 442/690/442 445/691/445 
f 292/692/292 294/693/294 182/224/182 
f 295/373/295 188/372/188 187/615/187 
f 293/370/293 302/694/302 294/371/294 
f 294/371/294 302/694/302 306/695/306 
f 298/376/298 191/233/191 382/526/382 
f 446/696/446 447/697/447 448/698/448 
f 449/699/449 446/696/446 448/698/448 
f 446/696/446 305/384/305 447/697/447 
f 83/100/83 82/99/82 79/98/79 
f 326/412/326 315/414/315 386/700/386 
f 93/701/93 92/247/92 206/249/206 
f 93/110/93 203/702/203 430/640/430 
f 450/703/450 82/704/82 84/705/84 
f 208/706/208 451/707/451 430/708/430 
f 222/709/222 208/706/208 430/708/430 
f 96/113/96 308/710/308 94/111/94 
f 88/402/88 321/405/321 319/403/319 
f 316/406/316 321/405/321 88/402/88 
f 452/711/452 213/712/213 394/553/394 
f 202/244/202 453/713/453 222/273/222 
f 454/714/454 225/278/225 227/280/227 
f 326/561/326 393/552/393 230/555/230 
f 226/279/226 225/278/225 103/715/103 
f 100/122/100 450/716/450 101/123/101 
f 103/717/103 228/718/228 324/719/324 
f 102/720/102 431/721/431 327/560/327 
f 455/722/455 90/723/90 104/724/104 
f 236/725/236 235/288/235 434/651/434 
f 105/726/105 456/727/456 106/728/106 
f 108/729/108 110/730/110 457/731/457 
f 457/731/457 110/730/110 435/732/435 
f 238/733/238 399/734/399 237/735/237 
f 458/736/458 241/427/241 333/426/333 
f 239/737/239 1/4/1 4/6/4 
f 114/146/114 459/738/459 436/739/436 
f 436/739/436 459/738/459 460/740/460 
f 436/739/436 112/144/112 114/146/114 
f 436/653/436 402/574/402 401/654/401 
f 11/18/11 6/14/6 9/16/9 
f 461/741/461 334/433/334 462/742/462 
f 462/742/462 348/743/348 461/741/461 
f 245/305/245 404/659/404 121/306/121 
f 345/744/345 123/157/123 122/156/122 
f 437/660/437 125/159/125 124/158/124 
f 463/745/463 335/436/335 244/303/244 
f 345/665/345 137/746/137 126/663/126 
f 128/163/128 250/747/250 127/161/127 
f 464/748/464 463/745/463 465/749/465 
f 466/750/466 467/751/467 256/324/256 
f 468/752/468 141/178/141 140/177/140 
f 151/584/151 130/166/130 413/672/413 
f 464/748/464 469/753/469 463/745/463 
f 140/754/140 35/186/35 470/755/470 
f 36/756/36 140/757/140 139/758/139 
f 358/480/358 418/759/418 32/481/32 
f 37/760/37 470/755/470 265/475/265 
f 441/683/441 262/333/262 261/332/261 
f 24/36/24 42/597/42 26/37/26 
f 259/328/259 349/460/349 350/462/350 
f 360/761/360 361/762/361 439/763/439 
f 148/185/148 147/184/147 268/339/268 
f 363/490/363 49/63/49 471/764/471 
f 146/595/146 51/65/51 21/765/21 
f 472/766/472 351/463/351 45/767/45 
f 146/595/146 49/63/49 51/65/51 
f 51/768/51 57/769/57 269/770/269 
f 54/771/54 472/772/472 45/57/45 
f 275/352/275 277/354/277 143/180/143 
f 148/185/148 275/352/275 143/180/143 
f 440/681/440 160/201/160 372/508/372 
f 47/773/47 420/774/420 54/775/54 
f 473/776/473 281/358/281 156/195/156 
f 275/352/275 367/498/367 278/355/278 
f 421/607/421 156/195/156 281/358/281 
f 273/604/273 270/347/270 274/609/274 
f 160/201/160 440/681/440 474/777/474 
f 160/201/160 475/778/475 161/202/161 
f 277/354/277 276/353/276 169/210/169 
f 377/520/377 476/779/476 170/518/170 
f 422/610/422 179/221/179 178/220/178 
f 378/522/378 442/690/442 423/613/423 
f 477/780/477 286/363/286 160/201/160 
f 285/362/285 160/201/160 286/363/286 
f 172/213/172 186/228/186 173/214/173 
f 442/690/442 378/522/378 290/367/290 
f 288/365/288 287/364/287 297/375/297 
f 306/385/306 449/699/449 291/368/291 
f 296/781/296 295/782/295 73/783/73 
f 189/231/189 191/233/191 298/376/298 
f 197/784/197 196/785/196 478/786/478 
f 386/700/386 304/787/304 326/412/326 
f 82/704/82 454/788/454 81/789/81 
f 211/254/211 391/790/391 209/252/209 
f 479/791/479 454/788/454 82/704/82 
f 319/403/319 389/792/389 320/404/320 
f 392/793/392 393/794/393 304/787/304 
f 304/787/304 393/794/393 326/412/326 
f 452/711/452 394/553/394 210/253/210 
f 431/795/431 313/796/313 327/413/327 
f 316/398/316 325/411/325 324/410/324 
f 319/403/319 321/405/321 480/797/480 
f 394/553/394 330/421/330 317/798/317 
f 221/799/221 457/800/457 234/801/234 
f 99/119/99 97/118/97 216/650/216 
f 100/647/100 225/646/225 479/802/479 
f 214/260/214 332/803/332 331/804/331 
f 330/805/330 95/806/95 317/807/317 
f 229/559/229 102/720/102 327/560/327 
f 110/730/110 434/808/434 435/732/435 
f 459/809/459 239/737/239 4/6/4 
f 239/810/239 114/146/114 113/145/113 
f 7/13/7 115/811/115 242/298/242 
f 481/812/481 482/813/482 337/439/337 
f 405/573/405 348/743/348 462/742/462 
f 126/160/126 117/814/117 124/158/124 
f 128/163/128 16/162/16 123/662/123 
f 136/173/136 22/467/22 13/434/13 
f 469/753/469 335/436/335 463/745/463 
f 468/815/468 39/816/39 465/749/465 
f 349/590/349 23/589/23 252/817/252 
f 415/594/415 152/191/152 471/764/471 
f 152/191/152 415/594/415 145/189/145 
f 364/491/364 48/62/48 418/600/418 
f 472/818/472 258/819/258 351/820/351 
f 441/683/441 143/180/143 277/354/277 
f 259/328/259 369/505/369 371/507/371 
f 473/776/473 156/195/156 38/50/38 
f 376/519/376 276/821/276 278/822/278 
f 60/76/60 63/79/63 61/77/61 
f 63/79/63 477/823/477 61/77/61 
f 174/215/174 166/685/166 475/778/475 
f 475/778/475 285/362/285 174/215/174 
f 477/823/477 65/81/65 66/82/66 
f 379/824/379 170/518/170 476/779/476 
f 62/78/62 64/80/64 63/79/63 
f 381/525/381 380/524/380 379/523/379 
f 294/825/294 483/826/483 182/827/182 
f 185/617/185 382/828/382 187/615/187 
f 289/366/289 449/699/449 448/698/448 
f 75/91/75 296/378/296 73/89/73 
f 299/377/299 75/91/75 74/90/74 
f 307/386/307 306/385/306 387/537/387 
f 192/234/192 94/111/94 308/710/308 
f 206/829/206 205/830/205 199/831/199 
f 424/832/424 202/244/202 204/246/204 
f 428/644/428 385/534/385 314/533/314 
f 305/384/305 307/386/307 325/411/325 
f 96/833/96 451/834/451 309/388/309 
f 197/239/197 207/250/207 213/256/213 
f 314/396/314 313/395/313 432/642/432 
f 213/256/213 452/835/452 388/538/388 
f 428/644/428 226/643/226 325/836/325 
f 215/263/215 202/637/202 201/243/201 
f 322/407/322 395/554/395 323/408/323 
f 322/837/322 455/838/455 219/839/219 
f 214/260/214 215/840/215 200/261/200 
f 453/841/453 202/842/202 215/843/215 
f 317/844/317 95/112/95 94/111/94 
f 433/845/433 95/806/95 330/805/330 
f 332/424/332 433/649/433 232/420/232 
f 398/564/398 106/134/106 456/846/456 
f 112/566/112 241/427/241 113/847/113 
f 7/848/7 2/849/2 458/850/458 
f 11/851/11 484/852/484 6/853/6 
f 460/854/460 482/855/482 485/856/485 
f 402/574/402 460/854/460 485/856/485 
f 118/150/118 400/567/400 119/151/119 
f 244/303/244 120/153/120 334/857/334 
f 337/439/337 484/858/484 11/859/11 
f 15/24/15 123/157/123 16/25/16 
f 137/860/137 117/814/117 126/160/126 
f 15/861/15 130/166/130 122/583/122 
f 347/455/347 135/862/135 461/863/461 
f 14/164/14 130/166/130 15/861/15 
f 355/864/355 486/865/486 466/866/466 
f 39/816/39 464/748/464 465/749/465 
f 17/26/17 254/322/254 12/20/12 
f 355/473/355 466/867/466 256/471/256 
f 335/436/335 469/753/469 142/868/142 
f 347/455/347 411/587/411 135/862/135 
f 411/587/411 133/869/133 135/862/135 
f 418/759/418 487/870/487 32/481/32 
f 145/182/145 136/173/136 138/175/138 
f 147/184/147 142/179/142 469/871/469 
f 144/181/144 441/683/441 261/332/261 
f 364/872/364 418/873/418 358/874/358 
f 260/329/260 371/507/371 356/875/356 
f 363/490/363 471/764/471 152/191/152 
f 372/508/372 133/869/133 411/587/411 
f 350/462/350 365/876/365 259/328/259 
f 417/599/417 48/62/48 47/61/47 
f 55/877/55 46/878/46 157/879/157 
f 417/880/417 47/881/47 488/882/488 
f 489/883/489 473/884/473 370/885/370 
f 57/73/57 375/517/375 439/886/439 
f 54/887/54 488/888/488 47/889/47 
f 370/890/370 369/503/369 273/510/273 
f 156/891/156 421/892/421 55/893/55 
f 420/894/420 55/895/55 421/896/421 
f 180/222/180 181/223/181 178/220/178 
f 287/364/287 70/897/70 297/375/297 
f 306/385/306 446/696/446 449/699/449 
f 74/528/74 196/238/196 311/391/311 
f 478/786/478 196/785/196 74/90/74 
f 189/231/189 318/898/318 190/232/190 
f 384/899/384 304/900/304 490/901/490 
f 77/633/77 312/632/312 78/902/78 
f 217/266/217 76/620/76 194/236/194 
f 431/903/431 312/904/312 491/905/491 
f 323/408/323 86/906/86 98/409/98 
f 101/123/101 450/716/450 84/907/84 
f 479/791/479 82/704/82 450/703/450 
f 328/908/328 397/909/397 480/910/480 
f 214/257/214 91/558/91 396/557/396 
f 214/257/214 92/259/92 91/558/91 
f 224/911/224 455/912/455 457/913/457 
f 457/914/457 221/915/221 224/916/224 
f 233/286/233 329/418/329 234/287/234 
f 455/722/455 104/724/104 107/917/107 
f 237/735/237 399/734/399 235/918/235 
f 110/919/110 111/920/111 434/921/434 
f 111/922/111 236/923/236 434/924/434 
f 459/738/459 114/146/114 239/810/239 
f 5/9/5 482/813/482 4/7/4 
f 121/155/121 403/570/403 120/153/120 
f 124/158/124 117/814/117 119/151/119 
f 481/812/481 337/439/337 342/444/342 
f 408/925/408 341/926/341 486/927/486 
f 254/928/254 407/929/407 338/930/338 
f 336/452/336 338/576/338 340/578/340 
f 336/452/336 340/578/340 339/450/339 
f 257/325/257 407/931/407 254/932/254 
f 134/431/134 139/176/139 141/178/141 
f 408/933/408 355/934/355 409/935/409 
f 18/27/18 261/332/261 19/28/19 
f 249/314/249 245/305/245 492/936/492 
f 360/937/360 493/938/493 409/939/409 
f 410/586/410 494/940/494 346/454/346 
f 36/48/36 139/176/139 133/941/133 
f 261/332/261 263/334/263 492/936/492 
f 350/492/350 344/942/344 353/493/353 
f 149/943/149 24/944/24 253/945/253 
f 46/60/46 364/491/364 495/946/495 
f 416/947/416 40/948/40 269/949/269 
f 158/198/158 363/490/363 368/950/368 
f 488/882/488 45/57/45 28/59/28 
f 57/71/57 51/65/51 50/64/50 
f 162/203/162 175/217/175 282/359/282 
f 442/690/442 290/367/290 445/691/445 
f 445/691/445 290/367/290 289/366/289 
f 291/368/291 290/367/290 381/525/381 
f 496/951/496 71/621/71 69/614/69 
f 188/230/188 293/952/293 292/692/292 
f 444/688/444 195/237/195 496/951/496 
f 443/687/443 195/237/195 444/688/444 
f 445/691/445 289/366/289 497/953/497 
f 296/954/296 490/955/490 383/956/383 
f 192/389/192 309/388/309 478/957/478 
f 309/388/309 197/958/197 478/957/478 
f 305/384/305 87/104/87 447/697/447 
f 310/531/310 388/959/388 384/532/384 
f 94/111/94 190/232/190 318/898/318 
f 323/540/323 425/960/425 80/541/80 
f 88/105/88 320/961/320 89/106/89 
f 429/639/429 426/638/426 323/962/323 
f 427/963/427 226/964/226 312/965/312 
f 227/966/227 226/964/226 427/963/427 
f 452/967/452 210/968/210 209/969/209 
f 325/411/325 316/398/316 305/384/305 
f 98/115/98 90/117/90 455/970/455 
f 433/845/433 396/971/396 95/806/95 
f 433/845/433 332/803/332 396/971/396 
f 458/972/458 2/2/2 1/1/1 
f 6/10/6 484/858/484 5/9/5 
f 4/7/4 482/813/482 460/973/460 
f 404/659/404 400/567/400 112/566/112 
f 405/573/405 462/742/462 402/574/402 
f 337/439/337 11/859/11 338/440/338 
f 493/974/493 406/975/406 342/444/342 
f 493/974/493 405/976/405 406/975/406 
f 26/670/26 343/977/343 248/671/248 
f 487/978/487 30/979/30 498/980/498 
f 138/175/138 345/449/345 122/981/122 
f 249/982/249 414/593/414 14/983/14 
f 414/984/414 129/985/129 14/986/14 
f 19/28/19 492/936/492 245/305/245 
f 352/987/352 258/988/258 131/989/131 
f 19/28/19 261/332/261 492/936/492 
f 354/990/354 360/991/360 355/992/355 
f 360/761/360 439/763/439 493/993/493 
f 439/763/439 410/586/410 493/993/493 
f 495/994/495 358/995/358 147/996/147 
f 364/997/364 358/998/358 495/999/495 
f 42/54/42 44/56/44 26/1000/26 
f 371/507/371 264/1001/264 356/875/356 
f 354/472/354 256/471/256 416/1002/416 
f 157/1003/157 46/1004/46 359/1005/359 
f 34/46/34 42/1006/42 149/331/149 
f 499/1007/499 494/940/494 439/763/439 
f 38/50/38 156/195/156 266/337/266 
f 488/882/488 54/771/54 45/57/45 
f 499/1007/499 440/681/440 494/940/494 
f 417/880/417 488/882/488 28/59/28 
f 262/333/262 284/1008/284 283/1009/283 
f 163/1010/163 284/1008/284 262/333/262 
f 165/514/165 274/609/274 270/347/270 
f 421/1011/421 377/520/377 376/519/376 
f 500/1012/500 423/612/423 442/686/442 
f 183/1013/183 476/779/476 181/1014/181 
f 177/219/177 179/221/179 501/1015/501 
f 177/219/177 182/224/182 180/222/180 
f 66/1016/66 287/364/287 184/226/184 
f 185/1017/185 177/1018/177 173/1019/173 
f 67/1020/67 70/897/70 287/364/287 
f 449/699/449 289/366/289 291/368/291 
f 296/1021/296 299/1022/299 490/1023/490 
f 383/527/383 490/1024/490 303/382/303 
f 425/626/425 70/897/70 80/1025/80 
f 190/232/190 94/111/94 192/234/192 
f 203/702/203 93/110/93 206/1026/206 
f 87/104/87 89/106/89 447/697/447 
f 391/629/391 384/628/384 209/1027/209 
f 391/629/391 392/1028/392 304/630/304 
f 198/240/198 213/256/213 388/538/388 
f 428/644/428 314/533/314 432/645/432 
f 91/1029/91 451/834/451 96/833/96 
f 451/834/451 91/1029/91 430/1030/430 
f 319/403/319 397/1031/397 389/792/389 
f 319/403/319 480/797/480 397/1031/397 
f 230/283/230 390/1032/390 480/797/480 
f 321/405/321 230/283/230 480/797/480 
f 453/713/453 223/274/223 222/273/222 
f 218/267/218 207/250/207 223/274/223 
f 100/122/100 479/1033/479 450/716/450 
f 458/972/458 240/296/240 241/297/241 
f 117/814/117 116/152/116 119/151/119 
f 406/975/406 485/1034/485 481/812/481 
f 13/434/13 243/299/243 136/173/136 
f 30/979/30 247/1035/247 498/980/498 
f 409/1036/409 342/1037/342 339/1038/339 
f 486/1039/486 355/1040/355 408/1041/408 
f 249/1042/249 14/1043/14 127/161/127 
f 140/177/140 470/1044/470 468/752/468 
f 355/934/355 360/1045/360 409/935/409 
f 469/753/469 464/748/464 495/994/495 
f 40/1046/40 255/323/255 254/932/254 
f 151/1047/151 145/182/145 138/175/138 
f 414/984/414 413/1048/413 129/985/129 
f 412/673/412 249/314/249 492/936/492 
f 372/508/372 502/1049/502 133/869/133 
f 502/1049/502 36/1050/36 133/869/133 
f 31/484/31 33/1051/33 258/344/258 
f 30/1052/30 29/1053/29 45/1054/45 
f 439/763/439 494/940/494 410/586/410 
f 495/1055/495 359/1005/359 46/1004/46 
f 49/63/49 415/594/415 471/764/471 
f 53/1056/53 258/819/258 472/818/472 
f 264/1057/264 473/884/473 38/1058/38 
f 365/494/365 362/496/362 43/1059/43 
f 264/1057/264 370/885/370 473/884/473 
f 489/883/489 370/885/370 273/1060/273 
f 489/883/489 273/1060/273 272/1061/272 
f 375/517/375 57/73/57 59/75/59 
f 276/353/276 376/1062/376 170/211/170 
f 282/359/282 284/361/284 162/203/162 
f 171/212/171 378/522/378 277/354/277 
f 423/612/423 500/1012/500 175/217/175 
f 501/1063/501 279/1064/279 166/207/166 
f 501/1065/501 166/1066/166 173/1019/173 
f 286/363/286 66/1016/66 184/226/184 
f 286/363/286 186/228/186 172/213/172 
f 290/367/290 171/212/171 381/525/381 
f 291/368/291 381/525/381 379/523/379 
f 186/228/186 286/363/286 184/226/184 
f 500/1012/500 444/688/444 176/218/176 
f 287/1067/287 66/82/66 67/83/67 
f 483/1068/483 291/1069/291 183/1013/183 
f 182/224/182 483/1070/483 183/225/183 
f 383/1071/383 188/1072/188 296/1073/296 
f 188/1072/188 383/1071/383 293/1074/293 
f 497/953/497 443/689/443 445/691/445 
f 74/90/74 73/89/73 478/786/478 
f 297/375/297 425/626/425 298/376/298 
f 70/897/70 425/626/425 297/375/297 
f 189/231/189 298/376/298 425/626/425 
f 198/240/198 311/391/311 196/238/196 
f 447/697/447 89/106/89 448/698/448 
f 454/1075/454 77/1076/77 81/1077/81 
f 384/1078/384 388/1079/388 209/969/209 
f 454/1080/454 227/634/227 77/633/77 
f 323/1081/323 426/1082/426 425/1083/425 
f 222/273/222 430/1084/430 203/245/203 
f 202/244/202 222/273/222 203/245/203 
f 317/399/317 318/401/318 429/639/429 
f 395/554/395 429/1085/429 323/408/323 
f 226/643/226 432/645/432 491/1086/491 
f 432/642/432 431/641/431 491/1087/491 
f 312/904/312 226/1088/226 491/905/491 
f 395/554/395 322/407/322 210/253/210 
f 220/269/220 390/1032/390 211/254/211 
f 231/284/231 230/283/230 321/405/321 
f 324/410/324 226/279/226 103/715/103 
f 431/1089/431 102/1090/102 101/1091/101 
f 457/1092/457 435/652/435 234/287/234 
f 399/1093/399 398/1094/398 233/1095/233 
f 237/1096/237 236/1097/236 109/1098/109 
f 333/1099/333 115/1100/115 458/850/458 
f 458/850/458 115/1100/115 7/848/7 
f 115/1101/115 333/426/333 116/152/116 
f 403/570/403 121/155/121 404/571/404 
f 482/813/482 481/812/481 485/1034/485 
f 437/660/437 124/158/124 119/151/119 
f 400/567/400 437/660/437 119/151/119 
f 334/433/334 461/741/461 134/431/134 
f 498/1102/498 247/310/247 132/307/132 
f 251/316/251 437/660/437 245/305/245 
f 127/161/127 14/1043/14 16/162/16 
f 134/431/134 461/741/461 135/1103/135 
f 12/1104/12 254/928/254 338/930/338 
f 144/181/144 18/27/18 335/453/335 
f 256/324/256 467/751/467 257/325/257 
f 33/327/33 32/168/32 131/167/131 
f 255/323/255 257/325/257 254/932/254 
f 28/40/28 487/1105/487 418/600/418 
f 149/943/149 253/945/253 150/1106/150 
f 351/463/351 30/465/30 45/767/45 
f 143/180/143 142/179/142 148/185/148 
f 41/1107/41 269/949/269 40/948/40 
f 371/507/371 260/329/260 259/328/259 
f 416/598/416 269/1108/269 361/488/361 
f 494/940/494 440/681/440 346/454/346 
f 156/195/156 157/197/157 266/337/266 
f 375/517/375 499/1109/499 439/886/439 
f 367/511/367 53/1110/53 52/512/52 
f 270/347/270 373/605/373 43/55/43 
f 499/1007/499 375/1111/375 440/681/440 
f 421/1011/421 376/519/376 374/513/374 
f 376/519/376 278/822/278 374/513/374 
f 422/610/422 281/358/281 280/357/280 
f 377/520/377 181/1014/181 476/779/476 
f 501/1015/501 179/221/179 279/356/279 
f 285/362/285 172/213/172 174/215/174 
f 66/1016/66 286/363/286 477/780/477 
f 171/212/171 290/367/290 378/522/378 
f 175/217/175 500/1012/500 176/218/176 
f 64/80/64 68/84/68 67/83/67 
f 444/688/444 500/1012/500 442/686/442 
f 188/230/188 292/692/292 177/219/177 
f 291/1112/291 483/826/483 294/825/294 
f 382/828/382 191/1113/191 187/615/187 
f 295/373/295 187/615/187 191/1113/191 
f 384/532/384 490/1114/490 299/530/299 
f 490/1115/490 304/1116/304 303/1117/303 
f 301/535/301 385/534/385 387/1118/387 
f 101/1091/101 84/1119/84 312/394/312 
f 217/266/217 97/265/97 76/620/76 
f 394/553/394 317/798/317 429/1085/429 
f 312/394/312 431/1089/431 101/1091/101 
f 330/421/330 394/553/394 213/712/213 
f 327/413/327 313/796/313 315/414/315 
f 324/410/324 228/1120/228 316/398/316 
f 215/840/215 214/260/214 331/804/331 
f 332/803/332 214/260/214 396/971/396 
f 331/1121/331 223/1122/223 453/841/453 
f 218/1123/218 223/1124/223 232/1125/232 
f 328/415/328 456/1126/456 105/562/105 
f 108/729/108 457/731/457 107/917/107 
f 236/1097/236 237/1096/237 235/1127/235 
f 238/293/238 109/137/109 106/134/106 
f 239/294/239 240/296/240 1/1/1 
f 460/1128/460 459/809/459 4/6/4 
f 112/566/112 118/150/118 241/427/241 
f 403/570/403 402/569/402 462/1129/462 
f 243/299/243 117/301/117 137/174/137 
f 120/1130/120 18/27/18 20/29/20 
f 467/1131/467 486/1132/486 341/1133/341 
f 19/28/19 121/306/121 20/29/20 
f 466/750/466 486/1134/486 467/751/467 
f 339/441/339 341/443/341 409/580/409 
f 251/316/251 245/305/245 249/314/249 
f 30/42/30 487/1105/487 28/40/28 
f 412/591/412 414/593/414 249/982/249 
f 147/996/147 358/995/358 357/1135/357 
f 441/683/441 144/181/144 143/180/143 
f 357/482/357 267/338/267 147/184/147 
f 372/508/372 159/200/159 502/1049/502 
f 271/348/271 270/347/270 366/497/366 
f 264/1001/264 371/507/371 370/506/370 
f 263/334/263 283/1009/283 155/194/155 
f 262/333/262 283/1009/283 263/334/263 
f 283/360/283 282/359/282 155/516/155 
f 277/354/277 163/1010/163 262/333/262 
f 159/346/159 161/1136/161 165/514/165 
f 279/1064/279 272/1137/272 167/208/167 
f 277/354/277 164/521/164 163/1010/163 
f 475/778/475 165/1138/165 161/202/161 
f 61/77/61 477/823/477 474/1139/474 
f 474/777/474 477/780/477 160/201/160 
f 279/356/279 179/221/179 280/357/280 
f 178/220/178 377/606/377 422/610/422 
f 62/78/62 69/85/69 64/80/64 
f 291/1069/291 379/824/379 183/1013/183 
f 444/688/444 496/951/496 176/218/176 
f 185/227/185 173/214/173 186/228/186 
f 294/371/294 306/695/306 291/1140/291 
f 496/951/496 194/236/194 71/621/71 
f 191/1113/191 192/389/192 295/373/295 
f 89/106/89 195/623/195 497/953/497 
f 386/536/386 314/396/314 301/380/301 
f 203/702/203 206/1026/206 204/1141/204 
f 89/106/89 320/961/320 193/622/193 
f 199/1142/199 205/1143/205 200/1144/200 
f 451/707/451 197/1145/197 309/1146/309 
f 197/239/197 213/256/213 198/240/198 
f 209/969/209 388/1079/388 452/967/452 
f 220/269/220 480/797/480 390/1032/390 
f 395/554/395 394/553/394 429/1085/429 
f 397/1147/397 216/1148/216 389/1149/389 
f 230/555/230 229/559/229 326/561/326 
f 216/1150/216 397/563/397 105/562/105 
f 233/1095/233 398/1094/398 456/1126/456 
f 120/153/120 462/1129/462 334/857/334 
f 462/1129/462 120/153/120 403/570/403 
f 463/745/463 244/303/244 465/749/465 
f 481/812/481 342/444/342 406/975/406 
f 257/325/257 467/751/467 407/931/407 
f 30/465/30 246/464/246 247/1151/247 
f 127/161/127 250/747/250 249/1042/249 
f 352/987/352 131/989/131 246/1152/246 
f 344/470/344 343/459/343 44/458/44 
f 261/332/261 18/27/18 144/181/144 
f 37/1153/37 468/752/468 470/1044/470 
f 39/816/39 359/1154/359 464/748/464 
f 253/1155/253 260/1156/260 150/188/150 
f 260/1156/260 356/474/356 150/188/150 
f 264/1001/264 265/1157/265 356/875/356 
f 363/1158/363 419/1159/419 153/1160/153 
f 419/1159/419 413/1161/413 153/1160/153 
f 412/591/412 153/1162/153 413/592/413 
f 153/192/153 368/682/368 363/1163/363 
f 419/1164/419 151/1165/151 413/1166/413 
f 42/1167/42 34/1168/34 366/1169/366 
f 439/678/439 269/680/269 57/1170/57 
f 54/1171/54 53/1056/53 472/818/472 
f 420/774/420 47/773/47 55/1172/55 
f 474/1139/474 375/517/375 61/77/61 
f 375/1111/375 474/777/474 440/681/440 
f 282/359/282 58/611/58 56/515/56 
f 169/210/169 171/212/171 277/354/277 
f 475/778/475 166/685/166 165/1138/165 
f 166/207/166 279/1064/279 167/208/167 
f 171/212/171 168/209/168 380/524/380 
f 183/1013/183 379/824/379 476/779/476 
f 177/1018/177 501/1065/501 173/1019/173 
f 497/953/497 195/623/195 443/689/443 
f 194/236/194 496/951/496 195/237/195 
f 304/787/304 386/700/386 300/1173/300 
f 306/385/306 305/384/305 446/696/446 
f 318/898/318 189/231/189 426/627/426 
f 217/266/217 194/236/194 193/235/193 
f 320/1174/320 217/266/217 193/235/193 
f 208/706/208 197/1145/197 451/707/451 
f 219/268/219 210/253/210 322/407/322 
f 211/254/211 210/253/210 219/268/219 
f 91/558/91 96/113/96 95/112/95 
f 223/274/223 207/250/207 208/251/208 
f 224/1175/224 219/839/219 455/838/455 
f 107/917/107 457/731/457 455/722/455 
f 238/293/238 106/134/106 399/565/399 
f 1/1/1 240/296/240 458/972/458 
f 118/150/118 116/152/116 241/427/241 
f 484/858/484 482/813/482 5/9/5 
f 460/854/460 402/574/402 436/653/436 
f 337/439/337 482/813/482 484/858/484 
f 485/856/485 406/575/406 402/574/402 
f 400/567/400 245/305/245 437/660/437 
f 347/1176/347 461/741/461 348/743/348 
f 340/578/340 407/577/407 341/1177/341 
f 467/1131/467 341/1133/341 407/1178/407 
f 12/1179/12 338/440/338 11/859/11 
f 468/815/468 244/303/244 141/302/141 
f 465/749/465 244/303/244 468/815/468 
f 438/1180/438 345/665/345 125/664/125 
f 487/870/487 498/1181/498 32/481/32 
f 498/1181/498 132/1182/132 32/481/32 
f 125/664/125 250/1183/250 438/1180/438 
f 250/747/250 128/163/128 438/661/438 
f 409/1036/409 493/1184/493 342/1037/342 
f 39/1185/39 468/752/468 37/1153/37 
f 493/1186/493 410/1187/410 405/1188/405 
f 346/454/346 348/456/348 410/586/410 
f 470/755/470 35/186/35 265/475/265 
f 359/1005/359 495/1055/495 464/1189/464 
f 147/996/147 469/753/469 495/994/495 
f 35/47/35 140/177/140 36/48/36 
f 352/1190/352 351/820/351 258/819/258 
f 502/1049/502 34/1168/34 36/1050/36 
f 28/40/28 418/600/418 417/599/417 
f 492/936/492 154/193/154 412/673/412 
f 357/482/357 258/344/258 267/338/267 
f 154/193/154 492/936/492 263/334/263 
f 271/1191/271 366/1169/366 502/1049/502 
f 502/1049/502 366/1169/366 34/1168/34 
f 440/681/440 372/508/372 411/587/411 
f 365/876/365 369/505/369 259/328/259 
f 271/1191/271 502/1049/502 159/200/159 
f 369/503/369 43/502/43 273/510/273 
f 54/68/54 420/603/420 52/66/52 
f 278/822/278 367/511/367 374/513/374 
f 272/1192/272 281/358/281 489/1193/489 
f 489/1193/489 281/358/281 473/776/473 
f 167/1194/167 272/1195/272 274/1196/274 
f 281/358/281 272/1192/272 279/356/279 
f 285/362/285 475/778/475 160/201/160 
f 477/823/477 63/79/63 65/81/65 
f 280/357/280 179/221/179 422/610/422 
f 69/614/69 176/218/176 496/951/496 
f 177/219/177 292/692/292 182/224/182 
f 185/227/185 184/226/184 288/365/288 
f 497/953/497 289/366/289 448/698/448 
f 300/379/300 302/381/302 293/618/293 
f 387/1118/387 302/694/302 301/535/301 
f 302/694/302 387/1118/387 306/695/306 
f 192/389/192 478/957/478 73/619/73 
f 448/698/448 89/106/89 497/953/497 
f 424/1197/424 206/1198/206 199/1199/199 
f 204/1200/204 206/1198/206 424/1197/424 
f 83/100/83 79/98/79 78/1201/78 
f 325/411/325 387/537/387 385/636/385 
f 96/833/96 309/388/309 308/387/308 
f 312/394/312 84/1119/84 83/392/83 
f 389/792/389 217/1202/217 320/404/320 
f 479/802/479 225/646/225 454/1203/454 
f 212/422/212 330/421/330 213/712/213 
f 98/115/98 455/970/455 322/1204/322 
f 328/1205/328 480/1206/480 220/1207/220 
f 453/841/453 215/843/215 331/1121/331 
f 328/415/328 329/417/329 456/1126/456 
f 329/417/329 233/1095/233 456/1126/456 
f 235/1208/235 399/1093/399 233/1095/233 
# 0 polygons - 1000 triangles

